<svg xmlns="http://www.w3.org/2000/svg" fill="none" viewBox="0 0 145 145"><g fill="#fff" clip-path="url(#a)" opacity=".6"><path d="M72.5 0a72.5 72.5 0 1 0 0 145 72.5 72.5 0 0 0 0-145Zm0 140.4a67.8 67.8 0 1 1 0-135.6 67.8 67.8 0 0 1 0 135.6Z"/><path d="M72.5 15.6a56.9 56.9 0 1 0 .1 113.8 56.9 56.9 0 0 0 0-113.8Zm0 105a48.2 48.2 0 1 1 .1-96.4 48.2 48.2 0 0 1 0 96.4Z"/><path d="M72.6 40.6a32 32 0 1 0 0 64 32 32 0 0 0 0-64Zm0 49a17.1 17.1 0 1 1 0-34.2 17.1 17.1 0 0 1 0 34.3Z"/></g><defs><clipPath id="a"><path fill="#fff" d="M0 0h145v145H0z"/></clipPath></defs></svg>