<svg xmlns="http://www.w3.org/2000/svg" fill="none" viewBox="0 0 143 105"><g fill="#fff" clip-path="url(#a)"><path d="M4 30.9a2 2 0 0 1-2 2 2 2 0 0 1-2-2c0-1.2.9-2 2-2a2 2 0 0 1 2 2Zm17.5 0a2 2 0 0 1-2 2 2 2 0 0 1-2.1-2c0-1.2.9-2 2-2s2 .9 2 2Zm17.3 0a2 2 0 0 1-2 2 2 2 0 0 1-2.1-2c0-1.2.9-2 2-2a2 2 0 0 1 2 2Zm17.4 0a2 2 0 0 1-2 2 2 2 0 0 1-2.1-2c0-1.2.8-2 2-2s2 .9 2 2Zm17.3 0a2 2 0 0 1-2 2 2 2 0 0 1-2-2c0-1.2.8-2 2-2 1 0 2 .9 2 2Zm17.5 0a2 2 0 0 1-2.1 2 2 2 0 0 1-2-2c0-1.2.8-2 2-2s2 .9 2 2Zm17.2 0a2 2 0 0 1-2 2 2 2 0 0 1-2-2c0-1.2.8-2 2-2a2 2 0 0 1 2 2Zm17.4 0a2 2 0 0 1-2 2 2 2 0 0 1-2-2c0-1.2.8-2 2-2a2 2 0 0 1 2 2Zm17.4 0a2 2 0 0 1-2 2 2 2 0 0 1-2-2c0-1.2.8-2 2-2 1 0 2 .9 2 2ZM4 45.3a2 2 0 0 1-2 2 2 2 0 0 1-2-2c0-1.1.9-2 2-2a2 2 0 0 1 2 2Zm17.5 0a2 2 0 0 1-2 2 2 2 0 0 1-2.1-2c0-1.1.9-2 2-2s2 .9 2 2Zm17.3 0a2 2 0 0 1-2 2 2 2 0 0 1-2.1-2c0-1.1.9-2 2-2a2 2 0 0 1 2 2Zm17.4 0a2 2 0 0 1-2 2 2 2 0 0 1-2.1-2c0-1.1.8-2 2-2a2 2 0 0 1 2 2Zm17.3 0a2 2 0 0 1-2 2 2 2 0 0 1-2-2c0-1.1.8-2 2-2 1 0 2 .9 2 2Zm17.5 0a2 2 0 0 1-2.1 2 2 2 0 0 1-2-2c0-1.1.8-2 2-2a2 2 0 0 1 2 2Zm17.2 0a2 2 0 0 1-2 2 2 2 0 0 1-2-2c0-1.1.8-2 2-2a2 2 0 0 1 2 2Zm17.4 0a2 2 0 0 1-2 2 2 2 0 0 1-2-2c0-1.1.8-2 2-2a2 2 0 0 1 2 2Zm17.4 0a2 2 0 0 1-2 2 2 2 0 0 1-2-2c0-1.1.8-2 2-2 1 0 2 .9 2 2ZM4 2a2 2 0 0 1-2 2 2 2 0 0 1-2-2c0-1 .9-2 2-2a2 2 0 0 1 2 2Zm17.5 0a2 2 0 0 1-2 2 2 2 0 0 1-2.1-2c0-1.1.9-2 2-2s2 .9 2 2Zm17.3 0a2 2 0 0 1-2 2 2 2 0 0 1-2.1-2c0-1.1 1-2 2-2a2 2 0 0 1 2 2Zm17.4 0a2 2 0 0 1-2 2A2 2 0 0 1 52 2c0-1.1 1-2 2-2s2 .9 2 2Zm17.3 0a2 2 0 0 1-2 2 2 2 0 0 1-2-2c0-1.1.8-2 2-2 1 0 2 .9 2 2ZM91 2a2 2 0 0 1-2.1 2 2 2 0 0 1-2-2c0-1.1.8-2 2-2a2 2 0 0 1 2 2Zm17.2 0a2 2 0 0 1-2 2 2 2 0 0 1-2-2c0-1.1.8-2 2-2a2 2 0 0 1 2 2Zm17.4 0a2 2 0 0 1-2 2 2 2 0 0 1-2-2c0-1.1.8-2 2-2a2 2 0 0 1 2 2ZM143 2a2 2 0 0 1-2 2 2 2 0 0 1-2-2c0-1.1.8-2 2-2 1 0 2 .9 2 2ZM4 16.5a2 2 0 0 1-2 2 2 2 0 0 1-2-2c0-1.2.9-2 2-2a2 2 0 0 1 2 2Zm17.5 0a2 2 0 0 1-2 2 2 2 0 0 1-2.1-2c0-1.2.9-2 2-2s2 .8 2 2Zm17.3 0a2 2 0 0 1-2 2 2 2 0 0 1-2.1-2c0-1.2.9-2 2-2a2 2 0 0 1 2 2Zm17.4 0a2 2 0 0 1-2 2 2 2 0 0 1-2.1-2c0-1.2.8-2 2-2a2 2 0 0 1 2 2Zm17.3 0a2 2 0 0 1-2 2 2 2 0 0 1-2-2c0-1.2.8-2 2-2 1 0 2 .8 2 2Zm17.5 0a2 2 0 0 1-2.1 2 2 2 0 0 1-2-2c0-1.2.8-2 2-2a2 2 0 0 1 2 2Zm17.2 0a2 2 0 0 1-2 2 2 2 0 0 1-2-2c0-1.2.8-2 2-2a2 2 0 0 1 2 2Zm17.4 0a2 2 0 0 1-2 2 2 2 0 0 1-2-2c0-1.2.8-2 2-2a2 2 0 0 1 2 2Zm17.4 0a2 2 0 0 1-2 2 2 2 0 0 1-2-2c0-1.2.8-2 2-2 1 0 2 .8 2 2ZM4 59.7a2 2 0 0 1-2 2 2 2 0 0 1-2-2c0-1.2.9-2 2-2 1.2 0 2 1 2 2Zm17.5 0a2 2 0 0 1-2 2 2 2 0 0 1-2.1-2c0-1.2.9-2 2-2s2 1 2 2Zm17.3 0a2 2 0 0 1-2 2 2 2 0 0 1-2.1-2c0-1.2.9-2 2-2 1.2 0 2 1 2 2Zm17.4 0a2 2 0 0 1-2 2 2 2 0 0 1-2.1-2c0-1.2.8-2 2-2s2 1 2 2Zm17.3 0a2 2 0 0 1-2 2 2 2 0 0 1-2-2c0-1.2.8-2 2-2 1 0 2 1 2 2Zm17.5 0a2 2 0 0 1-2.1 2 2 2 0 0 1-2-2c0-1.2.8-2 2-2s2 1 2 2Zm17.2 0a2 2 0 0 1-2 2 2 2 0 0 1-2-2c0-1.2.8-2 2-2 1.1 0 2 1 2 2Zm17.4 0a2 2 0 0 1-2 2 2 2 0 0 1-2-2c0-1.2.8-2 2-2 1.1 0 2 1 2 2Zm17.4 0a2 2 0 0 1-2 2 2 2 0 0 1-2-2c0-1.2.8-2 2-2 1 0 2 1 2 2ZM4 74.1a2 2 0 0 1-2 2 2 2 0 0 1-2-2c0-1.1.9-2 2-2a2 2 0 0 1 2 2Zm17.5 0a2 2 0 0 1-2 2 2 2 0 0 1-2.1-2c0-1.1.9-2 2-2s2 .9 2 2Zm17.3 0a2 2 0 0 1-2 2 2 2 0 0 1-2.1-2c0-1.1.9-2 2-2a2 2 0 0 1 2 2Zm15.3 2.1a2 2 0 1 0 0-4.1 2 2 0 0 0 0 4Zm19.4-2.1a2 2 0 0 1-2 2 2 2 0 0 1-2-2c0-1.1.8-2 2-2 1 0 2 .9 2 2Zm17.5 0a2 2 0 0 1-2.1 2 2 2 0 0 1-2-2c0-1.1.8-2 2-2a2 2 0 0 1 2 2Zm17.2 0a2 2 0 0 1-2 2 2 2 0 0 1-2-2c0-1.1.8-2 2-2a2 2 0 0 1 2 2Zm15.4 2.1a2 2 0 1 0 0-4.1 2 2 0 0 0 0 4Zm19.4-2.1a2 2 0 0 1-2 2 2 2 0 0 1-2-2c0-1.1.8-2 2-2 1 0 2 .9 2 2ZM4 88.6a2 2 0 0 1-2 2 2 2 0 0 1-2-2c0-1.2.9-2 2-2a2 2 0 0 1 2 2Zm17.5 0a2 2 0 0 1-2 2 2 2 0 0 1-2.1-2c0-1.2.9-2 2-2s2 .8 2 2Zm17.3 0a2 2 0 0 1-2 2 2 2 0 0 1-2.1-2c0-1.2.9-2 2-2a2 2 0 0 1 2 2Zm17.4 0a2 2 0 0 1-2 2 2 2 0 0 1-2.1-2c0-1.2.8-2 2-2a2 2 0 0 1 2 2Zm17.3 0a2 2 0 0 1-2 2 2 2 0 0 1-2-2c0-1.2.8-2 2-2 1 0 2 .8 2 2Zm17.5 0a2 2 0 0 1-2.1 2 2 2 0 0 1-2-2c0-1.2.8-2 2-2a2 2 0 0 1 2 2Zm17.2 0a2 2 0 0 1-2 2 2 2 0 0 1-2-2c0-1.2.8-2 2-2a2 2 0 0 1 2 2Zm17.4 0a2 2 0 0 1-2 2 2 2 0 0 1-2-2c0-1.2.8-2 2-2a2 2 0 0 1 2 2Zm17.4 0a2 2 0 0 1-2 2 2 2 0 0 1-2-2c0-1.2.8-2 2-2 1 0 2 .8 2 2ZM4 103a2 2 0 0 1-2 2 2 2 0 0 1-2-2c0-1.2.9-2 2-2a2 2 0 0 1 2 2Zm17.5 0a2 2 0 0 1-2 2 2 2 0 0 1-2.1-2c0-1.2.9-2 2-2s2 .9 2 2Zm17.3 0a2 2 0 0 1-2 2 2 2 0 0 1-2.1-2c0-1.2.9-2 2-2a2 2 0 0 1 2 2Zm17.4 0a2 2 0 0 1-2 2 2 2 0 0 1-2.1-2c0-1.2.8-2 2-2s2 .9 2 2Zm17.3 0a2 2 0 0 1-2 2 2 2 0 0 1-2-2c0-1.2.8-2 2-2 1 0 2 .9 2 2Zm17.5 0a2 2 0 0 1-2.1 2 2 2 0 0 1-2-2c0-1.2.8-2 2-2s2 .9 2 2Zm17.2 0a2 2 0 0 1-2 2 2 2 0 0 1-2-2c0-1.2.8-2 2-2a2 2 0 0 1 2 2Zm17.4 0a2 2 0 0 1-2 2 2 2 0 0 1-2-2c0-1.2.8-2 2-2a2 2 0 0 1 2 2Zm17.4 0a2 2 0 0 1-2 2 2 2 0 0 1-2-2c0-1.2.8-2 2-2 1 0 2 .9 2 2Z"/></g><defs><clipPath id="a"><path fill="#fff" d="M0 0h143v105H0z"/></clipPath></defs></svg>