<svg xmlns="http://www.w3.org/2000/svg" fill="none" viewBox="0 0 132 163"><g fill="#fff" clip-path="url(#a)" opacity=".4"><path d="M129.09 0C57.73 0 0 57.73 0 129.09c0 71.18 57.73 129.09 129.09 129.09 71.18 0 129.09-57.73 129.09-129.1C258 57.74 200.28 0 129.08 0Zm0 249.85c-66.76 0-120.77-54-120.77-120.76S62.33 8.32 129.1 8.32c66.76 0 120.76 54.01 120.76 120.77 0 66.58-54.18 120.76-120.76 120.76Z"/><path d="M129.09 27.8C73.3 27.8 27.98 73.13 27.98 128.91s45.33 101.11 101.1 101.11c55.79 0 101.12-45.15 101.12-100.93 0-55.96-45.33-101.29-101.11-101.29Zm0 186.82c-47.28 0-85.7-38.43-85.7-85.7 0-47.29 38.42-85.71 85.7-85.71s85.7 38.42 85.7 85.7-38.42 85.7-85.7 85.7Z"/></g><defs><clipPath id="a"><path fill="#fff" d="M0 0h258v258H0z"/></clipPath></defs></svg>