<svg xmlns="http://www.w3.org/2000/svg" viewBox="0 0 106.37 205.02"><defs><clipPath id="a" transform="translate(2.52 -1.28)"><path fill="none" d="M-110.78 143.9-.38.22 104.87 81.1-5.53 224.76z"/></clipPath></defs><g fill="#4b1b81" clip-path="url(#a)" opacity=".8"><path d="M6.22 57.72a2.52 2.52 0 0 1 .46 3.62 2.52 2.52 0 0 1-3.61.48 2.52 2.52 0 0 1-.47-3.62 2.58 2.58 0 0 1 3.62-.48ZM19.64 40.2a2.59 2.59 0 0 1-3.12 4.1 2.53 2.53 0 0 1-.5-3.58 2.59 2.59 0 0 1 3.62-.52Zm13.43-17.48a2.59 2.59 0 1 1-3.62.48 2.67 2.67 0 0 1 3.62-.48ZM7.36 86.18a2.52 2.52 0 0 1 .47 3.62 2.53 2.53 0 0 1-3.62.48 2.52 2.52 0 0 1-.47-3.62 2.51 2.51 0 0 1 3.62-.48ZM20.71 68.8a2.6 2.6 0 0 1-3.19 4.1 2.59 2.59 0 0 1 3.15-4.1Zm13.43-17.47a2.59 2.59 0 1 1-3.62.48 2.53 2.53 0 0 1 3.62-.48Zm13.38-17.47a2.59 2.59 0 1 1-3.62.48 2.61 2.61 0 0 1 3.62-.48ZM4.18.52a2.53 2.53 0 0 1 .47 3.62 2.51 2.51 0 0 1-3.62.48A2.52 2.52 0 0 1 .52 1 2.61 2.61 0 0 1 4.18.52Zm1.07 28.61a2.53 2.53 0 0 1 .46 3.59 2.51 2.51 0 0 1-3.61.48 2.52 2.52 0 0 1-.47-3.62 2.53 2.53 0 0 1 3.62-.45Zm13.42-17.47a2.59 2.59 0 0 1-3.15 4.06 2.52 2.52 0 0 1-.47-3.62 2.61 2.61 0 0 1 3.62-.44ZM8.33 114.72a2.52 2.52 0 0 1 .47 3.62 2.52 2.52 0 0 1-3.62.48 2.53 2.53 0 0 1-.47-3.62 2.69 2.69 0 0 1 3.62-.48Zm13.43-17.48a2.59 2.59 0 1 1-3.62.48 2.6 2.6 0 0 1 3.62-.48Zm13.35-17.37a2.59 2.59 0 1 1-3.62.48 2.6 2.6 0 0 1 3.62-.48ZM48.52 62.4a2.59 2.59 0 1 1-3.61.48 2.59 2.59 0 0 1 3.61-.48Zm13.44-17.47a2.59 2.59 0 1 1-3.62.48 2.68 2.68 0 0 1 3.62-.48ZM9.87 146.94a2.58 2.58 0 1 0-3.62.48 2.58 2.58 0 0 0 3.62-.48Zm12.96-21.09a2.59 2.59 0 1 1-3.62.48 2.59 2.59 0 0 1 3.62-.48Zm13.42-17.47a2.59 2.59 0 1 1-3.62.48 2.52 2.52 0 0 1 3.62-.48ZM49.6 91.01a2.59 2.59 0 1 1-3.62.48 2.52 2.52 0 0 1 3.62-.48Zm13.92-13.85a2.57 2.57 0 1 0-3.61.48 2.59 2.59 0 0 0 3.61-.48Zm12.93-21.09a2.59 2.59 0 1 1-3.62.48 2.59 2.59 0 0 1 3.62-.48ZM10.52 171.93a2.51 2.51 0 0 1 .47 3.61 2.51 2.51 0 0 1-3.62.48 2.51 2.51 0 0 1-.47-3.61 2.51 2.51 0 0 1 3.62-.48Zm13.37-17.47a2.59 2.59 0 1 1-3.61.48 2.52 2.52 0 0 1 3.61-.48Zm13.43-17.47a2.59 2.59 0 1 1-3.62.48 2.59 2.59 0 0 1 3.62-.48Zm13.42-17.47a2.58 2.58 0 1 1-3.61.48 2.51 2.51 0 0 1 3.61-.48Zm13.36-17.38a2.59 2.59 0 1 1-3.62.48 2.53 2.53 0 0 1 3.62-.48Zm13.42-17.42a2.59 2.59 0 1 1-3.62.48 2.52 2.52 0 0 1 3.62-.48ZM90.95 67.2a2.59 2.59 0 1 1-3.62.48 2.61 2.61 0 0 1 3.62-.48ZM11.52 200.36a2.59 2.59 0 0 1-3.15 4.1 2.52 2.52 0 0 1-.47-3.62 2.69 2.69 0 0 1 3.62-.48Zm13.35-17.37a2.59 2.59 0 1 1-3.62.48 2.6 2.6 0 0 1 3.62-.48Zm13.42-17.47a2.59 2.59 0 1 1-3.62.48 2.6 2.6 0 0 1 3.62-.48Zm13.43-17.47a2.59 2.59 0 1 1-3.62.48 2.68 2.68 0 0 1 3.62-.48Zm13.42-17.47a2.59 2.59 0 1 1-3.62.48 2.6 2.6 0 0 1 3.62-.48Zm13.38-17.37a2.59 2.59 0 1 1-3.62.48 2.59 2.59 0 0 1 3.62-.48Zm13.4-17.49a2.59 2.59 0 1 1-3.62.48 2.6 2.6 0 0 1 3.62-.48Zm13.42-17.45a2.59 2.59 0 1 1-3.62.45 2.68 2.68 0 0 1 3.62-.45Z"/></g></svg>