<svg xmlns="http://www.w3.org/2000/svg" fill="none" viewBox="0 0 705 519"><g clip-path="url(#a)"><path fill="#E6062B" d="M431.96 74.88S358.51 53.25 285.98 97c-72.52 43.74-109.5 125.32-141.25 190.77-31.73 65.46-14.14 129.58 40.83 156.51 54.97 26.93 92.77-18.61 170.16-24.54 77.4-5.93 98.14 3.72 162.63-41.6 64.5-45.32 76.76-145.46 26.6-216.65-50.18-71.19-113-86.62-113-86.62l.01.01ZM356.24 519.1c121.78 0 220.5-10.37 220.5-23.16 0-12.8-98.72-23.16-220.5-23.16s-220.5 10.37-220.5 23.16c0 12.8 98.72 23.16 220.5 23.16Z" opacity=".15"/><path stroke="#263238" stroke-linecap="round" stroke-linejoin="round" d="M141.97 468.26h424.77m-424.77-88.61h424.77m-424.77-6.81h424.77"/><mask id="b" width="177" height="230" x="319" y="80" maskUnits="userSpaceOnUse" style="mask-type:alpha"><path fill="#7D7D7D" d="M495.01 80.66H319.33v228.43h175.68V80.66Z"/></mask><g mask="url(#b)"><path fill="#424551" fill-opacity=".5" d="M319 81h177v228H319z"/><path fill="#fff" d="M442.4 116.8c16.8-10.29 33.27-23.06 33.1-37.73H316.16v196.28c3.66-9.29 10.4-22.61 18.14-19.23 11.6 5.08 31.2 37.73 39.9 15.24 8.72-22.49-23.21-65.3 13.8-65.3 37 0 64.58 5.08 56.6-20.32-7.98-25.4-26.84-53.83-2.18-68.93l-.01-.01Z"/><path fill="#263238" d="M337.89 113.35h-2.25l-3.48-16.71v16.74h-2.04v-21h3.27l3.45 16.77 3.33-16.77h3.27v21h-2.22V96.49l-3.33 16.86Zm10.78-4.92c0 1.89.75 3.03 2.46 3.03 1.7 0 2.43-1.14 2.43-3.03V92.38h2.19v15.93c0 3.18-1.47 5.31-4.71 5.31s-4.68-2.13-4.68-5.31V92.38h2.3v16.05Zm19.08-11.01v.57h-2.22v-.69c0-1.89-.72-3-2.4-3s-2.4 1.11-2.4 2.97c0 4.71 7.05 5.16 7.05 11.07 0 3.18-1.53 5.25-4.74 5.25s-4.71-2.07-4.71-5.25v-1.2h2.19v1.32c0 1.89.78 3 2.46 3s2.46-1.11 2.46-3c0-4.68-7.02-5.13-7.02-11.04 0-3.24 1.5-5.25 4.65-5.25 3.15 0 4.68 2.07 4.68 5.25Zm5.01-5.04v21h-2.34v-21h2.34Zm12.26 5.07v1.89h-2.22v-2.01c0-1.89-.75-3.03-2.46-3.03s-2.46 1.14-2.46 3.03v11.1c0 1.89.78 3.03 2.46 3.03s2.46-1.14 2.46-3.03v-2.73h2.22v2.61c0 3.18-1.5 5.28-4.74 5.28s-4.71-2.1-4.71-5.28V97.45c0-3.18 1.5-5.28 4.7-5.28 3.22 0 4.75 2.1 4.75 5.28Zm-47.69 32.71v2.13h-4.83v9.09h-2.34v-21h8.34v2.13h-6v7.65h4.83Zm11.1-.48v2.1h-5.13v7.47h6.3v2.13h-8.64v-21h8.64v2.13h-6.3v7.17h5.13Zm13.01-4.26v.57h-2.22v-.69c0-1.89-.72-3-2.4-3s-2.4 1.11-2.4 2.97c0 4.71 7.05 5.16 7.05 11.07 0 3.18-1.53 5.25-4.74 5.25s-4.71-2.07-4.71-5.25v-1.2h2.19v1.32c0 1.89.78 3 2.46 3s2.46-1.11 2.46-3c0-4.68-7.02-5.13-7.02-11.04 0-3.24 1.5-5.25 4.65-5.25 3.15 0 4.68 2.07 4.68 5.25Zm5.73 15.96v-18.87h-3.87v-2.13h10.08v2.13h-3.87v18.87h-2.34Zm10.77-21v21h-2.34v-21h2.34Zm4.77 0 3.42 18.27 3.39-18.27h2.16l-3.93 21h-3.45l-3.96-21h2.37Zm12.99 16.77-.81 4.23h-2.16l4.02-21h3.39l4.02 21h-2.34l-.81-4.23h-5.31Zm.3-2.01h4.68l-2.37-12.12-2.31 12.12Zm10.59 6.24v-21h2.34v18.87h6v2.13h-8.34Z"/><path fill="#4B1B81" d="m536.2 275.72-12.1-19.02a36 36 0 0 1-3.35-31.95l2.17-5.81a33.73 33.73 0 0 0-.86-25.67l-.75-1.66a33.68 33.68 0 0 0-28.75-19.74l-13.71-.79h-6.1l-13.7.79a33.68 33.68 0 0 0-28.75 19.74l-.75 1.66a33.64 33.64 0 0 0-.86 25.67l2.17 5.81a36.07 36.07 0 0 1-3.35 31.95l-12.11 19.03a39.82 39.82 0 0 0-3.17 36.69l.22.53a48.9 48.9 0 0 0 13.4 18.38c6.57 5.56 13.18 7.49 21.64 8.96 18.83 3.28 38.8 2.32 57.73.2 15.25-1.7 28.36-13.54 33.96-27.54l.22-.53a39.84 39.84 0 0 0-3.18-36.7h-.02Z"/><path fill="#999" d="M475.78 253.31a27.21 27.21 0 1 0 0-54.42 27.21 27.21 0 0 0 0 54.42Z"/><path fill="#263238" stroke="#263238" stroke-linecap="round" stroke-linejoin="round" d="M475.78 207.5a18.5 18.5 0 0 1 9.9 2.87l-1.41-154.01H467.3l-1.41 154.01a18.47 18.47 0 0 1 9.9-2.87h-.01Z"/><path fill="#263238" d="M493.91 230.36a18.6 18.6 0 1 0-36.22-8.48 18.6 18.6 0 0 0 36.22 8.48Z"/><path fill="#263238" stroke="#263238" stroke-linecap="round" stroke-linejoin="round" d="M508.44 285.81h-65v12.92h65v-12.92Z"/><path fill="#fff" stroke="#263238" stroke-linecap="round" stroke-linejoin="round" d="M488.47 285.81h-27.8v3.92h27.8v-3.92Z"/><path stroke="#263238" stroke-linecap="round" stroke-linejoin="round" d="M467.19 90.68h18.28m-18.4 11.01h18.4m-18.52 11.01h18.52m-18.64 11.01h18.64m-18.77 11.01h18.77m-18.89 11.01h18.89m-19.01 11.01h19m-19.13 11.01h19.14m-19.27 11.01h19.27m-19.38 11.02h19.38m-19.5 11.01h19.5"/><path stroke="#fff" stroke-linecap="round" stroke-linejoin="round" stroke-width=".5" d="M468.54 56.88v241.81m2.86-241.81v241.81m2.88-241.81v241.81m2.88-241.81v241.81m2.87-241.81v241.81m2.87-241.81v241.81"/><path fill="#fff" d="M386.08 237.14v1.49h-3.38v6.36h-1.64v-14.7h5.84v1.49h-4.2v5.35h3.38v.01Zm5.82-6.84c2.3 0 3.28 1.18 3.28 3.36v1.2c0 1.62-.57 2.62-1.83 3.02 1.34.4 1.85 1.49 1.85 3.06v2.29c0 .65.02 1.26.29 1.76h-1.66c-.2-.42-.27-.8-.27-1.79v-2.31c0-1.66-.78-2.18-2.14-2.18h-1.15v6.28h-1.64v-14.7h3.28l-.01.01Zm-.42 6.93c1.3 0 2.08-.42 2.08-2.02v-1.41c0-1.32-.48-2.02-1.7-2.02h-1.6v5.44h1.22v.01Zm7.48-6.93V245h-1.64v-14.7h1.64Zm5.54 0c2.29 0 3.34 1.39 3.34 3.65v7.41c0 2.25-1.05 3.63-3.34 3.63h-3.44v-14.7h3.44v.01Zm-.02 13.21c1.18 0 1.74-.74 1.74-2.08v-7.56c0-1.34-.57-2.08-1.76-2.08h-1.76v11.72h1.79-.01Zm6.95-1.48-.57 2.96h-1.51l2.81-14.7h2.37l2.81 14.7h-1.64l-.57-2.96h-3.72.02Zm.21-1.41h3.28l-1.66-8.48-1.62 8.48Zm10.02-.9-3.11-9.43h1.7l2.29 7.22 2.3-7.22h1.56l-3.13 9.43v5.27h-1.62v-5.27Zm-33.86 20.06v.46c0 1.49-.53 2.58-1.68 3.02 1.22.48 1.68 1.64 1.68 3.11v1.09c0 2.27-1.18 3.67-3.46 3.67-2.28 0-3.46-1.41-3.46-3.67v-1.09c0-1.49.46-2.6 1.7-3.11-1.2-.46-1.7-1.53-1.7-3.02v-.46c0-2.27 1.2-3.63 3.46-3.63s3.46 1.36 3.46 3.63Zm-5.31.04v.71c0 1.43.69 2.06 1.85 2.06 1.16 0 1.85-.63 1.85-2.06v-.71c0-1.51-.7-2.21-1.85-2.21-1.16 0-1.85.69-1.85 2.21Zm0 6.36v1.24c0 1.51.67 2.23 1.85 2.23 1.18 0 1.83-.71 1.85-2.23v-1.24c0-1.43-.63-2.12-1.85-2.12-1.22 0-1.85.69-1.85 2.12Zm14.11-9.88c2.3 0 3.3 1.37 3.3 3.59v1.76c0 2.33-1.1 3.55-3.42 3.55h-1.45v5.79h-1.64v-14.7h3.2v.01Zm-.12 7.43c1.22 0 1.8-.57 1.8-1.97v-1.95c0-1.34-.48-2.02-1.68-2.02h-1.57v5.94h1.45Zm10.6 7.24h-1.57l-2.44-11.69V271h-1.43v-14.7h2.29l2.42 11.74 2.33-11.74h2.29V271h-1.55v-11.82l-2.33 11.8-.01-.01Z"/><path fill="#4B1B81" d="m505.42 116.58-219.2 129.7 16.26 27.47 219.2-129.68-16.26-27.48Z"/><path fill="#E6062B" d="m505.42 116.58-219.2 129.7 16.26 27.47 219.2-129.68-16.26-27.48Z"/><path fill="#fff" d="m374.02 216.08 1.39 2.42c1.68 2.91 1.19 5.41-1.62 7.03s-5.22.8-6.9-2.11l-5.46-9.46c-1.68-2.91-1.18-5.41 1.62-7.03s5.22-.8 6.9 2.11l1.02 1.77-2.7 1.56-1.12-1.95c-.75-1.3-1.61-1.46-2.52-.94-.91.53-1.2 1.35-.45 2.65l5.67 9.82c.75 1.3 1.59 1.44 2.5.91.9-.52 1.2-1.32.46-2.62l-1.5-2.6 2.7-1.56Zm15.68-.02-2.88 1.66-2.4-3-3.51 2.02 1.4 3.58-2.61 1.52-7.6-19.86 4.19-2.42 13.4 16.5Zm-9.85-2 2.75-1.59-6.7-8.4 3.94 10Zm6.9-13.85 7.6 13.17-2.56 1.48-10.5-18.18 3.59-2.07 9.22 9.19-6.3-10.88 2.56-1.47 10.5 18.18-2.94 1.7-11.17-11.12Zm21.3-3.78 1.39 2.42c1.68 2.91 1.19 5.41-1.62 7.03-2.8 1.62-5.22.8-6.9-2.11l-5.46-9.46c-1.68-2.91-1.18-5.41 1.62-7.03s5.22-.8 6.9 2.11l1.02 1.77-2.7 1.56-1.12-1.95c-.75-1.3-1.61-1.46-2.52-.94-.91.53-1.2 1.35-.45 2.65l5.67 9.82c.75 1.3 1.59 1.44 2.5.91.9-.52 1.2-1.32.46-2.62l-1.5-2.6 2.7-1.56Zm3.22-6.85 3.92-2.27 1.5 2.6-3.92 2.27 3.08 5.33 4.94-2.85 1.5 2.6-7.79 4.5-10.5-18.18 7.79-4.5 1.5 2.6-4.94 2.85 2.93 5.07-.01-.02Zm3.05-11.98 2.86-1.65 9 15.59 4.7-2.72 1.5 2.6-7.56 4.37-10.5-18.18v-.01Zm16.87.47 3.92-2.27 1.5 2.6-3.92 2.27 3.08 5.33 4.94-2.85 1.5 2.6-7.79 4.5-10.5-18.18 7.79-4.5 1.5 2.6-4.94 2.85 2.93 5.07-.01-.02Zm3.06-11.98 4.52-2.61c2.86-1.65 5.17-.88 6.86 2.03l5.31 9.2c1.68 2.91 1.19 5.3-1.67 6.96l-4.52 2.61-10.5-18.18v-.01Zm4.36.95 7.5 12.99 1.61-.93c.91-.53 1.19-1.31.44-2.61l-5.46-9.46c-.75-1.3-1.56-1.45-2.47-.93l-1.61.93-.01.01Z"/></g><path fill="#4B1B81" d="M545.28 289.69s0-4.96-6.94-11.91c-6.95-6.94-11.41-10.91-11.41-10.91s-3.47 11.41 2.98 18.35c6.45 6.94 15.38 13.39 15.38 13.39v-8.93l-.01.01Zm-10.08 30.98s0-4.96-6.94-11.9c-6.94-6.95-11.41-10.92-11.41-10.92s-3.47 11.41 2.98 18.35c6.45 6.94 15.38 13.4 15.38 13.4v-8.94l-.01.01Z"/><path fill="#4B1B81" d="M544.84 298.14s.52-4.93 8.16-11.11c7.64-6.17 12.5-9.65 12.5-9.65s2.25 11.71-4.9 17.94c-7.15 6.22-16.7 11.69-16.7 11.69l.93-8.88.01.01Zm-12.17 36.59s1.04-4.85 9.3-10.19c8.24-5.34 13.43-8.28 13.43-8.28s1 11.88-6.76 17.32c-7.76 5.44-17.84 9.87-17.84 9.87l1.87-8.73v.01Zm2.29 39.89s0-4.96 6.94-11.91c6.94-6.94 11.4-10.91 11.4-10.91s3.48 11.41-2.97 18.35c-6.45 6.95-15.38 13.39-15.38 13.39v-8.93.01Z"/><path fill="#4B1B81" d="M534.84 384.35s.71-4.91-5.18-12.77c-5.89-7.86-9.74-12.42-9.74-12.42s-5.06 10.8.34 18.59c5.4 7.79 13.32 15.44 13.32 15.44l1.27-8.84Zm-6.85 28.86s0-4.96 6.94-11.9c6.94-6.95 11.41-10.92 11.41-10.92s3.47 11.41-2.98 18.35c-6.45 6.94-15.38 13.4-15.38 13.4v-8.94l.01.01Zm4.64 26.16s-1.26-4.8 3.7-13.28 8.27-13.45 8.27-13.45 6.25 10.16 1.77 18.51c-4.48 8.35-11.48 16.85-11.48 16.85l-2.26-8.64v.01Z"/><path fill="#4B1B81" d="M545.91 288.42c-.41 5.3-1.01 10.79-1.9 15.4-2.75 14.18-9.61 23.34-12.35 36.15-2.75 12.81 5.14 29.32 3.03 45.77-2.11 16.46-8.52 25.61-6.69 36.59 1.83 10.98 11.44 40.72 11.44 40.72"/><path stroke="#263238" stroke-linecap="round" stroke-linejoin="round" stroke-width=".5" d="M545.91 288.42c-.41 5.3-1.01 10.79-1.9 15.4-2.75 14.18-9.61 23.34-12.35 36.15-2.75 12.81 5.14 29.32 3.03 45.77-2.11 16.46-8.52 25.61-6.69 36.59 1.83 10.98 11.44 40.72 11.44 40.72m5.33-161.61 7.49-5.75m-7.14-.87-3.13-5.57"/><path fill="#4B1B81" d="M532.07 339.38s6.27-4.7 12.71-9.4l-12.71 9.4Z"/><path stroke="#263238" stroke-linecap="round" stroke-linejoin="round" stroke-width=".5" d="M532.07 339.38s6.27-4.7 12.71-9.4"/><path fill="#4B1B81" d="M535.2 329.6s-5.22-10.24-11.14-17.02l11.14 17.02Z"/><path stroke="#263238" stroke-linecap="round" stroke-linejoin="round" stroke-width=".5" d="M535.2 329.6s-5.22-10.24-11.14-17.02"/><path fill="#4B1B81" d="M535.2 381.68s4.87-9.57 13.4-17.93l-13.4 17.93Z"/><path stroke="#263238" stroke-linecap="round" stroke-linejoin="round" stroke-width=".5" d="M535.2 381.68s4.87-9.57 13.4-17.93"/><path fill="#4B1B81" d="M533.98 388.64s-3.13-7.48-6.79-12.88-4.18-6.09-4.18-6.09"/><path stroke="#263238" stroke-linecap="round" stroke-linejoin="round" stroke-width=".5" d="M533.98 388.64s-3.13-7.48-6.79-12.88-4.18-6.09-4.18-6.09"/><path fill="#4B1B81" d="M527.99 422.33s2.51-6.36 5.64-11.4a72.42 72.42 0 0 1 7.31-9.58"/><path stroke="#263238" stroke-linecap="round" stroke-linejoin="round" stroke-width=".5" d="M527.99 422.33s2.51-6.36 5.64-11.4a72.42 72.42 0 0 1 7.31-9.58"/><path fill="#4B1B81" d="M534.9 448.01s-.74-5.94 1.87-10.99c2.61-5.05 5.57-11.66 6.8-14.27"/><path stroke="#263238" stroke-linecap="round" stroke-linejoin="round" stroke-width=".5" d="M534.9 448.01s-.74-5.94 1.87-10.99c2.61-5.05 5.57-11.66 6.8-14.27"/><path fill="#4B1B81" d="M499.8 355.96s-.54-3.11 3.06-8.22c3.6-5.11 5.97-8.08 5.97-8.08s3.42 6.78.13 11.83c-3.29 5.06-8.19 10.07-8.19 10.07l-.97-5.6Zm9.68 18.34s-.54-3.11 3.06-8.22c3.6-5.11 5.97-8.08 5.97-8.08s3.42 6.78.13 11.83c-3.29 5.06-8.19 10.07-8.19 10.07l-.97-5.6Z"/><path fill="#4B1B81" d="M500.99 361.21s-.86-3.04-6.32-6.08a186.84 186.84 0 0 0-8.89-4.69s-.14 7.59 5.02 10.72a77.51 77.51 0 0 0 11.75 5.52l-1.56-5.47Zm11.61 21.62s-1.18-2.93-6.93-5.38c-5.75-2.45-9.33-3.73-9.33-3.73s.66 7.56 6.12 10.13a77.3 77.3 0 0 0 12.26 4.25l-2.12-5.27Zm2.89 25.27s-.54-3.11-5.65-6.71-8.34-5.6-8.34-5.6-.94 7.53 3.86 11.19a77.23 77.23 0 0 0 11.1 6.73l-.97-5.6v-.01Z"/><path fill="#4B1B81" d="M516.62 414.2s-.98-3 1.86-8.58c2.84-5.57 4.76-8.85 4.76-8.85s4.34 6.22 1.81 11.7c-2.54 5.46-6.68 11.12-6.68 11.12l-1.76-5.4h.01Zm8.72 25.08s.36-3.14 5.26-7.02c4.9-3.89 8-6.07 8-6.07s1.38 7.47-3.2 11.39c-4.58 3.92-10.7 7.35-10.7 7.35l.65-5.65h-.01Zm-1.29-7.74s-.54-3.11-5.65-6.71-8.34-5.61-8.34-5.61-.94 7.53 3.86 11.19a78.29 78.29 0 0 0 11.1 6.73l-.97-5.6Zm-.07 16.91s.27-3.15-3.76-7.92c-4.03-4.78-6.65-7.53-6.65-7.53s-2.82 7.05.9 11.8a78.1 78.1 0 0 0 9.03 9.32l.48-5.66v-.01Z"/><path fill="#4B1B81" d="M499.27 355.23c.83 3.28 1.8 6.66 2.87 9.45 3.26 8.6 8.56 13.59 11.67 21.33 3.11 7.74-.04 18.94 3.07 29.03s8.12 15.13 8.16 22.22c.04 7.08-2.75 26.78-2.75 26.78"/><path stroke="#263238" stroke-linecap="round" stroke-linejoin="round" stroke-width=".5" d="M499.27 355.23c.83 3.28 1.8 6.66 2.87 9.45 3.26 8.6 8.56 13.59 11.67 21.33 3.11 7.74-.04 18.94 3.07 29.03s8.12 15.13 8.16 22.22c.04 7.08-2.75 26.78-2.75 26.78m-20.9-100.77-5.31-2.79m4.38-1.32 1.36-3.83"/><path fill="#4B1B81" d="M513.48 385.69s-4.44-2.27-8.99-4.51l8.99 4.51Z"/><path stroke="#263238" stroke-linecap="round" stroke-linejoin="round" stroke-width=".5" d="M513.48 385.69s-4.44-2.27-8.99-4.51"/><path fill="#4B1B81" d="M510.45 379.89s2.16-6.99 5.14-11.88l-5.14 11.88Z"/><path stroke="#263238" stroke-linecap="round" stroke-linejoin="round" stroke-width=".5" d="M510.45 379.89s2.16-6.99 5.14-11.88"/><path fill="#4B1B81" d="M516.11 412.55s-4.1-5.47-10.35-9.79l10.35 9.79Z"/><path stroke="#263238" stroke-linecap="round" stroke-linejoin="round" stroke-width=".5" d="M516.11 412.55s-4.1-5.47-10.35-9.79"/><path fill="#4B1B81" d="M517.63 416.78s1.15-5.03 2.86-8.81c1.7-3.78 1.96-4.27 1.96-4.27"/><path stroke="#263238" stroke-linecap="round" stroke-linejoin="round" stroke-width=".5" d="M517.63 416.78s1.15-5.03 2.86-8.81c1.7-3.78 1.96-4.27 1.96-4.27"/><path fill="#4B1B81" d="M524.8 442.63s3.52-4.32 5.72-5.94c2.19-1.62 3.7-3.23 3.7-3.23"/><path stroke="#263238" stroke-linecap="round" stroke-linejoin="round" stroke-width=".5" d="M524.8 442.63s3.52-4.32 5.72-5.94c2.19-1.62 3.7-3.23 3.7-3.23"/><path fill="#4B1B81" d="M525.04 437.26s-2.26-3.72-4.78-6.54a45.15 45.15 0 0 0-5.62-5.21"/><path stroke="#263238" stroke-linecap="round" stroke-linejoin="round" stroke-width=".5" d="M525.04 437.26s-2.26-3.72-4.78-6.54a45.15 45.15 0 0 0-5.62-5.21"/><path fill="#4B1B81" d="M523.5 454.11s-.18-3.8-2.37-6.69c-2.19-2.88-4.76-6.71-5.81-8.21"/><path stroke="#263238" stroke-linecap="round" stroke-linejoin="round" stroke-width=".5" d="M523.5 454.11s-.18-3.8-2.37-6.69c-2.19-2.88-4.76-6.71-5.81-8.21"/><path fill="#263238" d="M508.1 460.6h45.43v34.61a3.04 3.04 0 0 1-3.04 3.04h-39.35a3.04 3.04 0 0 1-3.04-3.04v-34.6Z"/><path fill="#263238" d="M553.14 466.53H508.1a3.56 3.56 0 0 1 0-7.12h45.04a3.56 3.56 0 0 1 0 7.12Z"/><path fill="#B2B2B2" stroke="#263238" stroke-linecap="round" stroke-linejoin="round" d="m252.76 196.47-30.34 11.61-23.48 44.86s.26 11.61 5.54 13.98c5.28 2.37 7.12 1.85 9.5.53 2.37-1.32 13.19-16.36 13.19-16.36l-2.64 45.39 75.73.26-2.37-60.16s36.68 18.21 39.84 11.08c3.17-7.12 8.18-58.58 8.18-58.58s15.2-1.98 15.73-4.36c.53-2.37 1.58-15.04 0-17.15-1.58-2.11-2.64-.79-3.7 2.11a154.7 154.7 0 0 0-1.57 4.49l-12.3-.13s6.07-7.39 6.07-10.03c0-2.64-3.43-1.32-5.81 1.06-2.37 2.37-14.78 11.35-15.04 17.68-.26 6.33-5.81 38.79-5.81 38.79s-25.07-23.22-28.76-24.28c-3.7-1.06-41.95-.79-41.95-.79h-.01Z"/><path fill="#4B1B81" stroke="#263238" stroke-linecap="round" stroke-linejoin="round" d="M294.72 197.26c-3.69-1.06-41.95-.79-41.95-.79l-30.34 11.61-14.92 28.49 17.65 17.28c1.21-1.64 2.01-2.76 2.01-2.76l-2.64 45.39 75.73.26-2.37-60.16s4.06 2.01 9.58 4.43l9.01-25.87c-7.71-6.96-19.33-17.19-21.75-17.88h-.01Z"/><path fill="#fff" stroke="#263238" stroke-linecap="round" stroke-linejoin="round" d="m252.76 196.47-8.09 3.1c-.05.54-.09 1.1-.09 1.65 0 9.33 7.86 16.9 17.55 16.9 9.69 0 17.55-7.57 17.55-16.9 0-1.63-.25-3.19-.7-4.68-11.95-.16-26.22-.07-26.22-.07Zm-45.26 40.1 17.65 17.28c1.21-1.64 2.01-2.76 2.01-2.76l-17.53-18.61-2.14 4.09h.01Zm108.97-21.43-4.17-3.74-8.96 27.76c1.23.57 2.62 1.19 4.13 1.85l9.01-25.87h-.01Z"/><path fill="#263238" d="m297.3 236.07-1.79-22.45 5.07 24.19-2.7-1.23-.58-.51Zm-69.76 15.19-.78-24.31-1.61 26.9 2.39-2.59Z"/><path fill="#B2B2B2" stroke="#263238" stroke-linecap="round" stroke-linejoin="round" d="m247.99 186.8 2.45 18.27s4.24 8.1 12.85 6.83c8.61-1.27 9.66-12.05 9.66-12.05l-2.61-16.69s-12.93 7.48-22.36 3.64h.01Z"/><path fill="#263238" stroke="#263238" stroke-linecap="round" stroke-linejoin="round" d="m271.47 190.29-1.12-7.14s-12.93 7.48-22.36 3.64l1.01 7.51c.99.38 2.06.73 3.23 1.03 8.56 2.18 15.18-.97 19.24-5.05v.01Z"/><path fill="#B2B2B2" stroke="#263238" stroke-linecap="round" stroke-linejoin="round" d="M230.33 165.33s-5.54 1.32-2.9 7.65 10.29 5.28 10.29 5.28 0 10.82 14.51 14.51c14.51 3.69 23.48-7.92 23.75-13.46.26-5.54.26-10.03.26-10.03s3.69-3.17 3.69-8.18-2.37-6.33-4.22-5.28l-1.85 1.06s-1.85-5.28-3.17-8.97c-1.32-3.69-18.47-4.75-27.97-.53s-12.4 8.18-12.4 11.08v6.86l.01.01Z"/><path fill="#fff" stroke="#263238" stroke-linecap="round" stroke-linejoin="round" d="M275.95 179.7a28.1 28.1 0 0 1-2.6-5.66c-1.44-4.31.6-11.64.99-12.97-.45 1.47-3.61 10.33-14.97 13.23-12.4 3.17-23.75-3.17-23.75-3.17 8.05 9.36 4.98 11.89 3.65 12.49 1.7 3.28 5.33 7.2 12.97 9.14 14.19 3.61 23.08-7.41 23.7-13.08v.02Z"/><path fill="#263238" d="M250.65 168.38c.13 1.31-.3 2.42-.95 2.48-.65.07-1.3-.94-1.42-2.24-.13-1.31.29-2.42.95-2.48.65-.07 1.29.94 1.42 2.24Zm12.67-3.31c.13 1.31-.3 2.42-.95 2.48-.65.07-1.3-.94-1.42-2.24-.13-1.3.29-2.42.95-2.48.65-.07 1.29.94 1.42 2.24Z"/><path fill="#263238" stroke="#263238" stroke-linecap="round" stroke-linejoin="round" d="M269.9 136.04s-.25-10.29-16.88-12.93c-16.62-2.64-32.46 9.24-29.82 11.61 2.64 2.37 4.22 2.37 4.22 2.37s-7.4 3.69-7.4 11.61 8.72 13.98 8.72 13.98.26 2.11 1.58 2.64c1.32.53 3.17 1.58 3.17 1.58s1.58 7.39 2.37 2.9 0-11.35 0-11.35l19.53-7.12s-17.15 5.54-7.65 7.12c9.5 1.58 22.43-6.86 22.43-6.86l2.9 10.29s1.58.53 1.32-2.9c-.26-3.43-.26-5.28-.26-5.28s5.54-13.19 3.43-16.89c-2.11-3.69-7.65-.79-7.65-.79v.02Z"/><path fill="#4B1B81" stroke="#263238" stroke-linecap="round" stroke-linejoin="round" d="M223.47 485.14s-12.14 8.97-20.05 12.67c-7.92 3.69 2.37 14.25 19 10.03 16.62-4.22 21.64-7.92 27.71-8.44 6.07-.53 5.8-3.43 5.54-9.76-.26-6.33-28.5-7.12-32.19-4.49l-.01-.01Z"/><path fill="#fff" stroke="#263238" stroke-linecap="round" stroke-linejoin="round" d="M213.18 505.46c-13.2-.26-12.14-5.54-12.14-5.54h-.02c-2.21 4.47 7.32 11.49 21.39 7.92 16.62-4.22 21.64-7.92 27.7-8.44 5.69-.49 5.82-3.07 5.6-8.58-4.54.9-10.46 2.68-15.62 6.21-10.03 6.86-13.72 8.71-26.91 8.44v-.01Z"/><path fill="#4B1B81" stroke="#263238" stroke-linecap="round" stroke-linejoin="round" d="M292.87 485.14s12.14 8.97 20.05 12.67c7.92 3.69-2.37 14.25-19 10.03-16.62-4.22-21.64-7.92-27.7-8.44-6.08-.53-5.82-3.43-5.55-9.76.26-6.33 28.5-7.12 32.2-4.49v-.01Z"/><path fill="#fff" stroke="#263238" stroke-linecap="round" stroke-linejoin="round" d="M303.16 505.46c13.19-.26 12.14-5.54 12.14-5.54h.02c2.21 4.47-7.32 11.49-21.39 7.92-16.62-4.22-21.64-7.92-27.71-8.44-5.68-.49-5.81-3.07-5.59-8.58 4.54.9 10.46 2.68 15.62 6.21 10.03 6.86 13.72 8.71 26.91 8.44v-.01Z"/><path fill="#263238" stroke="#263238" stroke-linecap="round" stroke-linejoin="round" d="M224.53 296.48s-3.96 72.3-3.17 108.45c.79 36.15 4.75 61.22 4.75 61.22s-5.54 4.49-5.54 7.65 1.06 11.61 1.06 12.4c0 .79 5.81 5 16.1 7.39 10.29 2.37 19.53 1.32 19.53 1.32s10.29 2.9 19.79-2.11 16.36-7.4 16.36-7.4l1.06-13.18-4.75-5.81s9.76-78.1 10.03-108.71l.53-60.95-75.73-.26-.02-.01Z"/><path fill="#757575" stroke="#263238" stroke-linecap="round" stroke-linejoin="round" d="M291.3 301.49h8.92l.04-4.75-9.63-.03.66 4.78Zm-58.52-4.99-8.25-.03-.25 4.76 7.64.25.86-4.98Zm54.45.19-50.3-.17v4.18l50.14.53.16-4.54Z"/><path fill="#fff" stroke="#263238" stroke-linecap="round" stroke-linejoin="round" d="M270.7 297h-12.4v3.96h12.4V297Z"/><path stroke="#666" stroke-linecap="round" stroke-linejoin="round" d="m265.43 330.78-8.18 164.12m8.45-150.4 13.71-15.83m-36.67-25.86s-5 21.11-17.94 25.33m62.53-23.75s1.85 18.47 10.29 27.18m-31.72-26.59-.7 21.47 4.57-6.7v-15.47"/><path fill="#B2B2B2" stroke="#263238" stroke-linecap="round" stroke-linejoin="round" d="M361.67 182.91s3-2.9 5.07-9.92c2.06-7.02-1.24-5.95-2.72-3.57-1.48 2.38-4.2 8.7-5.12 11.26-.92 2.56-2.02 5.68 2.77 2.22v.01Z"/><path fill="#B2B2B2" stroke="#263238" stroke-linecap="round" stroke-linejoin="round" d="M357.63 187.53s3.86-1.57 8.39-7.32c4.53-5.75 1.06-5.98-1.2-4.32-2.26 1.66-7.13 6.52-8.93 8.55-1.8 2.03-3.98 4.52 1.74 3.09Z"/><path fill="#B2B2B2" d="M338.78 188.55s-.53-5.54 4.75-6.86a19.8 19.8 0 0 1 10.19.39s4.22-13.72 6.07-10.29c1.85 3.43-1.58 13.46-2.9 15.04-1.32 1.58-10.8 2.6-12.39 2.6"/><path stroke="#263238" stroke-linecap="round" stroke-linejoin="round" d="M338.78 188.55s-.53-5.54 4.75-6.86a19.8 19.8 0 0 1 10.19.39s4.22-13.72 6.07-10.29c1.85 3.43-1.58 13.46-2.9 15.04-1.32 1.58-10.8 2.6-12.39 2.6"/><path fill="#B2B2B2" stroke="#263238" stroke-linecap="round" stroke-linejoin="round" d="M196.35 191.62s3.26 9.44 2.93 11.72c-.33 2.28-3.09 5.21-3.42 6.35-.33 1.14 7 26.7 9.77 32.56 2.77 5.86 7.49 17.74 6.51 22.63-.98 4.88-4.88 5.86-10.09 5.86s-7-1.95-9.44-8.79c-2.44-6.84-8.79-51.93-8.79-51.93l-3.42-6.67 1.14-15.3 14.81 3.58v-.01Z"/><path fill="#4B1B81" stroke="#263238" stroke-linecap="round" stroke-linejoin="round" d="m229.33 320.2-8.55-13.44a25.44 25.44 0 0 1-2.37-22.58l1.53-4.11a23.81 23.81 0 0 0-.61-18.14l-.53-1.17a23.78 23.78 0 0 0-20.32-13.95l-9.69-.56h-4.31l-9.69.56a23.8 23.8 0 0 0-20.32 13.95l-.53 1.17a23.81 23.81 0 0 0-.61 18.14l1.53 4.11a25.44 25.44 0 0 1-2.37 22.58l-8.56 13.45a28.15 28.15 0 0 0-2.24 25.93l.16.38a34.49 34.49 0 0 0 9.48 12.99c4.64 3.93 9.31 5.29 15.29 6.34 13.31 2.32 27.43 1.64 40.8.14 10.78-1.2 20.05-9.57 24-19.47l.16-.38a28.18 28.18 0 0 0-2.25-25.94Z"/><path fill="#999" stroke="#263238" stroke-linecap="round" stroke-linejoin="round" d="M193.87 302.94a19.23 19.23 0 1 0-14.5-35.63 19.23 19.23 0 0 0 14.5 35.63Z"/><path fill="#fff" stroke="#263238" stroke-linecap="round" stroke-linejoin="round" d="M199.69 139.55h-26.62a.85.85 0 0 0-.85.85v.96c0 .47.38.85.85.85h26.62c.47 0 .85-.38.85-.85v-.96a.85.85 0 0 0-.85-.85Zm-26.62 6.86h26.62c.47 0 .85.38.85.85v.95c0 .47-.38.85-.85.85h-26.62a.85.85 0 0 1-.85-.85v-.95c0-.47.38-.85.85-.85Zm26.62 6.87h-26.62a.85.85 0 0 0-.85.85v.96c0 .47.38.85.85.85h26.62c.47 0 .85-.38.85-.85v-.96a.85.85 0 0 0-.85-.85Z"/><path fill="#263238" stroke="#263238" stroke-linecap="round" stroke-linejoin="round" d="M194.88 135.41s.12-.47-.12-1.76c-.23-1.29-2-.94-3.3-1.88a4.84 4.84 0 0 1-1.44-1.49c.03-.21.06-.41.06-.63 0-2.2-1.65-3.99-3.7-3.99-2.05 0-3.7 1.79-3.7 3.99 0 .21.03.4.06.6-.13.25-.5.81-1.46 1.51-1.3.94-3.05.59-3.3 1.88-.22 1.29-.11 1.76-.11 1.76s-2.35.7-2.11 2.7c.23 1.99.82 21.47 1.53 23.23.7 1.76 4.58 5.75 5.98 6.8.88.66 2.22.49 3.1.28.88.22 2.22.38 3.1-.28 1.4-1.06 5.28-5.05 5.98-6.8.7-1.76 1.29-21.24 1.53-23.23.23-1.99-2.11-2.7-2.11-2.7v.01Zm-13.4 23.58h-.11a2.59 2.59 0 0 1-2.61-2.56l-.15-15.45a2.59 2.59 0 0 1 2.56-2.61h.1a2.59 2.59 0 0 1 2.62 2.56l.15 15.45a2.59 2.59 0 0 1-2.56 2.61Zm12.17-2.56a2.58 2.58 0 0 1-2.61 2.56h-.11a2.58 2.58 0 0 1-2.56-2.61l.15-15.45a2.58 2.58 0 0 1 2.6-2.56h.12a2.58 2.58 0 0 1 2.56 2.61l-.15 15.45Z"/><path fill="#fff" stroke="#263238" stroke-linecap="round" stroke-linejoin="round" d="M186.63 271.98c2.57 0 4.97.75 6.99 2.03l-1-108.85h-12l-1 108.85a13.05 13.05 0 0 1 6.99-2.03h.02Z"/><path fill="#263238" stroke="#263238" stroke-linecap="round" stroke-linejoin="round" d="M195.93 294.42a13.15 13.15 0 1 0-18.6-18.6 13.15 13.15 0 0 0 18.6 18.6Zm13.78 32.91h-45.94v9.13h45.94v-9.13Z"/><path fill="#fff" stroke="#263238" stroke-linecap="round" stroke-linejoin="round" d="M195.6 327.33h-19.65v2.77h19.65v-2.77Z"/><path stroke="#263238" stroke-linecap="round" stroke-linejoin="round" d="M180.73 173.85h12.75m-12.83 7.78h12.83m-12.92 7.78h12.92m-13.01 7.78h13m-13.08 7.79h13.09m-13.18 7.78h13.18m-13.28 7.78h13.28m-13.35 7.78h13.35m-13.44 7.78h13.44m-13.53 7.8h13.53m-13.61 7.77h13.6m-13.69 7.78h13.7m-13.79 7.78h13.79"/><path stroke="#263238" stroke-linecap="round" stroke-linejoin="round" stroke-width=".5" d="M181.51 165.52v170.91m2.03-170.91v170.91m2.03-170.91v170.91m2.03-170.91v170.91m2.03-170.91v170.91m2.03-170.91v170.91"/><path fill="#B2B2B2" stroke="#263238" stroke-linecap="round" stroke-linejoin="round" d="M185.76 184.14h-6.79c-.95 0-1.72.77-1.72 1.72v1.68c0 .95.77 1.72 1.72 1.72h6.79c.95 0 1.72-.77 1.72-1.72v-1.68c0-.95-.77-1.72-1.72-1.72Zm11.7 11.48v-6.79c0-.95-.77-1.72-1.72-1.72h-1.68c-.95 0-1.72.77-1.72 1.72v6.79c0 .95.77 1.72 1.72 1.72h1.68c.95 0 1.72-.77 1.72-1.72Zm-12.99-6.27h-6.8c-.95 0-1.72.77-1.72 1.72v1.68c0 .95.77 1.72 1.72 1.72h6.8c.95 0 1.72-.77 1.72-1.72v-1.68c0-.95-.77-1.72-1.72-1.72Zm-1.48 5.2h-6.79c-.95 0-1.72.77-1.72 1.72v1.68c0 .95.77 1.72 1.72 1.72h6.79c.95 0 1.72-.77 1.72-1.72v-1.68c0-.95-.77-1.72-1.72-1.72Zm1.59 5.21h-6.41c-.95 0-1.72.77-1.72 1.72v1.68c0 .95.77 1.72 1.72 1.72h6.4c.96 0 1.73-.77 1.73-1.72v-1.68c0-.95-.77-1.72-1.72-1.72Z"/></g><defs><clipPath id="a"><path fill="#fff" d="M0 0h705v519H0z"/></clipPath></defs></svg>