<svg xmlns="http://www.w3.org/2000/svg" fill="none" viewBox="0 0 48 48"><g clip-path="url(#a)"><path fill="#4B1B81" d="M5.8 4.7V3.3c0-1.3.8-2.6 2-3 2-.9 4.3.5 4.5 2.7v1.7h8.4V2.9c.2-1.2 1-2.1 2.1-2.6a3 3 0 0 1 3.2.4c.9.7 1.2 1.6 1.3 2.6v1.1c0 .2 0 .3.2.3a2082.9 2082.9 0 0 1 8.2-.3V2.8A3.4 3.4 0 0 1 38.5 0c1.6-.2 3 .8 3.6 2.3.2.5.1 1 .1 1.6v.8h2.5c1.2 0 2 .7 2.7 1.6.4.6.6 1.3.6 2v36.3a3.8 3.8 0 0 1-3.7 3.5H3.7A3.9 3.9 0 0 1 0 44.6V9.5c0-.7 0-1.4.2-2A3.5 3.5 0 0 1 3 4.8c.8-.2 1.6-.1 2.5-.1h.3Zm39.8 12.4H2.4v27c0 .7.3 1.2.9 1.4l.8.1h40c1.4 0 1.4-1.1 1.5-2V17ZM20.7 7h-8.3v1.6c-.3 1.7-2 3-3.6 2.9-1.3-.2-3-1.3-3-3.4v-1h-2c-1 0-1.4.5-1.4 1.5v6.1h43c.2 0 .2 0 .2-.3v-6c0-.6-.5-1.3-1-1.3h-2.4v1c0 .7-.2 1.4-.6 2a3.3 3.3 0 0 1-3.4 1.4 3.5 3.5 0 0 1-2.6-2.7V7.5c0-.4 0-.4-.4-.4h-7.9l-.1 1.6a3.4 3.4 0 0 1-3.3 2.9 3.4 3.4 0 0 1-3.3-3.1V7ZM40 5.8V3.4a1 1 0 0 0-.7-.9.9.9 0 0 0-1 .4l-.2.6v4.7c0 .5.5 1 1 1s.9-.5.9-1V5.8Zm-31.8 0v2.4c0 .6.6 1 1.1 1 .5-.2.8-.5.8-1.1V3.3a1 1 0 0 0-.9-.8 1 1 0 0 0-1 .8v2.5Zm15 0v2.6c0 .6.8 1 1.3.6.4-.2.6-.4.6-.8V3.3c-.2-.5-.6-.9-1-.8-.5 0-.9.4-.9.9v2.4Z"/><path fill="#E6062B" d="M34.4 25.5v1.7h4.3c.8.1 1.3.6 1.3 1.4v4.1c-.1.8-.6 1.2-1.3 1.3h-5.3c-.9 0-1.4-.5-1.4-1.4v-8.1c0-1 .5-1.5 1.4-1.5h5.2c.4 0 .8 0 1.1.4.3.4.4.9.2 1.4-.2.4-.5.7-1 .7h-4.5Zm3.2 4.2h-3l-.2.2v1.6h3s.2 0 .2-.2v-1.6Zm-15.2-4.2v1.8H25c.9 0 1.4.8 1.2 1.6-.2.5-.7.8-1.2.8h-2.6v1.8h4.4c.7 0 1.3.8 1 1.6 0 .5-.5.9-1 .9h-5.6c-.6 0-1.1-.5-1.2-1.2v-8.6c0-.6.5-1 1-1.2h5.4c.3 0 .7 0 1 .2.5.3.7.8.6 1.4-.2.5-.6.9-1.2.9h-4.4ZM13 23h1.9c.6 0 1 .5 1.1 1 0 .7-.4 1.2-1.1 1.2h-3.7c-.5 0-.8.4-.8.8s.3.8.8.8H14c.7 0 1.3.4 1.3 1S14.7 29 14 29h-3c-2.2 0-3.7-2.4-2.6-4.2a3.3 3.3 0 0 1 3-1.8H13Zm11 17h-2.7c-1 0-1.4-.7-1.3-1.2.2-.5.6-.8 1.2-.8h5.7c.6 0 1.1.5 1.1 1 0 .6-.5 1-1.2 1H24Zm12 0h-3a1 1 0 0 1-1-.6c0-.4 0-.8.4-1 .3-.3.6-.4 1-.4h5.3c.3 0 .6 0 .9.3.3.3.5.6.3 1-.1.4-.5.7-1 .7h-3Zm-24 0H9c-.6 0-1.1-.5-1.1-1s.5-1 1.1-1h5.7c.8 0 1.3.6 1.2 1.3-.1.4-.6.7-1.1.7h-3Zm0-6H9.3c-.9 0-1.3-.8-1.3-1.5s.5-1.4 1.2-1.5h5.4c.7 0 1.3.6 1.4 1.3 0 .8-.3 1.5-1 1.7h-3Z"/></g><defs><clipPath id="a"><path fill="#fff" d="M0 0h48v48H0z"/></clipPath></defs></svg>