<svg xmlns="http://www.w3.org/2000/svg" fill="none" viewBox="0 0 48 48"><path fill="#E6062B" d="m24 16-3.4-3.5a358 358 0 0 0-3.4-3.4c-.5-.6-1-1.2-1.1-2a3.3 3.3 0 0 1 3.6-4c1.2 0 2 .6 2.7 1.6l.8 1c.5.7 1.1.7 1.6 0L26 4a3.5 3.5 0 0 1 5 0 3.5 3.5 0 0 1 .2 4.9l-6 6.1-1.2 1.1Z"/><path fill="#4B1B81" d="m18 24.9-2.2.5-1.3.3c-.5 0-.9-.1-1.2-.5-.3-.4 0-1 .5-1.1l2.7-.6 2.8-.6.4-.3 3.4-3a3 3 0 0 1 2-.6 18 18 0 0 1 9.4 2c.8.4 1.5.3 2.3 0l.9-.3.2-.3c0-.4.3-.6.8-.6h8.4c.6 0 .9.3.9.9v14.9c0 .5-.3.9-.8.9h-5.4a.8.8 0 0 1-.8-.6c-.2-.4 0-.8.3-1l.3-.1h4.7V21.7c0-.2 0-.3-.3-.3h-6.4L40 23l1.7 6.5 1 3.7c0 .5 0 .8-.5.9-.6.2-1 0-1.2-.5a93 93 0 0 1-.6-2.2L38.2 23v-.5l-1.2.4c-1.1.3-2.2.2-3.3-.3-1.2-.6-2.4-1.1-3.8-1.5l-3-.3a32.6 32.6 0 0 0-2.6.2l-1 .7-2.3 2.1c-1 .9-1.6 2-2.1 3.2-.5 1.1.1 2.3 1.2 2.6a2 2 0 0 0 2-.6c.6-.5 1-1.2 1.3-2l.3-.5c.3-.6 1-1 1.6-1a6 6 0 0 1 1.8.5l6.8 3.5 4.6 2.4c1.2.6 1.8 2 1.4 3.2-.2.7-.5 1.3-1.1 1.8-.1 0-.2.2-.1.4 0 1 0 1.8-.6 2.6-1 1.5-3 2-4.6 1.2h-.1c0 1.5-.7 2.5-2 3.2-1.4.6-2.7.4-4-.4v.2c-.2 1-1 1.6-1.9 1.9-.8.2-1.6 0-2.3-.3l-.7-.4c-.3 0-.5.3-.7.4-1.4.9-3.8.3-4.2-1.8 0-.2-.1-.3-.3-.3-1.3-.2-2.1-.8-2.5-2a2 2 0 0 1-.2-.7c0-.2 0-.3-.2-.3-1-.3-1.5-.8-1.8-1.6-.2-.3-.2-.6-.2-.9l-.3-.3-2.4-1.3H1c-.4 0-.7 0-.9-.4a1 1 0 0 1-.1-.4v-15c0-.6.5-1 1-.8l2.3.6L8 21.6l3.6 1c.6 0 .8.3.7.9l-.6 4.5-.9 5.6c0 .4 0 .7-.2 1 0 .2 0 .3.2.4l2.2 1.2.2-.1c.5-1 1.3-1.4 2.4-1.4 1 0 1.8.5 2.4 1.4 0 .1.1.2.3.2 1.3-.2 2.8.6 3.3 2 .1.2.3.3.6.4 1 .1 2 1 2.2 2.2.2.8 0 1.5-.5 2.2l-.4.6c.4.3.8.6 1.4.6l.6-.2c.4-.3.4-.8.1-1.1-.4-.5-.3-1.2.3-1.4.2-.2.5-.1.7 0l2.1 1c.6.2 1.2.3 1.8.1 1-.3 1.5-1.3 1.1-2.2-.1-.3-.4-.5-.7-.7l-5-2.4c-.5-.3-.7-.7-.5-1.1a1 1 0 0 1 1.3-.5l3.9 1.9 3.7 1.7c1 .5 2.3 0 2.5-1.1.2-.7 0-1.4-.7-1.8l-6.6-3.3-.3-.2a.8.8 0 0 1-.4-1 1 1 0 0 1 1.1-.6l.4.2 7.1 3.6h.5c.7-.5.7-1.6-.1-2l-3-1.6-8.4-4.2-.8-.2c-.1 0-.3 0-.3.2l-.7 1.3a5 5 0 0 1-2.1 2.2c-1.9.8-4 .2-5-1.5-.5-1-.6-2.2 0-3.3 0-.4.3-.8.5-1.2Zm-9.2 9.8v-.2l.7-4.3.9-5.6c0-.6 0-.6-.6-.8l-7.4-1.9-.8-.2v12.6c0 .4 0 .4.4.4h6.8Zm11.6 9.6c.2 0 .5 0 .7-.3l1.5-2.2c.3-.5.2-1-.2-1.3-.5-.4-1.2-.3-1.5 0a57.4 57.4 0 0 0-1.7 2.8c0 .6.6 1 1.2 1Zm-.6-5.3a1 1 0 0 0-.7-1c-.5 0-1 0-1.3.4l-1.2 1.8c-.4.6-.2 1.3.5 1.6.4.2.9.1 1-.2l1.5-2 .2-.6Zm-4.7 0c.2-.1.5-.1.6-.3l.8-1.2v-.1a1 1 0 0 0-.6-1c-.4-.1-.8-.1-1.1.2-.2.2-.5.5-.6.8-.4.8 0 1.5 1 1.6ZM24 4.4l.3-.4c1.7-2.3 5-2.7 7-.8A4.8 4.8 0 0 1 33 7.4a5.4 5.4 0 0 1-1.7 3.4c-2.3 2.2-4.4 4.5-6.6 6.8-.5.5-.8.5-1.3 0l-7-7.2a5 5 0 0 1 1.1-7.8c2-1 4.5-.7 6.1 1.3l.4.5Zm0 11.5 1-1 5.5-5.7a3.3 3.3 0 0 0-.1-4.7 3.2 3.2 0 0 0-4.5.3l-1.1 1.5c-.5.6-1 .6-1.5 0a93 93 0 0 0-.7-1A3.4 3.4 0 0 0 20 3.8c-2-.3-3.8 1.7-3.4 3.8.2.8.6 1.3 1 1.8l3.2 3.2 3 3.3Z"/><path fill="#E6062B" d="M44 24.5c0 .8-.4 1.5-1 1.5-.5 0-1-.7-1-1.5s.5-1.5 1-1.5 1 .7 1 1.5Z"/><path fill="#fff" d="M20.4 45c-.7 0-1.3-.4-1.4-1 0-.2 0-.4.2-.6a57 57 0 0 1 1.7-2c.3-.5 1-.5 1.6-.2.5.3.7.8.3 1.3l-1.7 2.2a1 1 0 0 1-.7.3Zm-.4-6-.2.6-1.8 2.1c-.2.3-.7.4-1.2.2-.8-.3-1-1-.6-1.6l1.4-1.9c.3-.4 1-.5 1.5-.3.5.1.8.5.9 1Zm-4.7 0c-1 0-1.6-.6-1.1-1.2l.7-.6c.4-.3.9-.2 1.4-.1.4.1.7.4.7.7v.1l-1 1-.7.1Z"/></svg>