<svg xmlns="http://www.w3.org/2000/svg" fill="none" viewBox="0 0 48 48"><g clip-path="url(#a)"><path fill="#4B1B81" d="m34.8 13.9-3.9 4.5v.5l.6 1c.1.2.3.3.6.4.4 0 .9 0 1.3.2a3 3 0 0 1 1.9 2.5v2c-.2 1.2-.7 2-1.9 2.4l-1.6.4c-.1 0-.3 0-.3.2-.9 1.4-2 2.6-3.5 3.4l-.2.3-.4 1.6a2.7 2.7 0 0 1-2.3 1.9h-2c-1.2 0-2-.7-2.4-1.7l-.5-1.7c0-.2-.1-.3-.3-.4l-1-.7-.3.3-3.8 4.6-.8.9a1 1 0 0 1-1.3 0c-.2 0-.3-.3-.5-.4a5.1 5.1 0 0 0-5.4-1.8c-2.2.5-3.5 2-4 4.2-.3 1.1-.1 2.2.4 3.3l.3.7c.2.6-.2 1-.6 1.2-.4.3-.8.2-1.2-.3-.7-1-1-2.1-1.2-3.4A7.6 7.6 0 0 1 13 34l.3.2 4.1-4.8-.4-.5-.4-.6c-.1-.3-.3-.4-.7-.4l-.8-.2c-1.4-.3-2.2-1.2-2.3-2.6v-2.2c0-1.3 1-2.3 2.3-2.5l1-.2.4-.2c.8-1.5 2-2.7 3.5-3.6l.2-.2.3-1.6c.4-1.2 1.4-2 2.7-2h2c1 .1 1.8.7 2.1 1.7l.5 1.7c0 .2 0 .3.3.5l1.1.7 1.7-2 2.7-3.2c.2-.2.4-.5.8-.6.5-.3 1 0 1.3.4.7 1 1.7 1.5 2.8 1.8 3.1 1 6.5-1.4 6.8-4.7.1-1 0-2-.5-2.9a10 10 0 0 1-.2-.6c-.2-.5 0-.9.4-1.2.4-.2.9-.2 1.2.1l.4.7A7.5 7.5 0 0 1 35 14l-.1-.1ZM25.2 33l.6-2.3c.2-.3.3-.6.7-.8a7 7 0 0 0 3.4-3.5c.2-.3.5-.5.8-.6.7 0 1.3-.2 2-.3.2 0 .3-.1.3-.3V23c0-.2 0-.3-.2-.4-.6 0-1.3-.2-2-.4-.3 0-.6-.3-.8-.7l-.5-1a6 6 0 0 0-2.7-2.3c-.5-.2-.8-.5-1-1 0-.7-.3-1.4-.4-2 0-.2-.2-.3-.4-.3a86.7 86.7 0 0 1-2.3.3l-.6 2c0 .4-.3.7-.7 1a6.8 6.8 0 0 0-3.3 3.3 1 1 0 0 1-.9.7l-2 .4c-.2 0-.2.2-.2.4v2c0 .3 0 .4.3.4l1.4.3c.8.1 1.3.4 1.6 1.2a5.4 5.4 0 0 0 2.8 2.8c.6.3 1 .6 1.1 1.2l.6 1.9c0 .1 0 .3.3.3h2.1Z"/><path fill="#E6062B" d="M34.5 6.5h3c.5 0 .9.5 1 1 0 .4-.4.8-.8 1H16v.2c0 .7-.1 1.4-.4 2l.1.5a3 3 0 0 1 .2 3.3 3.1 3.1 0 0 1-4.6 1.2h-.6a6 6 0 0 1-2.4.4 7.6 7.6 0 0 1-4-1.3l-.1.3-2 3.2c-.2.3-.4.5-.8.5-.4.1-.7 0-1-.3-.2-.3-.3-.8 0-1.2l.7-1.1 1.6-2.5v-.4a7 7 0 0 1-1.4-7.1v-.4c-1-1.1-1-2.5 0-3.8A3.1 3.1 0 0 1 4.7.8c.4 0 .6.2 1 .4.1.2.2.2.4.1 3.5-1.3 7.3.5 9 3.6l.6 1.4c0 .2.2.3.4.3a10287.7 10287.7 0 0 1 16-.2 7.2 7.2 0 0 1 7-5.5c.5 0 .8.2 1 .7.1.4 0 .8-.3 1.1a1 1 0 0 1-.6.3 5.3 5.3 0 0 0-4.6 3.3v.2ZM7.6 3l.8 1c1.1 1.5.6 3.2-.2 4C6.9 9.5 5 9.5 3.6 8l-.4-.4c-.3 2.2.3 3.9 2 5.2 1.2 1 2.6 1.4 4.3 1l-.5-.4c-.6-.6-1-1.2-1-2-.3-2.1 1.7-4 3.7-3.5a4 4 0 0 1 2 1.1l.3.3c.3-1.7-.5-3.7-1.8-4.9A5.7 5.7 0 0 0 7.6 3Zm5.5 11.2c.4 0 .7-.2.9-.5.4-.4.4-.9.1-1.3a73 73 0 0 0-2.3-2.2c-.3-.3-.6-.3-1-.2a1 1 0 0 0-.4 1.8l2 2 .7.4ZM5.7 7c.6 0 1-.2 1.1-.6.2-.5.1-.9-.2-1.2L4.5 3a1 1 0 0 0-1.3 0c-.5.5-.6 1-.2 1.5l2.1 2 .6.4Zm7.7 34.5h-2.8a1 1 0 0 1-1-1c0-.5.3-1 .9-1H32c.1-.6.1-1.2.3-1.7.1-.4 0-.7-.2-1-1.1-1.7-.4-4 1.6-4.8 1-.4 2-.3 2.9.4l.3.1c2.3-.9 4.4-.6 6.5.7l.4-.5 2.2-3.2a1 1 0 0 1 1.2-.3c.5.3.7 1 .5 1.3l-.7 1-2 3a7.7 7.7 0 0 1 1.7 7.2v.6c1.3 1.8.3 4.3-1.8 4.9-.8.2-1.6 0-2.3-.4a.6.6 0 0 0-.6 0 7.6 7.6 0 0 1-9.7-5.1l-.1-.3H16.1c-.3 0-.4.1-.5.4a7 7 0 0 1-3.6 4.5c-1 .6-2 1-3 .9-.6 0-1-.2-1.2-.7-.3-.5 0-1.2.7-1.3l1-.2a5.4 5.4 0 0 0 3.9-3.3v-.2Zm31.5-1.2a5.4 5.4 0 0 0-6.3-6l.4.5c1.4 1.7.5 3.8-.8 4.6-1 .7-2.2.7-3.4 0l-.6-.4c-.2 2 .5 3.7 2.2 5 1.2.8 2.6 1.1 4 1-.6-.7-1.2-1.4-1.3-2.4 0-1 .2-1.8.8-2.5.6-.6 1.2-1 2-1.1 1.2-.2 2.1.4 3 1.3Zm-2.6.8c-.5 0-.9.4-1 .9-.1.5 0 .9.5 1.3l1.5 1.4.3.3c.4.3 1 .2 1.4-.3.3-.4.4-1 0-1.3a56 56 0 0 0-2-2l-.7-.3Zm-7.5-7.2c-.5 0-.8.2-1 .6-.2.4-.2.8.1 1.2l1.8 1.7.3.2c.5.3.9.2 1.2-.2.4-.3.4-.8.2-1.2l-.5-.6-1.3-1.3a1 1 0 0 0-.8-.4Zm10-32.8-.3.8a175.7 175.7 0 0 1-2.2 3.8c-.3.4-.7.5-1.2.2a1 1 0 0 1-.5-1.1l.3-.6a618 618 0 0 1 2-3.7A1 1 0 0 1 44 0c.5.1.8.6.8 1.1ZM4.2 48a1 1 0 0 1-1-1.5l.7-1.1 1.4-2.5.4-.6a1 1 0 0 1 1.3-.1c.5.3.6.8.4 1.2l-.8 1.4-1.5 2.7a1 1 0 0 1-.9.6Z"/><path fill="#4B1B81" d="M19.5 24c0-2.5 2-4.6 4.4-4.6a4.5 4.5 0 0 1 .2 9.1c-2.6 0-4.6-2-4.6-4.5Zm4.4 2.4c1.4 0 2.5-1 2.5-2.4 0-1.2-1-2.4-2.3-2.4-1.3 0-2.4 1-2.5 2.3 0 1.4 1 2.4 2.3 2.5Z"/><path fill="#fff" d="M24 26.4c-1.4 0-2.4-1-2.4-2.5 0-1.3 1.2-2.4 2.5-2.3 1.2 0 2.3 1.2 2.3 2.4 0 1.3-1.1 2.4-2.5 2.4Z"/></g><defs><clipPath id="a"><path fill="#fff" d="M0 0h48v48H0z"/></clipPath></defs></svg>