<svg xmlns="http://www.w3.org/2000/svg" fill="none" viewBox="0 0 48 48"><g clip-path="url(#a)"><path fill="#E6062B" d="M20 4.2A74.4 74.4 0 0 1 18 9a157.8 157.8 0 0 1-2 4.8 2 2 0 0 1-.7.9h-.2a672.4 672.4 0 0 1-12.8 1.1 4.8 4.8 0 0 0-.7.4 4.4 4.4 0 0 0-1.3 1.7A3 3 0 0 0 .1 20c.1.5.4 1 .7 1.4 2 2.2 3.4 3.8 5.3 5.6l.3.3c2.8 2.8 3.4 3.3 3.5 3.9a3 3 0 0 1-.4 2l-.8 2.6a136.7 136.7 0 0 0-.9 3v.2a17 17 0 0 0-.3 1 9 9 0 0 1-.4.7 1 1 0 0 0-.1.7 1 1 0 0 0 0 .2c.3.3.6.4 1 .2.3-.1.4-.3.6-1a61.5 61.5 0 0 1 1.9-5.4c1.1-3.3 1.1-3.7.9-4.7-.3-1-.4-1-2.7-3.4-3.1-3-4.4-4.3-6.3-6.4-.9-1-1-2-.4-3 .5-.6.7-.6 3-.8l9.8-.6c1.4-.2 2.2-.8 2.8-2.5l.8-1.8a752.5 752.5 0 0 0 4.3-9.9c.8-.8 2.1-.7 2.8.3L27 6.1a485.5 485.5 0 0 0 3.3 7.9c.5 1 1 1.7 1.7 2 .5.3 1 .4 1.7.4a123.8 123.8 0 0 1 6.2.4c5.2.4 5.2.4 5.6.7.7.5 1 1.6.7 2.4l-2.5 3c-.8.7-.9 1.2-.4 1.6l.2.1h.6l1.3-1.3a154.4 154.4 0 0 1 1.6-2c.5-.5.8-1 .9-1.6V19a3.3 3.3 0 0 0-1-2.3 3.7 3.7 0 0 0-1.8-1l-1.7-.2a744 744 0 0 1-10-.7c-.3 0-.6 0-.8-.2A220 220 0 0 1 28 4.3a9.5 9.5 0 0 0-2-3.6c-.7-.5-1.6-.8-2.4-.6-1 .2-1.8.7-2.5 1.8a13 13 0 0 0-1 2.3ZM6.2 43s-.1 0 0 0H6a3 3 0 0 0-.2 1.7c.1.6.4 1.3.8 1.8a3 3 0 0 0 1.7 1.3c.6.2 1.2.2 2 0l2-1a52.5 52.5 0 0 1 1.9-1h.2a49.4 49.4 0 0 0 2.7-1.5 108.2 108.2 0 0 0 6.4-3.3 1.3 1.3 0 0 1 .5 0c.4 0 .8.1 1.3.5l1 .5a102 102 0 0 1 4.2 2.2 98.8 98.8 0 0 1 6.6 3.5c1.2.4 2.5.1 3.4-.6 1-.8 1.6-2.2 1.4-3.3a3.2 3.2 0 0 0 0-.3v-.2l-.3-.7-.3-1-.3-.7a776 776 0 0 0-2.4-7c-.8-2.6-.8-3 .2-4.1.5-.5.6-.6.6-.8a1.5 1.5 0 0 0 0-.2v-.1c-.2-.4-.7-.6-1.2-.4-.5.2-1.3 1.3-1.6 2.1-.3 1-.3 1.5.5 3.7l1.7 5 1.5 4.9c.1 1.2-.7 2.3-1.9 2.3-.5 0-.5 0-2.2-.8a2399.5 2399.5 0 0 0-9.7-5.2c-1.5-.8-1.8-.9-2.6-1l-.4.1c-.6 0-1.1.4-3.7 1.7a479.7 479.7 0 0 1-6 3.2c-3.4 1.8-3.7 2-4.1 2h-.3c-1.4 0-2.3-1.2-2-2.6.2-.6-.3-1.3-.9-1.1l-.4.3Z"/><path fill="#4B1B81" d="M23.6 4.2 22.8 6l-4.2 10a5 5 0 0 1-4 2.3c-1 0-1.3.2-1.4.6-.4 1.8 4 1 5.8-1 .8-.9 1-1.3 2.3-4.2a215.3 215.3 0 0 1 2.5-6.2l.1-.1.9 2a1481 1481 0 0 0 2.6 6.2 7.3 7.3 0 0 0 2 2.8l1.4.9c1 .5 1.6.6 3.8.7 1.8 0 6.8.3 6.8.4L37 24.9a14.8 14.8 0 0 0-3.1 3.6 6 6 0 0 0-.5 4.6 415.8 415.8 0 0 0 2.8 8.5 52 52 0 0 0-3.2-1.8 83.5 83.5 0 0 0-7-3.5c-2.2-.6-3.5-.3-6.8 1.4a166.5 166.5 0 0 1-7.2 3.7 96.7 96.7 0 0 0 3-10.1c0-.6 0-1.2-.3-1.8-.4-1.5-.6-1.7-3.7-4.9l-.4-.3c-3.4-3.4-3.9-4-3.8-4h.1L9 20c2.3-.2 2.4-.2 2.6-.6.1-.4 0-.7-.3-1l-6 .3c-1 0-1.1.1-1.2.7 0 .4.3.8 4.6 5l.4.5c3.1 3.1 3.5 3.5 3.7 4l.1.1c.7 1.4.8 2.1.3 3.9l-.5 1.6c-1.7 5-2.6 7.5-3 8.2-.2.7 0 1.3.7 1.3l1.6-.8a758.2 758.2 0 0 1 8.9-4.7c2.6-1.4 3.8-1.4 6.5 0a599.6 599.6 0 0 0 6.4 3.5l.6.3c3 1.6 3.4 1.8 3.6 1.7h.1c.6-.3.7-.6.3-1.3a57.2 57.2 0 0 1-3-8.6c-.9-2.4-.9-3.2-.2-4.7.3-.8.4-.9 3.7-4.2 4.5-4.5 5.2-5.3 5.2-5.6 0-.6-.3-.8-1.4-.8a123.9 123.9 0 0 1-5.7-.4 26 26 0 0 1-4.8-.4 5.4 5.4 0 0 1-2.8-2.2A116 116 0 0 1 25 5.5c-.6-1.4-.9-1.6-1.4-1.3Z"/><path fill="#E6062B" d="m42.3 26.4.2-.4c.2-.6-.5-1.1-1-.8-.3 0-1 .8-1.3 1.2-.4.7 0 1.4.6 1.3l.4-.1a8 8 0 0 0 1-1.2Z"/></g><defs><clipPath id="a"><path fill="#fff" d="M0 0h48v48H0z"/></clipPath></defs></svg>