<svg xmlns="http://www.w3.org/2000/svg" xmlns:xlink="http://www.w3.org/1999/xlink" width="15.33" height="14.67" viewBox="0 0 15.33 14.67"><defs><clipPath id="a" transform="translate(-0.67 -0.67)"><rect width="16" height="16" fill="none"/></clipPath></defs><g clip-path="url(#a)"><path d="M8,15.33A7.34,7.34,0,0,0,15.33,8,7.05,7.05,0,0,0,15,6a.6.6,0,0,0-.76-.41.61.61,0,0,0-.41.76A6.11,6.11,0,1,1,8,1.89a6.16,6.16,0,0,1,3.41,1,.61.61,0,0,0,.85-.16.62.62,0,0,0-.17-.85A7.33,7.33,0,1,0,8,15.33Z" transform="translate(-0.67 -0.67)" fill="#e6062b"/><path d="M14.86,1.53,8,8.39,5.8,6.19a.66.66,0,0,0-.94,0,.68.68,0,0,0,0,.95L7.53,9.8a.65.65,0,0,0,.94,0L15.8,2.47a.66.66,0,1,0-.94-.94Z" transform="translate(-0.67 -0.67)" fill="#e6062b"/></g></svg>