<svg xmlns="http://www.w3.org/2000/svg" fill="none" viewBox="0 0 122 287"><g fill="#4B1B81" clip-path="url(#a)" opacity=".12"><path d="M143.6 0C64.22 0 0 64.22 0 143.6c0 79.18 64.22 143.6 143.6 143.6 79.18 0 143.6-64.22 143.6-143.6C287 64.22 222.78 0 143.6 0Zm0 277.94c-74.26 0-134.34-60.08-134.34-134.34S69.34 9.26 143.6 9.26 277.94 69.34 277.94 143.6c0 74.06-60.28 134.34-134.34 134.34Z"/><path d="M143.6 30.93c-62.05 0-112.48 50.42-112.48 112.47S81.55 255.88 143.6 255.88c62.05 0 112.47-50.23 112.47-112.28 0-62.25-50.42-112.67-112.47-112.67Zm0 207.81c-52.6 0-95.34-42.75-95.34-95.34 0-52.6 42.75-95.34 95.34-95.34 52.6 0 95.34 42.75 95.34 95.34 0 52.6-42.75 95.34-95.34 95.34Z"/></g><defs><clipPath id="a"><path fill="#fff" d="M0 0h287v287H0z"/></clipPath></defs></svg>