<svg xmlns="http://www.w3.org/2000/svg" fill="none" viewBox="0 0 105 225"><g fill="#4B1B81" clip-path="url(#a)" opacity=".8"><path d="M101.3 59a2.5 2.5 0 0 0-.5 3.6 2.5 2.5 0 0 0 3.7.4c1.1-.9 1.3-2.4.4-3.6a2.6 2.6 0 0 0-3.6-.5ZM87.9 41.5a2.5 2.5 0 0 0-.5 3.6 2.5 2.5 0 0 0 3.6.5c1.2-1 1.4-2.5.5-3.6a2.6 2.6 0 0 0-3.6-.5ZM74.5 24a2.5 2.5 0 0 0-.5 3.6 2.5 2.5 0 0 0 3.6.5c1.2-.9 1.4-2.4.5-3.6-.9-1-2.6-1.3-3.6-.5Zm25.7 63.5a2.5 2.5 0 0 0-.5 3.6 2.5 2.5 0 0 0 3.6.5c1.2-1 1.4-2.5.5-3.7a2.5 2.5 0 0 0-3.6-.4ZM86.8 70a2.5 2.5 0 0 0-.5 3.7 2.5 2.5 0 0 0 3.7.5c1.1-1 1.3-2.5.4-3.6a2.5 2.5 0 0 0-3.6-.5ZM73.4 52.6a2.5 2.5 0 0 0-.5 3.6 2.5 2.5 0 0 0 3.6.5c1.2-.9 1.4-2.4.5-3.6a2.5 2.5 0 0 0-3.6-.5ZM60 35.1a2.5 2.5 0 0 0-.5 3.7 2.5 2.5 0 0 0 3.6.4c1.2-.9 1.4-2.4.5-3.6-.8-1-2.5-1.4-3.6-.5Zm43.3-33.3a2.5 2.5 0 0 0-.4 3.6 2.5 2.5 0 0 0 3.6.5c1.2-.9 1.4-2.4.5-3.6-.9-1-2.5-1.4-3.7-.5Zm-1 28.6a2.5 2.5 0 0 0-.5 3.6 2.5 2.5 0 0 0 3.6.5c1.2-.9 1.4-2.4.5-3.6a2.5 2.5 0 0 0-3.6-.5ZM88.8 13a2.5 2.5 0 0 0-.4 3.6 2.5 2.5 0 0 0 3.6.4c1.2-.9 1.4-2.4.5-3.6-.9-1-2.5-1.4-3.7-.5Zm10.4 103a2.5 2.5 0 0 0-.5 3.6 2.5 2.5 0 0 0 3.6.5c1.2-1 1.4-2.5.5-3.6-.8-1.1-2.5-1.3-3.6-.5ZM85.8 98.5a2.5 2.5 0 0 0-.5 3.6 2.5 2.5 0 0 0 3.6.5c1.2-.9 1.4-2.4.5-3.6a2.6 2.6 0 0 0-3.6-.5ZM72.4 81.1a2.5 2.5 0 0 0-.5 3.7 2.5 2.5 0 0 0 3.7.4c1.1-.8 1.3-2.4.4-3.6a2.6 2.6 0 0 0-3.6-.5ZM59 63.7a2.5 2.5 0 0 0-.5 3.6 2.5 2.5 0 0 0 3.6.5c1.2-1 1.4-2.5.5-3.6a2.6 2.6 0 0 0-3.6-.5ZM45.6 46.2a2.5 2.5 0 0 0-.5 3.6 2.5 2.5 0 0 0 3.6.5c1.2-.9 1.4-2.4.5-3.6-.8-1-2.6-1.3-3.6-.5Zm52.1 102a2.6 2.6 0 1 1 4-3.1 2.6 2.6 0 0 1-4 3.1Zm-13-21.1a2.5 2.5 0 0 0-.5 3.6 2.5 2.5 0 0 0 3.6.5c1.2-.9 1.4-2.4.5-3.6-.8-1-2.4-1.4-3.6-.5Zm-13.4-17.4a2.5 2.5 0 0 0-.5 3.6 2.5 2.5 0 0 0 3.6.5c1.2-1 1.4-2.5.5-3.7a2.5 2.5 0 0 0-3.6-.4ZM58 92.3a2.5 2.5 0 0 0-.5 3.6 2.5 2.5 0 0 0 3.6.5c1.1-1 1.3-2.5.4-3.6a2.5 2.5 0 0 0-3.6-.5ZM44 78.4a2.6 2.6 0 1 1 4.1-3.1 2.6 2.6 0 0 1-4 3.1ZM31 57.3a2.5 2.5 0 0 0-.4 3.7 2.5 2.5 0 0 0 3.6.4c1.2-.9 1.4-2.4.5-3.6-.8-1-2.5-1.3-3.6-.5Zm66 115.9a2.5 2.5 0 0 0-.4 3.6 2.5 2.5 0 0 0 3.6.5c1.2-.9 1.4-2.4.5-3.6a2.5 2.5 0 0 0-3.6-.5Zm-13.4-17.5a2.5 2.5 0 0 0-.4 3.7 2.5 2.5 0 0 0 3.6.4c1.1-.9 1.3-2.4.4-3.6a2.5 2.5 0 0 0-3.6-.5Zm-13.4-17.4a2.5 2.5 0 0 0-.5 3.6 2.5 2.5 0 0 0 3.7.5c1.1-1 1.3-2.5.4-3.7-.8-1-2.4-1.3-3.6-.4Zm-13.4-17.5a2.5 2.5 0 0 0-.5 3.6 2.5 2.5 0 0 0 3.6.5c1.2-.9 1.4-2.5.5-3.6a2.5 2.5 0 0 0-3.6-.5Zm-13.4-17.4a2.5 2.5 0 0 0-.4 3.6 2.5 2.5 0 0 0 3.6.5c1.1-.9 1.3-2.4.4-3.6a2.5 2.5 0 0 0-3.6-.5ZM30 86a2.5 2.5 0 0 0-.5 3.6 2.5 2.5 0 0 0 3.6.5c1.2-1 1.4-2.5.5-3.7A2.5 2.5 0 0 0 30 86ZM16.6 68.5A2.5 2.5 0 0 0 16 72a2.5 2.5 0 0 0 3.6.5c1.2-1 1.4-2.5.5-3.6a2.6 2.6 0 0 0-3.6-.5ZM96 201.6a2.5 2.5 0 0 0-.5 3.7 2.5 2.5 0 0 0 3.7.4c1.1-.9 1.3-2.4.4-3.6-.8-1-2.5-1.3-3.6-.5Zm-13.3-17.3a2.5 2.5 0 0 0-.5 3.6 2.5 2.5 0 0 0 3.6.5c1.2-1 1.4-2.5.5-3.7a2.6 2.6 0 0 0-3.6-.4Zm-13.5-17.5a2.5 2.5 0 0 0-.4 3.6 2.5 2.5 0 0 0 3.6.5c1.1-.9 1.3-2.4.4-3.6a2.6 2.6 0 0 0-3.6-.5Zm-13.4-17.5a2.5 2.5 0 0 0-.5 3.6 2.5 2.5 0 0 0 3.7.5c1.1-.9 1.3-2.4.4-3.6-.8-1-2.5-1.3-3.6-.5Zm-13.4-17.4a2.5 2.5 0 0 0-.5 3.6 2.5 2.5 0 0 0 3.6.5c1.2-1 1.4-2.5.5-3.7a2.6 2.6 0 0 0-3.6-.4ZM29 114.5a2.5 2.5 0 0 0-.4 3.6 2.5 2.5 0 0 0 3.6.5c1.1-1 1.3-2.5.4-3.6a2.6 2.6 0 0 0-3.6-.5ZM15.6 97a2.5 2.5 0 0 0-.5 3.6 2.5 2.5 0 0 0 3.7.5c1.1-.9 1.3-2.4.4-3.6a2.6 2.6 0 0 0-3.6-.5ZM2.2 79.5a2.5 2.5 0 0 0-.5 3.7 2.5 2.5 0 0 0 3.6.4c1.2-.8 1.4-2.4.5-3.6-.8-1-2.6-1.3-3.6-.5Z"/></g><defs><clipPath id="a"><path fill="#fff" d="M215.8 143.9 105.4.2.2 81.1l110.4 143.7z"/></clipPath></defs></svg>