<svg xmlns="http://www.w3.org/2000/svg" width="390" height="149" viewBox="0 0 390 149"><path d="M121.46,87.33H97.25V1.24H72.42L0,89.19l12.62,24.42H67.45v33.32h29.8V113.61h24.21Zm-86.14,0L67.45,48.15V87.33Z" fill="#1e212c"/><path d="M196.46,149q-18.42,0-31.66-8.9-13-9.1-20.07-25.66-6.82-16.77-6.83-39.94t6.83-39.73q7-16.77,20.07-25.66Q178,0,196.46,0t31.45,9.11Q241.16,18,248,34.77q7,16.54,7,39.73t-7,39.94Q241.16,131,227.91,140.1,214.88,149,196.46,149Zm0-26.7q13.86,0,21.31-12.41,7.65-12.63,7.65-35.39,0-23.39-7.65-36-7.46-12.62-21.31-12.62T174.94,38.49q-7.45,12.63-7.45,36,0,22.77,7.45,35.39Q182.59,122.31,196.46,122.3Z" fill="#1e212c"/><path d="M390,87.33H365.79V1.24H341l-72.42,88,12.62,24.42H336v33.32h29.79V113.61H390Zm-86.14,0L336,48.15V87.33Z" fill="#1e212c"/></svg>