<svg xmlns="http://www.w3.org/2000/svg" xmlns:xlink="http://www.w3.org/1999/xlink" width="1920" height="1486.61" viewBox="0 0 1920 1486.61"><defs><radialGradient id="a" cx="834.17" cy="868.13" r="1" gradientTransform="matrix(0, 743.3, 960, 0, -832445, -619297.36)" gradientUnits="userSpaceOnUse"><stop offset="0.29" stop-color="#dbd1e6"/><stop offset="0.56" stop-color="#4b1b81"/><stop offset="1" stop-color="#dbd1e6" stop-opacity="0"/></radialGradient><radialGradient id="f" cx="833.83" cy="867.64" r="0" xlink:href="#a"/><radialGradient id="q" cx="833.59" cy="868.25" r="0" xlink:href="#a"/><radialGradient id="r" cx="834.28" cy="867.25" r="0" xlink:href="#a"/><radialGradient id="t" cx="834.95" cy="868.14" r="0" xlink:href="#a"/><radialGradient id="y" cx="834.27" cy="867.55" r="0" xlink:href="#a"/><radialGradient id="ae" cx="834.35" cy="867.41" r="0" xlink:href="#a"/><radialGradient id="ai" cx="833.83" cy="867.17" r="0" xlink:href="#a"/><radialGradient id="ak" cx="833.75" cy="868.34" r="0" xlink:href="#a"/><radialGradient id="an" cx="834.57" cy="869.06" r="0" xlink:href="#a"/><radialGradient id="aq" cx="834.22" cy="868.92" r="0" xlink:href="#a"/><radialGradient id="as" cx="833.86" cy="868.82" r="0" xlink:href="#a"/><radialGradient id="au" cx="833.49" cy="867.67" r="0" xlink:href="#a"/><radialGradient id="aw" cx="833.4" cy="868.73" r="0" xlink:href="#a"/><radialGradient id="ba" cx="833.2" cy="868.44" r="0" xlink:href="#a"/><radialGradient id="bc" cx="834.79" cy="867.98" r="0" xlink:href="#a"/><radialGradient id="bf" cx="834.47" cy="867.26" r="0" xlink:href="#a"/></defs><path d="M907.74,1443.71a16.49,16.49,0,0,0,1.2,5.83,20.85,20.85,0,0,0,6.62,8.59,32.11,32.11,0,0,0,3.43,2.35l-1.07-.21a17.73,17.73,0,0,1-3-.93,19.35,19.35,0,0,1-12.49-19.18c-1.2-.79-2.37-1.59-3.57-2.42s-2.67-1.86-4-2.82c0,.48-.1,1-.1,1.48l-.14,2c-.13,1.52-.13,2.83-.13,4.07,0,5.25.58,10.59,2.39,15.15a17.26,17.26,0,0,0,9.54,9.9c4.39,1.72,9.57,1.41,14.27-.21l0-.07a29.81,29.81,0,0,0,11.66-7.48c-3.26-2.07-6.69-4.25-10.22-6.59C917.55,1450.2,912.71,1447.06,907.74,1443.71Z" transform="translate(0 0)" fill="none"/><path d="M1343.8,326.69a193.89,193.89,0,0,0-13.64-15.2,45.17,45.17,0,0,0-18.37-11.05c-2.92-.89-7.61-1.82-9.67,1.2C1298,307.75,1313.81,319.79,1343.8,326.69Z" transform="translate(0 0)" fill="none"/><path d="M979,1046.23c-2.47-1.13-6.48-2.43-8.6,0v0c-4.28,4.9,8.33,17.19,33.9,26.45A173.18,173.18,0,0,0,994,1057.9,39.9,39.9,0,0,0,979,1046.23Z" transform="translate(0 0)" fill="none"/><path d="M937.3,1433.74l0,0a17,17,0,0,0-10.19-6c-7.55-1.49-13.89,1.89-17,6.83a16.52,16.52,0,0,0-2.29,6.76c5.38,3.55,10.63,6.83,15.57,9.9,3.73,2.31,7.34,4.52,10.7,6.69a28.08,28.08,0,0,0,5.79-11.45A15.05,15.05,0,0,0,937.3,1433.74Z" transform="translate(0 0)" fill="none"/><polygon points="1254.54 37.71 1219.38 51.46 1219.73 53.78 1254.92 40.23 1254.54 37.71" fill="none"/><path d="M1070.94,1090c6.1,1.27,11.93,2.47,17.45,3.71a39.91,39.91,0,0,0,2.23-18,21.16,21.16,0,0,0-9.53-15.58v0a24.07,24.07,0,0,0-16.45-3.06c-10.73,1.69-17.59,9.24-19.3,17.27a22.64,22.64,0,0,0,.17,10C1054.35,1086.52,1062.89,1088.37,1070.94,1090Z" transform="translate(0 0)" fill="none"/><path d="M1421,337q10.53.81,20.08,1.75a45,45,0,0,0,0-20.49,24,24,0,0,0-12.86-16.19,27.14,27.14,0,0,0-18.88-1.17c-11.79,3.36-18.48,12.76-19.3,22a25.51,25.51,0,0,0,1.58,11.29C1401.83,335.37,1411.7,336.26,1421,337Z" transform="translate(0 0)" fill="none"/><polygon points="1407.1 162.22 1349.53 159.96 1348.47 163.76 1406.15 165.67 1407.1 162.22" fill="none"/><path d="M1370.67,339.73c.89,2.19,1.82,4.11,2.71,5.86,3.8,7.42,8.43,14.59,14.33,19.77s13.26,7.92,20.74,7.17,14.7-4.94,20.22-10.64l0,.14a47.87,47.87,0,0,0,11.25-19.11c-6.14-.62-12.62-1.24-19.34-2-8.7-.93-17.85-1.92-27.38-3.06a26.3,26.3,0,0,0,5.89,7.41,33.49,33.49,0,0,0,15.67,7.38,48.87,48.87,0,0,0,6.54.83s-.54.13-1.64.44A31,31,0,0,1,1383,336.57c-2.26-.31-4.52-.58-6.82-.89l-7.78-1.13c.34.75.65,1.47,1,2.19Z" transform="translate(0 0)" fill="none"/><path d="M1075.06,1112.7l0,0a41.54,41.54,0,0,0,11.93-15.55c-5.35-1.2-10.94-2.4-16.76-3.81-7.54-1.71-15.49-3.6-23.72-5.59a23.48,23.48,0,0,0,4.39,7.14,29.92,29.92,0,0,0,13,8.17,51.75,51.75,0,0,0,5.66,1.44l-1.51.2a24.6,24.6,0,0,1-4.46.24,27.36,27.36,0,0,1-25.84-19.39c-2-.51-3.91-1-5.89-1.51l-6.72-1.81c.2.68.38,1.33.58,2l.82,2.78c.55,2.06,1.17,3.81,1.75,5.46,2.54,6.89,5.83,13.69,10.46,18.87s10.79,8.41,17.44,8.55S1069.61,1117.1,1075.06,1112.7Z" transform="translate(0 0)" fill="none"/><path d="M860.71,377.91a16.6,16.6,0,0,0-3.39,4.91,20.9,20.9,0,0,0-1.61,10.81,34.13,34.13,0,0,0,.68,4.12s-.2-.31-.58-.93a17.82,17.82,0,0,1-1.44-2.85,19.45,19.45,0,0,1,5.24-22.44l-.72-4.29c-.24-1.62-.51-3.26-.75-4.91-.38.31-.75.65-1.13,1l-1.58,1.34c-1.16,1-2.15,1.85-3,2.71a41.75,41.75,0,0,0-9.32,12.25,17.52,17.52,0,0,0-.55,13.87c1.82,4.43,5.69,8,10.1,10.3v0a30,30,0,0,0,13.56,3.33c-.75-3.81-1.57-7.83-2.32-12.05C862.83,389.61,861.77,383.88,860.71,377.91Z" transform="translate(0 0)" fill="none"/><path d="M888.58,392.6h0A17.21,17.21,0,0,0,885.81,381c-4.18-6.52-11.06-8.86-16.78-7.66a16.21,16.21,0,0,0-6.51,3c1.2,6.35,2.43,12.49,3.66,18.23,1,4.32,1.82,8.47,2.61,12.46a28.29,28.29,0,0,0,12.36-3.71A15.09,15.09,0,0,0,888.58,392.6Z" transform="translate(0 0)" fill="none"/><path d="M760.41,933.91c-1,1-2.44,2.86-1.61,4.42,1.68,3.14,10.35-1,20-12.36a93.41,93.41,0,0,0-9.53,2.48A21.56,21.56,0,0,0,760.41,933.91Z" transform="translate(0 0)" fill="none"/><path d="M435.28,159.5c6.59-.35,12.94-.8,18.91-1.28,4.5-.38,8.82-.69,12.94-1A29.14,29.14,0,0,0,465,144.19a15.38,15.38,0,0,0-9.82-9v0a17.44,17.44,0,0,0-12.11,1.24c-7.18,3.38-10.44,10.07-10,16.07A16.38,16.38,0,0,0,435.28,159.5Z" transform="translate(0 0)" fill="none"/><path d="M788.69,917.16l1.58.11c1.16.1,2.15.13,3.11.13A31.52,31.52,0,0,0,805,915.64a13.35,13.35,0,0,0,7.67-7.35,16.41,16.41,0,0,0-.07-11.08l0,.1a22.9,22.9,0,0,0-5.66-9.11c-1.64,2.48-3.32,5.14-5.14,7.87-2.33,3.52-4.76,7.25-7.37,11.11a12.17,12.17,0,0,0,4.49-.89,16,16,0,0,0,6.62-5.11,23.92,23.92,0,0,0,1.82-2.66s-.07.27-.18.83a11.48,11.48,0,0,1-.72,2.35,15.69,15.69,0,0,1-6.13,7.38,15.13,15.13,0,0,1-8.67,2.18L789.75,914c-.72,1-1.44,2.07-2.19,3.1C787.93,917.09,788.31,917.16,788.69,917.16Z" transform="translate(0 0)" fill="none"/><path d="M800.24,895c1.82-2.86,3.53-5.63,5.21-8.25a21.64,21.64,0,0,0-8.74-4.59,11.49,11.49,0,0,0-9.77,1.93,13.13,13.13,0,0,0-4.7,7.87A12.05,12.05,0,0,0,792.56,907C795.3,902.83,797.88,898.79,800.24,895Z" transform="translate(0 0)" fill="none"/><polygon points="1533.17 214.89 1543.56 185.29 1543.59 185.29 1541.77 184.16 1531.52 213.86 1533.17 214.89" fill="none"/><polygon points="774.45 1261.29 776.15 1264.42 818.39 1226.01 818.42 1226.01 816.54 1222.61 774.45 1261.29" fill="none"/><path d="M422.52,165.19c.82,1.34,1.58,2.45,2.33,3.48,3.19,4.35,6.86,8.41,11.15,11.1a17.71,17.71,0,0,0,13.94,2.42c4.7-1.24,8.82-4.69,11.73-8.9v0a30.69,30.69,0,0,0,5.19-13.35c-4,.28-8.14.55-12.5.76-5.59.31-11.53.62-17.7.9a16.78,16.78,0,0,0,4.52,4.13,21.31,21.31,0,0,0,10.71,3.07,30.21,30.21,0,0,0,4.26-.13s-.35.13-1,.44a21.37,21.37,0,0,1-3.09,1.07,19.79,19.79,0,0,1-22-8.31c-1.48,0-2.92.11-4.43.14-1.68,0-3.36.1-5.08.1.27.45.55.9.82,1.31Z" transform="translate(0 0)" fill="none"/><path d="M865.09,335a28.62,28.62,0,0,0,3.32-13.11c0-1.92-.27-4.94-2.46-5.63-4.42-1.41-8.84,10.37-7.54,29.76C860.81,342.49,863,338.85,865.09,335Z" transform="translate(0 0)" fill="none"/><path d="M872.89,1399.73c-1.37-1.34-3.73-3.17-5.72-2.07-4,2.24,1.4,13.49,16.15,25.87a118.49,118.49,0,0,0-3.29-12.38A28.63,28.63,0,0,0,872.89,1399.73Z" transform="translate(0 0)" fill="none"/><path d="M404.09,159.67a130.51,130.51,0,0,0-10.23-8.28A28.54,28.54,0,0,0,381,146.26c-1.93-.28-5-.38-6,1.75C373,152.36,384.32,158.39,404.09,159.67Z" transform="translate(0 0)" fill="none"/><path d="M381.16,221.48c2.27-2.15,5.43-5.91,3.74-9.26v0c-3.39-6.77-22.21,1.44-43.42,24.86A202.05,202.05,0,0,0,362,232.46,46.77,46.77,0,0,0,381.16,221.48Z" transform="translate(0 0)" fill="none"/><path d="M1840.6,681.12c-.65,1.92-1.33,5,.64,6.44,4,2.85,12.18-7.51,17.19-27.36a123.1,123.1,0,0,0-10.26,8.85A30.24,30.24,0,0,0,1840.6,681.12Z" transform="translate(0 0)" fill="none"/><path d="M1871.46,623.65a21.79,21.79,0,0,0,5.12-10.29,36.86,36.86,0,0,0,.65-4.35s.1.38.27,1.09a18,18,0,0,1,.51,3.33,21.24,21.24,0,0,1-3.1,12.83,21,21,0,0,1-9.42,8c-.23,1.51-.44,3-.68,4.53-.27,1.71-.58,3.42-.85,5.17.51-.2,1-.37,1.47-.58l2-.82c1.47-.59,2.76-1.17,3.92-1.72,5-2.4,9.79-5.38,13.3-9.22a18.36,18.36,0,0,0,5.08-13.72c-.34-5-3-9.84-6.71-13.61h-.11a31.31,31.31,0,0,0-12.45-7.78c-.47,4.08-1,8.37-1.6,12.82-.72,5.76-1.53,11.87-2.42,18.18A16.92,16.92,0,0,0,1871.46,623.65Z" transform="translate(0 0)" fill="none"/><polygon points="132 984.74 97.5 1031.09 99.83 1033.81 134.57 987.74 134.53 987.74 132 984.74" fill="none"/><path d="M1866.45,609c.48-4.67,1-9.09,1.47-13.34a29.74,29.74,0,0,0-13.54-.34,15.82,15.82,0,0,0-10.92,8.29v0a18.17,18.17,0,0,0-1.06,12.55c2,7.88,8.19,12.48,14.29,13.17a17.36,17.36,0,0,0,7.47-.9C1865.05,621.7,1865.8,615.18,1866.45,609Z" transform="translate(0 0)" fill="none"/><polygon points="250.13 809.04 253.47 809.66 251.16 759.79 248.14 759.2 250.13 809 250.13 809.04" fill="none"/><path d="M1793.71,491.29a22.37,22.37,0,0,0-4.77,9.44c-.34,1.47-.65,3.83.92,4.72,3.13,1.85,8.48-6.4,10.83-21.41A85.69,85.69,0,0,0,1793.71,491.29Z" transform="translate(0 0)" fill="none"/><path d="M290.25,298.89c5.19-7.31,10.72-15,16.48-23a27.2,27.2,0,0,0-9.64,1.57,34.31,34.31,0,0,0-14.49,10.36,53.87,53.87,0,0,0-4.05,5.48s.13-.59.41-1.71a33.72,33.72,0,0,1,1.71-4.89,32.49,32.49,0,0,1,13.57-15.25,32.86,32.86,0,0,1,18.71-4c1.4-1.88,2.78-3.76,4.22-5.67,1.61-2.12,3.26-4.28,4.91-6.43-.83-.07-1.61-.17-2.44-.24l-3.36-.34c-2.48-.28-4.64-.41-6.66-.48-8.59-.31-17.38.27-25,3s-13.8,7.94-16.86,15-2.88,15.63-.55,23.43v0a48.34,48.34,0,0,0,11.54,19.63C282.39,310,286.2,304.53,290.25,298.89Z" transform="translate(0 0)" fill="none"/><polygon points="1705.43 772.6 1711.54 729.49 1709 728.5 1702.66 771.51 1705.43 772.6" fill="none"/><polygon points="495.22 300.36 526.68 260.46 524.5 257.78 493.21 297.92 495.22 300.36" fill="none"/><path d="M1377,1180.1c-1.4,1-3.45,2.82-2.8,4.8l0,0c1.26,4,12.1,1.08,25.53-10a98.8,98.8,0,0,0-11.45.79A25.3,25.3,0,0,0,1377,1180.1Z" transform="translate(0 0)" fill="none"/><polygon points="1637.66 526.89 1634.46 525.73 1628.83 574.98 1631.75 576.04 1637.66 526.89" fill="none"/><path d="M293.48,301.12c-4,6-7.9,11.72-11.64,17.13a46.22,46.22,0,0,0,18.4,10.25,24.66,24.66,0,0,0,21-3.42l0,0a28.07,28.07,0,0,0,10.51-16.38c2.91-12.24-2.24-22.91-10.13-28.27a26.65,26.65,0,0,0-10.92-4.21C304.54,284.81,298.8,293.18,293.48,301.12Z" transform="translate(0 0)" fill="none"/><polygon points="1607.29 405.4 1589.72 380.05 1587.98 380.78 1605.38 406.2 1607.29 405.4" fill="none"/><path d="M1797.21,461.34a12.57,12.57,0,0,0,5.48-1.16c.21-5.1.31-10,.35-14.57,0-3.45.1-6.77.17-9.95a21.57,21.57,0,0,0-10,.68,11.89,11.89,0,0,0-7.49,6.91l0,0a13.57,13.57,0,0,0,.1,9.37C1787.82,458.29,1792.65,461.27,1797.21,461.34Z" transform="translate(0 0)" fill="none"/><path d="M1431.07,1143.64c2.69-3,5.25-5.8,7.74-8.47a25.34,25.34,0,0,0-9.07-7.26,13.28,13.28,0,0,0-11.63.1l0,0a15.41,15.41,0,0,0-7.06,8.12c-2.59,6.53-.71,12.85,3.1,16.5a14,14,0,0,0,5.56,3.26C1423.7,1151.7,1427.52,1147.56,1431.07,1143.64Z" transform="translate(0 0)" fill="none"/><path d="M1432.6,1145.13c-3.41,3.62-7,7.4-10.84,11.33a14.7,14.7,0,0,0,5.35-.07,18.62,18.62,0,0,0,8.7-4.48,29.84,29.84,0,0,0,2.66-2.68s-.14.31-.38.9a14.49,14.49,0,0,1-1.33,2.57,17.85,17.85,0,0,1-8.59,7.26,17.57,17.57,0,0,1-10.43.63c-.92.94-1.84,1.84-2.76,2.78l-3.21,3.12c.45.11.85.24,1.3.35l1.77.45c1.3.35,2.45.62,3.55.83a36.7,36.7,0,0,0,13.73.49,15.52,15.52,0,0,0,10.37-6.84c2.28-3.65,2.9-8.37,2.28-12.89h0a27.48,27.48,0,0,0-4.57-11.8C1437.78,1139.65,1435.26,1142.36,1432.6,1145.13Z" transform="translate(0 0)" fill="none"/><path d="M1806.13,470.3a31.78,31.78,0,0,0,2.8-1.54,32.7,32.7,0,0,0,9.19-7.76,13.57,13.57,0,0,0,2.79-10.47A16.61,16.61,0,0,0,1815,441l0,0a23.14,23.14,0,0,0-9.74-4.89c-.1,3.08-.17,6.26-.3,9.61-.17,4.31-.34,8.89-.55,13.61a13.39,13.39,0,0,0,3.44-3.18,16.5,16.5,0,0,0,3.06-8,26.75,26.75,0,0,0,.17-3.24,7.53,7.53,0,0,1,.28.78,15.55,15.55,0,0,1,.61,2.43,15.91,15.91,0,0,1-1.43,9.71,15.6,15.6,0,0,1-6.4,6.53c-.07,1.13-.14,2.23-.21,3.39s-.17,2.6-.27,3.9c.34-.21.68-.38,1-.55Z" transform="translate(0 0)" fill="none"/><path d="M1752.27,1111.39v-.14l-82.46,14.48.75,4.29,74.24-13c-2,4.46-1.33,10.68,2.22,16.1,4.88,7.43,13.34,10.44,18.84,6.74s6-12.79,1.09-20.22C1763.16,1113.88,1757.29,1110.8,1752.27,1111.39Z" transform="translate(0 0)" fill="url(#a)"/><path d="M1204.33,218.49l36.33,48.21v0l2.48-1.86-32.7-43.39c3.49-.14,7.25-2.61,9.53-6.63,3.11-5.53,2.25-11.92-1.93-14.26s-10.08.28-13.23,5.84c-2.41,4.3-2.45,9-.41,12.06Z" transform="translate(0 0)" fill="url(#a)"/><path d="M1072,1420.39c.59-6.79-3.08-12.62-8.24-13.07s-9.76,4.7-10.39,11.49c-.45,5.25,1.63,9.88,5,12v.11l57,31.14,0,0,1.63-2.92-51.35-28C1068.94,1429.38,1071.54,1425.33,1072,1420.39Z" transform="translate(0 0)" fill="url(#a)"/><path d="M636.06,1060.58l75.42-83.92-.07,0-4.29-3.89-67.89,75.54c-1.53-6.32-7.36-12.31-15.58-15-11.3-3.69-22.72.2-25.49,8.69s4.17,18.39,15.46,22.09c8.73,2.87,17.46,1.2,22.31-3.59Z" transform="translate(0 0)" fill="url(#a)"/><path d="M687.07,1210.66c1.7,6.72,7.2,11.14,12.25,9.85s7.78-7.75,6.07-14.47c-1.3-5.2-4.88-9-8.74-9.85v-.1l-65-11.11-.58,3.33,58.52,10C686.93,1201,685.8,1205.77,687.07,1210.66Z" transform="translate(0 0)" fill="url(#a)"/><polygon points="494.06 489 494.04 488.99 494.02 489 494.06 489" fill="url(#f)"/><path d="M448.73,453.43c3.48-1.3,6.43-5,7.4-9.79,1.3-6.6-1.69-12.72-6.64-13.72s-10.08,3.6-11.35,10.2c-1,5.1.52,9.89,3.58,12.25l-.07.06L494,489l1.88-2.65Z" transform="translate(0 0)" fill="url(#a)"/><polygon points="965.03 732.8 965.03 732.84 965.03 732.8 965.03 732.8" fill="url(#a)"/><path d="M985.7,632.58c4.83,4.44,13.09,6.19,21.49,3.86,11.55-3.21,19-12.82,16.59-21.47s-13.74-13.06-25.33-9.85c-8.91,2.46-15.36,8.76-16.73,15.46h-.17L965,732.8l5.79.86Z" transform="translate(0 0)" fill="url(#a)"/><path d="M1416.23,937.21l-3.4-3.58L1350,992.84c-.86-5.46-5.46-10.89-12.25-13.72-9.38-3.89-19.33-1.36-22.29,5.6s2.3,15.8,11.68,19.69c7.21,3,14.76,2.18,19.22-1.54l.11.11,69.83-65.77Z" transform="translate(0 0)" fill="url(#a)"/><path d="M768.07,51.11c-.55,5.48,2.4,11.94,8.12,16.41,7.85,6.15,17.93,6.25,22.46.24s1.81-15.89-6.07-22C786.51,41,779.17,39.82,774,42.3l-.07-.14-82.58,45.9v0l2.33,4.33Z" transform="translate(0 0)" fill="url(#a)"/><path d="M866.92,699c-8.1-.1-15,3.54-17.8,8.81l-.13-.07-41.45,89.67,4.64,2.13,37.29-80.73c2.94,4.89,9.45,8.36,17.07,8.46,10.46.14,19.05-6.08,19.18-13.89S877.41,699.17,866.92,699Z" transform="translate(0 0)" fill="url(#a)"/><polygon points="687.79 534.81 687.72 534.75 687.69 534.81 687.79 534.81" fill="url(#a)"/><path d="M647.78,401l.24.24a10.91,10.91,0,0,0,2.46,2.2l58,51.92-32.27,60L625,469.55c4.24-1.95,8-6.28,9.86-12,3-9.25-.24-18.56-7.12-20.79s-14.94,3.47-17.92,12.71c-2.47,7.7-.61,15.4,4,19l59.1,53,14.76,13.28,39.4-71.62L660.9,403.82c4.21-2,8-6.29,9.76-12,3-9.24-.24-18.55-7.16-20.79s-14.9,3.47-17.91,12.72c-2.13,6.59-1.07,13.16,2.22,17.25Z" transform="translate(0 0)" fill="url(#a)"/><path d="M927.15,210.88c.06,4,2.12,8.39,5.87,11.8,6.16,5.5,14.46,6.26,18.56,1.62s2.46-12.87-3.65-18.41c-4.38-3.92-9.85-5.4-14.12-4.23l-.24.07A9.3,9.3,0,0,0,931,202.9l-60.19,27.28-35.34-46L888.66,160c0,4,2.12,8.46,5.91,11.87,6.12,5.54,14.46,6.26,18.56,1.65s2.5-12.87-3.66-18.41c-5.12-4.61-11.68-5.81-16.13-3.44L832,179.5l-15.42,6.95h-.07l41.87,55.67Z" transform="translate(0 0)" fill="url(#a)"/><path d="M1022.47,297.57l39.64,12.78,9.88,3.21,3.61-43-44.4-14.29a10.6,10.6,0,0,0,2.15-7.87c-.55-5.08-4.09-8.9-7.88-8.49s-6.4,4.88-5.86,10c.41,3.64,2.32,6.56,4.74,7.84l.13.06a5.88,5.88,0,0,0,1.64.52L1065,270.84l-2.65,35.9L1028,295.68a10.45,10.45,0,0,0,2.18-7.94c-.55-5.08-4.06-8.9-7.87-8.48s-6.41,4.87-5.86,10C1016.92,293.51,1019.48,296.81,1022.47,297.57Z" transform="translate(0 0)" fill="url(#a)"/><polygon points="1072.06 313.58 1071.99 313.56 1071.99 313.62 1072.06 313.58" fill="url(#q)"/><polygon points="114.97 827.5 114.97 827.54 115.04 827.53 114.97 827.5" fill="url(#r)"/><path d="M91.92,920.77c6.48-1.84,11-6.65,11.36-11.56h0l9.3-65.3h0L115,827.54l-68,5.69-2.44,17.06h0l-8,56.09c-3.33-2-8.06-2.6-12.86-1.27-7.79,2.22-12.77,8.7-11.12,14.54s9.33,8.73,17.12,6.55c5.56-1.57,9.64-5.32,10.94-9.49h.07v-.24a8.12,8.12,0,0,0,.42-2.69l9.12-64,56.64-5.29L98.85,901c-3.33-2-8.1-2.66-12.93-1.3-7.79,2.19-12.77,8.7-11.12,14.5S84.13,923,91.92,920.77Z" transform="translate(0 0)" fill="url(#a)"/><polygon points="968 1327.98 967.95 1327.91 967.89 1327.98 968 1327.98" fill="url(#t)"/><path d="M966.76,1213.26a16.88,16.88,0,0,0,10.25-8.48c4-7.31,2.85-15.65-2.65-18.71s-13.21.45-17.23,7.76c-2.89,5.22-3.06,10.92-1,14.9h0l.17.24a10,10,0,0,0,1.72,2.26l40.52,53.28-37.18,45.24-35.81-47.06a16.83,16.83,0,0,0,10.32-8.52c4-7.31,2.86-15.65-2.61-18.7s-13.21.44-17.23,7.76c-3.37,6.07-3.06,12.87.31,16.71h0l41.31,54.34L968,1327.92l45.1-53.8Z" transform="translate(0 0)" fill="url(#a)"/><polygon points="986.86 948.08 986.81 948.04 986.75 948.15 986.86 948.08" fill="url(#a)"/><path d="M945.49,903.49c-1.28,4-.32,8.06,2.18,10L986.81,948l20.66-37.52-8.18-7.24-26.92-23.7a10.23,10.23,0,0,0,5.13-6.31c1.56-4.86-.17-9.72-3.81-10.89s-7.87,1.83-9.42,6.69a9.75,9.75,0,0,0,1.21,9l.1.13a5.17,5.17,0,0,0,1.32,1.14l30.69,27.09L980.65,938l-27.12-24a10.32,10.32,0,0,0,5.19-6.3c1.56-4.86-.14-9.72-3.81-10.89S947.05,898.63,945.49,903.49Z" transform="translate(0 0)" fill="url(#a)"/><path d="M449.06,758.85c-3.4,1.13-5.85,3.61-6.54,6.23v.17a6.17,6.17,0,0,0-.17,1.72l-3.89,40.32-35.1,4.89,3.44-35.63a10.14,10.14,0,0,0,8.09.44c4.78-1.58,7.71-5.82,6.53-9.4s-6.05-5.23-10.84-3.61c-4,1.34-6.64,4.48-6.74,7.57l-5,51.36,42.08-5.42,4.44-46.07a10.23,10.23,0,0,0,8,.44c4.78-1.58,7.71-5.82,6.5-9.4S453.85,757.26,449.06,758.85Z" transform="translate(0 0)" fill="url(#a)"/><polygon points="398.85 823.03 398.86 822.91 398.74 822.93 398.85 823.03" fill="url(#y)"/><path d="M622.84,122.45c4.9,3,10.68,2.4,12.92-1.23s.07-9-4.8-12c-3.49-2.13-7.43-2.4-10.2-1.1l-.14.07a6.62,6.62,0,0,0-1.59,1.1l-37.81,26-30-26.62,33.42-23A11.45,11.45,0,0,0,590.17,93c4.91,3,10.68,2.4,12.93-1.23s.07-9-4.81-12c-4.07-2.47-8.74-2.47-11.51-.31l-48.25,33.13h-.17l35.71,32.32L584.16,138l33.14-22.79A11.73,11.73,0,0,0,622.84,122.45Z" transform="translate(0 0)" fill="url(#a)"/><path d="M1719.05,339.33l16-44a13.9,13.9,0,0,0,10.31,3.13c6.75-.51,11.91-4.93,11.56-9.89s-6.16-8.59-12.91-8.11c-4.81.34-8.79,2.71-10.55,5.84h0l-.07.17a8.15,8.15,0,0,0-.76,2.14l-18.27,50.2-47.24-5.06,16.13-44.36a13.91,13.91,0,0,0,10.38,3.16c6.75-.51,11.91-4.93,11.56-9.88s-6.16-8.6-12.91-8.12c-5.64.4-10.1,3.56-11.24,7.47l-18.62,51.19h0l-4.67,12.87-.14,0,56.65,6.59Z" transform="translate(0 0)" fill="url(#a)"/><path d="M1124.87,1232.08a10.74,10.74,0,0,0,5.48-6.4c1.73-5,.07-10.08-3.67-11.35s-8.22,1.72-10,6.67a10.1,10.1,0,0,0,1,9.39l.14.14a5.49,5.49,0,0,0,1.31,1.2l31.18,28.79L1132,1292.7l-27.54-25.41a10.71,10.71,0,0,0,5.54-6.4c1.73-5,.07-10.07-3.67-11.34s-8.21,1.72-9.94,6.7c-1.46,4.16-.52,8.32,2,10.39l31.77,29.36,8,7.4,0,0,22.38-38.41Z" transform="translate(0 0)" fill="url(#a)"/><path d="M324.17,622.91c51.63,59.57,43.92,50.56,51.11,59.36h0l58.06-28.78c-1.14-1.35-14.38-16.5-43.75-50.36a15.36,15.36,0,0,0,8.74-8.31c3.19-6.87,1.61-14.4-3.51-16.81s-11.9,1.21-15.1,8.07c-2.82,6-2,12.53,1.75,15.67l37,42.69-47.6,24.44-38.79-44.76a15.61,15.61,0,0,0,8.7-8.29c3.2-6.86,1.61-14.39-3.51-16.8s-11.87,1.2-15.1,8.07C319.36,613.21,320.32,619.8,324.17,622.91Z" transform="translate(0 0)" fill="url(#a)"/><path d="M323.74,918.59c-51.76-39.71-44.1-33.75-51.36-39.68l-42.29,33.16c1.17.89,14.43,11,43.9,33.59a12.87,12.87,0,0,0-5.73,8.21c-1.45,6.11,1.06,12,5.63,13.09s9.45-3,10.89-9.12c1.27-5.35-.48-10.52-4-12.46l-37.18-28.52L278.11,889l39,29.9a12.71,12.71,0,0,0-5.66,8.22c-1.45,6.14,1.06,12,5.63,13.08s9.45-3,10.92-9.11C329.27,925.63,327.38,920.42,323.74,918.59Z" transform="translate(0 0)" fill="url(#a)"/><path d="M272.34,878.89l0,0,0,0Z" transform="translate(0 0)" fill="url(#ae)"/><path d="M794.32,537.93c-1.27,6,4.23,12.18,12.28,13.85,7.06,1.47,13.7-1,16.11-5.69l35.78-49.33,37.65,43.9L858.6,592.41c-2-3.31-6-6-10.91-7.06-8.05-1.67-15.59,1.84-16.83,7.81s4.23,12.18,12.29,13.85c7.15,1.47,13.86-1.12,16.17-5.93,50-68.84,42.36-58.54,49.86-68.23l0-.1L864.31,479c-1.14,1.54-13.8,19.14-42.19,58.3a16.74,16.74,0,0,0-10.94-7.13C803.13,528.45,795.59,532,794.32,537.93Z" transform="translate(0 0)" fill="url(#a)"/><path d="M1048.08,95.65c47.54-2.23,40.41-1.92,47.27-2.06h0l8.15-37.78c-1.08,0-13.2.65-40.24,1.92a9.12,9.12,0,0,0-.66-7.17c-2.05-4-6.19-6.07-9.26-4.56s-3.89,6-1.84,10c1.81,3.54,5.18,5.53,8.07,4.94l34.08-1.58-6.3,31.3-35.75,1.68a9,9,0,0,0-.66-7.14c-2-4-6.19-6.07-9.26-4.56s-3.89,6-1.84,10C1041.68,94.31,1045.16,96.3,1048.08,95.65Z" transform="translate(0 0)" fill="url(#a)"/><path d="M1919.93,789.36,1871.36,756c-.55,1.51-6.74,18.63-20.64,56.71a14,14,0,0,0-10.49-3.28c-6.88.48-12.15,5-11.8,10.15s6.22,8.89,13.1,8.41c6-.41,10.84-3.93,11.7-8.27l17.54-48,40.49,27L1892.86,849a14.1,14.1,0,0,0-10.42-3.24c-6.88.48-12.15,5-11.8,10.11s6.22,8.89,13.1,8.41c6.13-.41,10.94-4.06,11.7-8.48,24.49-67,20.74-56.94,24.56-66.48Z" transform="translate(0 0)" fill="url(#a)"/><path d="M42.18,493.35h0v-.07Z" transform="translate(0 0)" fill="url(#ai)"/><path d="M89.69,540.69a13.18,13.18,0,0,0,1.56,10c3.2,5.46,9.09,7.94,13.17,5.53s4.77-8.83,1.57-14.3c-2.79-4.82-7.66-7.29-11.57-6.19l-46.66,5.5,5.65-44.63,48.9-5.74a13,13,0,0,0,1.6,10c3.2,5.47,9.09,8,13.14,5.54s4.76-8.8,1.56-14.3c-2.85-4.88-7.82-7.33-11.74-6.12-65,7.66-55.32,6.57-64.67,7.39l-7.58,53.87C36.09,547.05,52.7,545,89.69,540.69Z" transform="translate(0 0)" fill="url(#a)"/><path d="M1159.37,436.08v0Z" transform="translate(0 0)" fill="url(#ak)"/><path d="M1225.22,411.44a13.53,13.53,0,0,0,10.19,2.85c6.6-.68,11.53-5.22,11-10.12s-6.29-8.34-12.88-7.69c-5.8.58-10.29,4.15-11,8.34l-15.33,46.78-39.82-24.71,16.09-49.05a13.7,13.7,0,0,0,10.16,2.82c6.59-.69,11.53-5.22,11-10.13s-6.25-8.33-12.88-7.68c-5.87.58-10.39,4.25-11,8.51-21.39,65.17-18.14,55.48-21.47,64.73l47.78,30.57C1207.65,465.22,1213,448.54,1225.22,411.44Z" transform="translate(0 0)" fill="url(#a)"/><path d="M228.85,1125.77c-.55,1.64-6.7,20.44-20.57,62.22a15.33,15.33,0,0,0-11.48-3.25c-7.42.72-13,5.81-12.47,11.38s7,9.44,14.46,8.72c6.53-.65,11.62-4.62,12.41-9.33l17.48-52.68,44.77,28L255.1,1226.1a15.48,15.48,0,0,0-11.41-3.21c-7.45.75-13,5.81-12.47,11.38s7,9.44,14.47,8.72c6.59-.65,11.71-4.75,12.4-9.57,24.39-73.53,20.64-62.49,24.49-73h0Z" transform="translate(0 0)" fill="url(#a)"/><path d="M1849.17,1040.87l-.06,0h0Z" transform="translate(0 0)" fill="url(#an)"/><path d="M1834.44,958.81a16.29,16.29,0,0,0,5.41-11.25c.61-7.83-3.61-14.54-9.36-15s-10.92,5.54-11.53,13.37c-.54,6.85,2.62,12.88,7.32,14.57L1877,988.35l-36.77,41.13-53.14-29.22a16,16,0,0,0,5.34-11.22c.62-7.83-3.6-14.54-9.35-15s-10.92,5.51-11.53,13.37c-.55,7,2.72,13,7.52,14.61,70.57,38.84,60.15,33,70.08,38.84l45.2-49.16C1892.75,990.77,1874.65,980.94,1834.44,958.81Z" transform="translate(0 0)" fill="url(#a)"/><path d="M1617.49,1201.74c-1.44.72-17.52,9.25-53.52,28.08a14,14,0,0,0-5.5-9.47c-5.39-4.25-12.33-4.42-15.52-.41s-1.41,10.73,4,15c4.7,3.74,10.61,4.36,14.19,1.72l45.34-23.73L1618,1260l-47.54,24.89a14,14,0,0,0-5.46-9.39c-5.4-4.25-12.34-4.42-15.53-.41s-1.44,10.73,4,15c4.78,3.77,10.79,4.32,14.33,1.58,63.27-33.12,53.72-28.18,63-32.68l-.07,0Z" transform="translate(0 0)" fill="url(#a)"/><polygon points="1716.82 781.7 1716.72 781.66 1716.72 781.66 1716.82 781.7" fill="url(#aq)"/><path d="M1657.52,758.38l47.4,18.6,11.8,4.68,7.82-51.69-53.09-20.79a12.55,12.55,0,0,0,3.22-9.33c-.27-6.19-4.25-11.08-8.92-10.87s-8.23,5.4-8,11.59c.2,4.41,2.29,8.14,5.18,9.84l.17.11a8.16,8.16,0,0,0,2,.78L1705,726.93l-6.35,43-34.19-13.4a12.55,12.55,0,0,0,3.26-9.4c-.28-6.19-4.25-11.08-8.92-10.88s-8.23,5.41-8,11.59C1651.08,753.05,1653.89,757.25,1657.52,758.38ZM1709,728.5l2.54,1-6.11,43.11-2.77-1.09Z" transform="translate(0 0)" fill="url(#a)"/><polygon points="1621.28 515.82 1621.24 515.85 1621.27 515.86 1621.28 515.82" fill="url(#as)"/><path d="M1628.28,580l47,16.83a14.25,14.25,0,0,0-3.4,10.74c.51,7,5.22,12.44,10.54,12.1s9.24-6.38,8.76-13.43c-.38-5-2.89-9.17-6.22-11l-.21-.1a7.88,7.88,0,0,0-2.3-.82l-46-16.52,5.9-49.15,39.49,14.18a14.25,14.25,0,0,0-3.43,10.8c.52,7.06,5.22,12.44,10.54,12.1s9.24-6.37,8.73-13.43c-.42-5.86-3.78-10.56-8-11.75L1635,520.83l-13.71-5-7.31,59Zm6.18-54.3,3.2,1.16L1631.75,576l-2.92-1.06Z" transform="translate(0 0)" fill="url(#a)"/><polygon points="518.28 242.12 518.17 242.12 518.23 242.18 518.28 242.12" fill="url(#au)"/><path d="M522.08,341.54a14.71,14.71,0,0,0-8.71,7.59c-3.32,6.42-2.11,13.63,2.73,16.14s11.48-.72,14.83-7.14c2.39-4.61,2.39-9.55.49-12.92h0l-.14-.2a7.61,7.61,0,0,0-1.55-1.93l-31.4-38.73,31.47-39.91,26.93,33.24a14.66,14.66,0,0,0-8.78,7.63c-3.32,6.42-2.11,13.63,2.73,16.14s11.48-.72,14.83-7.15c2.77-5.35,2.36-11.23-.65-14.49l-37.35-46.09-9.31-11.54-38,47.74Zm4.6-81.08-31.46,39.9-2-2.44,31.29-40.14Z" transform="translate(0 0)" fill="url(#a)"/><polygon points="1534.96 176.28 1534.96 176.28 1534.99 176.21 1534.96 176.28" fill="url(#aw)"/><path d="M1557.11,233.68a9,9,0,0,0-3.58,6.17c-.65,4.42,1.51,8.4,4.82,8.92s6.56-2.68,7.22-7.1a8.54,8.54,0,0,0-2.31-7.65l-.1-.1a4.7,4.7,0,0,0-1.31-.83l-26-16.49L1546.21,187l22.35,14.13a9.05,9.05,0,0,0-3.61,6.2c-.66,4.43,1.51,8.4,4.81,8.92s6.57-2.68,7.22-7.1c.55-3.67-.86-7-3.26-8.33l-31-19.62-7.77-4.93-12.59,35.42Zm-13.52-48.39h0l-10.39,29.6-1.65-1,10.25-29.7Z" transform="translate(0 0)" fill="url(#a)"/><path d="M1556.88,382.67c-3.11-3.07-7.44-3.67-9.72-1.29s-1.57,6.8,1.53,9.91a8.23,8.23,0,0,0,7.33,2.59h.14a5,5,0,0,0,1.36-.6l27.6-11.34,17.39,25.41-23.67,9.74a9,9,0,0,0-2.83-6.46c-3.1-3.07-7.44-3.66-9.72-1.29s-1.57,6.81,1.53,9.92c2.6,2.58,6,3.35,8.39,2.2l41.07-16.87h0l-20.8-30.65-8.6,3.53-28.2,11.62A9.24,9.24,0,0,0,1556.88,382.67Zm32.84-2.62,17.57,25.35-1.91.8L1588,380.78Z" transform="translate(0 0)" fill="url(#a)"/><path d="M1220.41,104c3.27-2,5.16-5.15,5.22-8h0v-.17a6.16,6.16,0,0,0-.28-1.81l-5.18-36.43L1255.4,44l4.47,31.25a11,11,0,0,0-8.48,1.54c-4.57,2.83-6.53,7.88-4.4,11.29s7.59,3.86,12.16,1c3.81-2.36,5.76-6.25,5.08-9.45l-7.72-54.16L1214.2,41.53l6.9,48.55a11,11,0,0,0-8.45,1.57c-4.56,2.83-6.52,7.88-4.39,11.29S1215.85,106.8,1220.41,104Zm-1-52.5,35.16-13.75.38,2.52-35.19,13.55Z" transform="translate(0 0)" fill="url(#a)"/><polygon points="1256.5 25.39 1256.51 25.45 1256.57 25.43 1256.5 25.39" fill="url(#ba)"/><path d="M192.62,748.52l.21.11a8.62,8.62,0,0,0,2.38.45l48,9.16,2,49.8L204,800.19a14.48,14.48,0,0,0,1.68-11.27c-1.62-6.92-7.12-11.57-12.32-10.36s-8.09,7.82-6.47,14.74c1.34,5.79,5.4,9.88,9.71,10.43l57.09,10.92,14.35,2.79-2.16-59.89L251,754.69l-49.08-9.34a14.56,14.56,0,0,0,1.65-11.19c-1.61-6.92-7.12-11.57-12.32-10.37s-8.09,7.82-6.47,14.75C185.91,743.46,189,747.22,192.62,748.52Zm58.54,11.27,2.31,49.87-3.34-.62v0l-2-49.81Z" transform="translate(0 0)" fill="url(#a)"/><polygon points="812.65 1203.97 812.66 1203.99 812.68 1203.97 812.65 1203.97" fill="url(#bc)"/><path d="M852.87,1277.21l-32.16-58.52h0l-8.08-14.7-50.92,45.92,36,65.54a16.54,16.54,0,0,0-11,6.77c-4.89,6.54-4.92,14.79-.07,18.5s12.77,1.41,17.68-5.09c3.49-4.64,4.48-10.18,3-14.3h0l-.1-.24a9.56,9.56,0,0,0-1.33-2.44l-27-49.21,42.27-38.37,23.18,42.19c-3.89.38-8.09,2.78-11.13,6.81-4.88,6.53-4.92,14.78-.1,18.5s12.77,1.41,17.65-5.09c4.06-5.44,4.74-12.07,2.05-16.27ZM818.39,1226l-42.24,38.41-1.7-3.13,42.09-38.68,1.88,3.4Z" transform="translate(0 0)" fill="url(#a)"/><path d="M1407.34,182.91l4.64-17h0l15.26-55.95c3.1,2.46,7.77,3.66,12.78,2.94,8.14-1.23,14-7.18,13-13.3s-8.28-10.09-16.39-8.86c-5.79.89-10.39,4.17-12.23,8.21h-.07l-.07.23a10.14,10.14,0,0,0-.75,2.71l-15,54.75L1351,154.35l12.81-47a16.56,16.56,0,0,0,12.84,3c8.14-1.23,14-7.22,13.08-13.31s-8.27-10.08-16.38-8.85c-6.78,1-11.89,5.33-12.91,10.29h0l-17.78,65.12h0l-4.46,16.34h0ZM1349.53,160l57.57,2.26-.95,3.45-57.68-1.91Z" transform="translate(0 0)" fill="url(#a)"/><polygon points="124.52 967.14 124.56 967.18 124.59 967.14 124.52 967.14" fill="url(#bf)"/><path d="M124.56,967.18l-41.91,55.19L94,1035.82l37.41,44.1a16.76,16.76,0,0,0-9.71,8.85c-3.63,7.39-2,15.56,3.53,18.25s13-1.09,16.67-8.48c2.57-5.28,2.47-10.9.2-14.68h0l-.17-.23a9.23,9.23,0,0,0-1.82-2.15l-36.62-43.21L138.3,992.2l31.41,37a16.53,16.53,0,0,0-9.77,8.89c-3.63,7.38-2,15.56,3.53,18.25s13-1.09,16.67-8.48c3-6.17,2.36-12.81-1.13-16.41Zm-24.73,66.63-2.33-2.72L132,984.74l2.54,3h0Z" transform="translate(0 0)" fill="url(#a)"/><path d="M1464.34,520.35c-4.29,3.36-5.78,8.71-3.35,12v0c2.47,3.28,7.91,3.25,12.2-.1,3.75-2.9,5.37-7.39,4-10.67l-11.48-49.35-2.57.62,10.57,45.45C1471,517.32,1467.38,518,1464.34,520.35Z" transform="translate(0 0)" fill="url(#a)"/><path d="M862.2,1103.35c-.9,8.58,3.6,16.1,10.08,16.79s12.44-5.75,13.33-14.36c.79-7.52-2.57-14.23-7.78-16.24l-69.28-39.73-2.13,3.66,63.83,36.61C866.1,1092.2,862.85,1097.2,862.2,1103.35Z" transform="translate(0 0)" fill="url(#a)"/><path d="M1275.47,1159.17c3.57,7.2,10.77,10.86,16.12,8.18s6.76-10.76,3.19-18c-3.12-6.33-9-9.92-14.06-8.87L1207.4,1144l.17,3.93,67.56-3.23C1273,1148.45,1272.9,1154,1275.47,1159.17Z" transform="translate(0 0)" fill="url(#a)"/><path d="M479.18,931.82c3.09,2.59,8.12,3.49,13.18,1.93,7.09-2.21,11.54-8.33,9.93-13.72v0c-1.64-5.4-8.69-8-15.81-5.78-6.23,1.9-10.41,6.88-10.24,11.69L468,994.62l3.6.45Z" transform="translate(0 0)" fill="url(#a)"/><path d="M161,336.69c4.22,3.76,11.27,5.21,18.5,3.21C189.57,337.07,196,328.61,194,321h0c-2.13-7.63-12-11.49-22.07-8.66C163,314.76,157,321.6,157,328.36L143,424.57l5.07.76Z" transform="translate(0 0)" fill="url(#a)"/><path d="M1419.07,1308.07c5-9.08,3.64-19.54-3.09-23.39h0c-6.72-3.81-16.27.48-21.3,9.56-4.41,8-3.87,17,.85,21.67l56.91,76.86,4-3.06-52.41-70.81C1409.59,1318.52,1415.47,1314.57,1419.07,1308.07Z" transform="translate(0 0)" fill="url(#a)"/><path d="M1314,604.87c7.29-1.27,12.71-6.22,13.16-11.61l18.76-75.33-4-1-17.27,69.39c-3.11-3.3-8.67-5-14.64-4-8.33,1.48-14.2,7.66-13.09,13.88v.07C1298,602.5,1305.63,606.35,1314,604.87Z" transform="translate(0 0)" fill="url(#a)"/><path d="M1180.38,612c-1,2.5-.51,5.92,1.55,8.83,2.88,4.07,7.72,5.64,10.8,3.49h0c3.09-2.16,3.22-7.22.34-11.33-2.54-3.59-6.55-5.24-9.57-4.11l-45.32,9,.48,2.39Z" transform="translate(0 0)" fill="url(#a)"/><path d="M1698.72,916.53c1.66,4.93,6.13,8,10,6.78s5.68-6.15,4-11.08c-1.46-4.34-5.06-7.19-8.56-7l-49.74-5.1-.28,2.52,45.83,4.7C1698.17,909.48,1697.54,913,1698.72,916.53Z" transform="translate(0 0)" fill="url(#a)"/><path d="M545.33,1332c4.25-7,3.54-15.17-1.63-18.39h0c-5.17-3.22-12.81-.21-17.06,6.74-3.73,6.07-3.63,13.16-.07,17l42.07,62.14,3.26-2.26L533.14,1340C537.48,1339.87,542.28,1337,545.33,1332Z" transform="translate(0 0)" fill="url(#a)"/><path d="M1003.6,512.14c7.49,1.3,14.42-1.44,17.06-6.3l46.74-69.3a2.17,2.17,0,0,0-3.6-2.43l-.1.14c-2.23,1.92-4.88,3.35-14.86,3.11l-1.92-.07c-8.17-.3-23.38-.85-26.53,12.47v-.06a2.2,2.2,0,0,0,1.64,2.63,2.16,2.16,0,0,0,2.61-1.61c2.16-9,12.08-9.45,22.1-9.11l2,.07a47.54,47.54,0,0,0,10.33-.62L1021,497.55c-1.85-4.45-6.8-8.22-13.14-9.35-8.82-1.54-16.92,2.53-18.09,9.14S994.78,510.57,1003.6,512.14Z" transform="translate(0 0)" fill="url(#a)"/><path d="M754.27,1402.29l-91.69-2.82a2.4,2.4,0,0,0-2.47,2.31,2.37,2.37,0,0,0,2.33,2.45h.17c3.09,1,5.94,2.55,11.57,11.86l1.06,1.81c4.49,7.68,12.83,21.95,27,17.16l0-.07a2.38,2.38,0,1,0-1.58-4.48c-9.68,3.26-15.86-5.65-21.35-15l-1.1-1.87a52.68,52.68,0,0,0-6.58-9.14l74.7,2.31c-3,4.28-3.67,11-1,17.47,3.71,9,12.26,14.07,19,11.35s9.37-12.27,5.66-21.27C766.94,1406.68,760.35,1401.92,754.27,1402.29Z" transform="translate(0 0)" fill="url(#a)"/><path d="M575.42,572.83a2.45,2.45,0,0,0-2.81,2V575c-1.42,3-3.44,5.67-13.69,10l-1.95.82c-8.42,3.45-24.07,9.87-21.2,25a2.43,2.43,0,0,0,2.84,1.95,2.46,2.46,0,0,0,1.93-2.87c-2-10.29,7.94-15.28,18.25-19.52l2-.85A55.46,55.46,0,0,0,571,584.17l-12.88,75.52c-3.92-3.72-10.65-5.29-17.58-3.55-9.63,2.46-16,10.39-14.19,17.7s11.12,11.28,20.78,8.82c8.18-2.09,14-8.1,14.43-14.32l15.82-92.68A2.43,2.43,0,0,0,575.42,572.83Z" transform="translate(0 0)" fill="url(#a)"/><path d="M710.45,300.3a1.56,1.56,0,0,0,2.07.9,1.58,1.58,0,0,0,.9-2.08V299c-.28-2.16,0-4.38,4.25-10.36l.83-1.14c3.6-4.86,10.24-13.9,3.46-21.4v0a1.61,1.61,0,1,0-2.38,2.18c4.59,5.11.72,11.36-3.67,17.3l-.86,1.18a36.57,36.57,0,0,0-3.95,6.57l-18.46-46.93c3.49.73,7.81-.69,11.17-4.1,4.63-4.72,5.5-11.39,2-14.86s-10.13-2.47-14.76,2.26c-3.91,4-5.15,9.37-3.29,13.05Z" transform="translate(0 0)" fill="url(#a)"/><path d="M363.57,1119.36l7.24-102.42a2.67,2.67,0,1,0-5.33-.38v.21c-1.23,3.41-3.13,6.52-13.84,12.37l-2.08,1.09c-8.81,4.68-25.23,13.36-20.47,29.5v0a2.68,2.68,0,1,0,5.13-1.54c-3.23-11,7-17.46,17.86-23.2l2.14-1.13a60.71,60.71,0,0,0,10.58-7l-5.92,83.45c-4.7-3.62-12.21-4.61-19.59-1.91-10.27,3.73-16.36,13.06-13.6,20.78s13.4,11,23.67,7.28C358.1,1133.34,363.74,1126.2,363.57,1119.36Z" transform="translate(0 0)" fill="url(#a)"/><path d="M17.77,710.32a2,2,0,0,0,.62-3.87c-8.25-1.34-9.25-10.22-9.56-19.19l-.07-1.77a43.59,43.59,0,0,0-1.21-9.18l53,30.49c-3.87,1.93-6.94,6.59-7.53,12.32-.83,8,3.35,15,9.32,15.61s11.53-5.35,12.36-13.33c.69-6.76-2.17-12.81-6.73-14.88L3,669.13a2,2,0,0,0-2.7.72,2,2,0,0,0,.73,2.7l.14.07c1.86,1.86,3.31,4.14,3.73,13.08l.07,1.73c.24,7.32.72,21,12.84,22.92Z" transform="translate(0 0)" fill="url(#a)"/><path d="M225.92,603.48c9.08.44,11.26,9.88,12.7,19.52l.27,1.91a48.26,48.26,0,0,0,2.42,9.77L180.2,608.32c4-2.59,6.69-8,6.62-14.24-.1-8.72-5.49-15.74-12-15.7s-11.81,7.18-11.74,15.9c.07,7.39,4,13.56,9.15,15.23l75,32.36a2.07,2.07,0,0,0,2.79-1.13,2.1,2.1,0,0,0-1.12-2.79l-.14-.07c-2.25-1.8-4.09-4-5.63-13.66l-.27-1.83c-1.2-7.87-3.38-22.52-16.72-23.17h0a2.13,2.13,0,0,0-.17,4.26Z" transform="translate(0 0)" fill="url(#a)"/><path d="M542.29,1095.78a2.57,2.57,0,0,0-3.3,1.47l-.07.18c-2,2.77-4.68,5.06-16.09,7.42l-2.2.45c-9.39,1.81-26.82,5.17-26.92,21.12l0-.07a2.56,2.56,0,0,0,5.12,0c.07-10.85,11.28-13.93,22.76-16.13l2.27-.44a57.41,57.41,0,0,0,11.63-3.39L507,1180.58c-3.3-4.58-9.9-7.56-17.43-7.19-10.45.55-18.6,7.33-18.22,15.14s9.21,13.69,19.66,13.18c8.88-.48,16.06-5.41,17.78-11.64l35-91A2.54,2.54,0,0,0,542.29,1095.78Z" transform="translate(0 0)" fill="url(#a)"/><path d="M671.09,843a2,2,0,0,0-1.1-2.75l-.14-.07c-2.2-1.77-4-4-5.56-13.42L664,825c-1.16-7.73-3.29-22.11-16.48-22.75l0,0a2.08,2.08,0,1,0-.21,4.16c9,.44,11.13,9.7,12.53,19.17l.28,1.87a45.62,45.62,0,0,0,2.4,9.6l-60.33-25.94c3.91-2.52,6.59-7.84,6.56-14-.07-8.54-5.4-15.46-11.85-15.42s-11.68,7-11.61,15.59c.07,7.26,3.88,13.32,9,15l74,31.85A2.12,2.12,0,0,0,671.09,843Z" transform="translate(0 0)" fill="url(#a)"/><path d="M1105.55,816.26c-8.9-.31-16.3,5-16.54,11.75s6.79,12.57,15.69,12.88c7.54.25,14-3.5,15.93-8.76l36.3-76.32a2.23,2.23,0,0,0-1-2.95,2.15,2.15,0,0,0-2.89,1l-.07.14c-1.93,2.25-4.31,4.06-14.19,5.23l-1.9.21c-8.08.87-23.09,2.46-24.35,16.28l0,0a2.17,2.17,0,1,0,4.32.38c.85-9.42,10.56-11.22,20.47-12.3l1.94-.21a46.39,46.39,0,0,0,10.08-2.08l-29.57,62.19C1117.33,819.55,1111.93,816.5,1105.55,816.26Z" transform="translate(0 0)" fill="url(#a)"/><path d="M1448.63,817.34a8.2,8.2,0,1,0,11.52,1.24l0,0A8.26,8.26,0,0,0,1448.63,817.34Z" transform="translate(0 0)" fill="url(#a)"/><path d="M1475.83,795.55a8.2,8.2,0,1,0,11.53,1.27A8.19,8.19,0,0,0,1475.83,795.55Z" transform="translate(0 0)" fill="url(#a)"/><path d="M1558.88,814a74.94,74.94,0,0,1,8.2,2.47,1.33,1.33,0,0,0,1.65-.69,1.27,1.27,0,0,0-.66-1.68,77.28,77.28,0,0,0-8.4-2.88,121.57,121.57,0,0,0-22.92-4.15,99.61,99.61,0,0,0-33,2.64,87.27,87.27,0,0,0-34.24,17.57,47.08,47.08,0,0,0-12.42,16.4,41.07,41.07,0,0,0-3.32,20.24l0,.07a45,45,0,0,0,5.94,18.43,43.58,43.58,0,0,0,11.76,13.21,36.88,36.88,0,0,0,14.34,6.48c23.16,4.6,36.3-13.86,26.18-26.49a15.27,15.27,0,0,0-26.9,12.53,22.65,22.65,0,0,1-6.52-2.82,33.63,33.63,0,0,1-14.71-22.58,31.67,31.67,0,0,1,1.4-15.71,38.81,38.81,0,0,1,9.3-14.24A72.05,72.05,0,0,1,1489,822a81.9,81.9,0,0,1,16.19-7.1,94.69,94.69,0,0,1,31.32-4.12A103.65,103.65,0,0,1,1558.88,814Z" transform="translate(0 0)" fill="url(#a)"/><path d="M1244.06,1346.22a7,7,0,1,0,6.11,7.76h0A7,7,0,0,0,1244.06,1346.22Z" transform="translate(0 0)" fill="url(#a)"/><path d="M1273.36,1349.79a7,7,0,1,0,6.07,7.75A6.95,6.95,0,0,0,1273.36,1349.79Z" transform="translate(0 0)" fill="url(#a)"/><path d="M1313.5,1410a103,103,0,0,0-11.08-16.36,84.35,84.35,0,0,0-21.17-18.5,72.6,72.6,0,0,0-14.58-6.79,73.78,73.78,0,0,0-16.4-3.57A39.43,39.43,0,0,0,1233,1367a34.78,34.78,0,0,0-14.27,10h.07a38,38,0,0,0-7.69,14.51,36.77,36.77,0,0,0-1,15,30.91,30.91,0,0,0,4.56,12.56c10.94,16.78,29.91,13.83,31.59.21a13,13,0,0,0-11.32-14.48,12.86,12.86,0,0,0-12.21,5.56,18.31,18.31,0,0,1-2.16-5.63,28.48,28.48,0,0,1,5-22.3,26.37,26.37,0,0,1,10.4-8.44,32.4,32.4,0,0,1,14.13-2.78,61,61,0,0,1,15.09,2.4,68.68,68.68,0,0,1,13.9,5.63,80.74,80.74,0,0,1,21.06,16.57,89.29,89.29,0,0,1,11.36,15.47,65,65,0,0,1,3.36,6.45,1.05,1.05,0,0,0,1.37.59,1.1,1.1,0,0,0,.62-1.41A66.81,66.81,0,0,0,1313.5,1410Z" transform="translate(0 0)" fill="url(#a)"/><path d="M1351.75,752.77a6.52,6.52,0,1,0-7,6A6.51,6.51,0,0,0,1351.75,752.77Z" transform="translate(0 0)" fill="url(#a)"/><path d="M1342.62,786.4a6.52,6.52,0,1,0-6-7A6.5,6.5,0,0,0,1342.62,786.4Z" transform="translate(0 0)" fill="url(#a)"/><path d="M1283.55,757.92a12.15,12.15,0,0,0,7.34-22.44,17.6,17.6,0,0,1,5.18-2.27,26.57,26.57,0,0,1,21.1,3.71,24.79,24.79,0,0,1,8.37,9.37,31,31,0,0,1,3.22,13.14,58.54,58.54,0,0,1-1.61,14.24,67.11,67.11,0,0,1-4.66,13.24,75.67,75.67,0,0,1-14.62,20.45,83.1,83.1,0,0,1-14,11.29,58.55,58.55,0,0,1-5.9,3.43,1,1,0,0,0-.48,1.34,1,1,0,0,0,1.33.51,69.08,69.08,0,0,0,6.21-3.33,97.7,97.7,0,0,0,14.86-11.08,78.77,78.77,0,0,0,16.39-20.62A67.93,67.93,0,0,0,1332,775a69.4,69.4,0,0,0,2.64-15.51,37.41,37.41,0,0,0-2.77-16.12,32.71,32.71,0,0,0-10-12.94v0a35.42,35.42,0,0,0-13.93-6.55,34.74,34.74,0,0,0-14.07-.34,29.29,29.29,0,0,0-11.56,4.8C1267.12,739.29,1270.72,757,1283.55,757.92Z" transform="translate(0 0)" fill="url(#a)"/><path d="M1526.33,1051.55a4.94,4.94,0,0,0-5.25,4.59,4.88,4.88,0,0,0,4.56,5.22,4.92,4.92,0,0,0,.69-9.81Z" transform="translate(0 0)" fill="url(#a)"/><path d="M1527.77,1030.73a4.9,4.9,0,1,0-.65,9.77l0,0a4.92,4.92,0,0,0,.69-9.81Z" transform="translate(0 0)" fill="url(#a)"/><path d="M1543.75,1072.65l-.07.1a26.72,26.72,0,0,0,10.54,4.84,26.36,26.36,0,0,0,10.6.17,21.85,21.85,0,0,0,8.68-3.7c11.42-8.34,8.61-21.62-1.07-22.27a9.12,9.12,0,0,0-5.38,16.91,13.89,13.89,0,0,1-3.88,1.75,20,20,0,0,1-15.92-2.67,18.67,18.67,0,0,1-6.34-7,23.09,23.09,0,0,1-2.51-9.85,43.78,43.78,0,0,1,1.13-10.74,51,51,0,0,1,3.43-10,56.76,56.76,0,0,1,10.88-15.47,63.94,63.94,0,0,1,10.46-8.61,46.51,46.51,0,0,1,4.43-2.61.76.76,0,0,0-.65-1.37,45.29,45.29,0,0,0-4.67,2.54,74.56,74.56,0,0,0-11.11,8.4,59.59,59.59,0,0,0-12.22,15.61,52.52,52.52,0,0,0-6.1,22.2,28.4,28.4,0,0,0,2.19,12.11A24.53,24.53,0,0,0,1543.75,1072.65Z" transform="translate(0 0)" fill="url(#a)"/><path d="M889.52,14.08a4.91,4.91,0,0,0,3.78-5.84h0a4.93,4.93,0,1,0-3.81,5.84Z" transform="translate(0 0)" fill="url(#a)"/><path d="M910,9.72A4.91,4.91,0,1,0,904.14,6,4.88,4.88,0,0,0,910,9.72Z" transform="translate(0 0)" fill="url(#a)"/><path d="M878.65,52.47a22.18,22.18,0,0,0,5.93,7.34c11.19,8.69,23.16,2.34,21.14-7.17A9.15,9.15,0,0,0,888,52.09a14.13,14.13,0,0,1-2.75-3.26,20.18,20.18,0,0,1-1.82-16,18.75,18.75,0,0,1,5-8,22.61,22.61,0,0,1,8.81-5.11,42.64,42.64,0,0,1,10.64-1.86,49.18,49.18,0,0,1,10.56.55,56.76,56.76,0,0,1,17.88,6.21,63.3,63.3,0,0,1,11.15,7.72,45.41,45.41,0,0,1,3.74,3.54.77.77,0,0,0,1.16-1A48.7,48.7,0,0,0,948.56,31a69.5,69.5,0,0,0-11.18-8.37A60.22,60.22,0,0,0,919,15.14,51,51,0,0,0,907.71,14a49.5,49.5,0,0,0-11.77,1.41,28.09,28.09,0,0,0-11.05,5.46,24.13,24.13,0,0,0-7.2,10,27.47,27.47,0,0,0-1.79,11.46A26.47,26.47,0,0,0,878.65,52.47Z" transform="translate(0 0)" fill="url(#a)"/><path d="M1468.63,686.72a4.79,4.79,0,0,0-3.44-5.86v0a4.81,4.81,0,1,0,3.44,5.9Z" transform="translate(0 0)" fill="url(#a)"/><path d="M1473.8,667a4.8,4.8,0,1,0-5.86,3.43v0A4.78,4.78,0,0,0,1473.8,667Z" transform="translate(0 0)" fill="url(#a)"/><path d="M1472.54,681.68a27.79,27.79,0,0,0-.14,12,24.05,24.05,0,0,0,5.49,10.67h0a26.55,26.55,0,0,0,9.19,6.59,25.12,25.12,0,0,0,10.12,2.09,20.87,20.87,0,0,0,9-2c12.49-5.9,12.22-19.11,3.09-21.51A8.92,8.92,0,0,0,1501,704.8a12.88,12.88,0,0,1-4,1,19.57,19.57,0,0,1-14.75-5.49,18.35,18.35,0,0,1-4.8-7.86,22.28,22.28,0,0,1-.58-9.92,44.1,44.1,0,0,1,3.05-10.09,47.08,47.08,0,0,1,5.15-8.95,55.26,55.26,0,0,1,13.27-12.83,61.65,61.65,0,0,1,11.6-6.32,38.73,38.73,0,0,1,4.7-1.68.74.74,0,0,0,.51-.89.72.72,0,0,0-.89-.55,51.46,51.46,0,0,0-4.94,1.58,68,68,0,0,0-12.21,6,57.6,57.6,0,0,0-14.58,12.73,49.77,49.77,0,0,0-6,9.3A51.31,51.31,0,0,0,1472.54,681.68Z" transform="translate(0 0)" fill="url(#a)"/><path d="M294.06,439.3a4.53,4.53,0,1,0-5.56,3.19A4.56,4.56,0,0,0,294.06,439.3Z" transform="translate(0 0)" fill="url(#a)"/><path d="M312.58,444.31a4.53,4.53,0,1,0-5.55,3.2A4.51,4.51,0,0,0,312.58,444.31Z" transform="translate(0 0)" fill="url(#a)"/><path d="M283.08,450.77a21.3,21.3,0,0,1,9.37-.49,40.26,40.26,0,0,1,9.46,3,44.76,44.76,0,0,1,8.41,4.91,53,53,0,0,1,12,12.63,57.2,57.2,0,0,1,5.86,11,38.59,38.59,0,0,1,1.54,4.46.73.73,0,0,0,.83.52.66.66,0,0,0,.51-.83,48.41,48.41,0,0,0-1.44-4.7A67.44,67.44,0,0,0,324,469.67a54.47,54.47,0,0,0-11.9-13.86,47,47,0,0,0-8.75-5.73,46.46,46.46,0,0,0-10.22-3.81,26.51,26.51,0,0,0-11.36-.21,22.21,22.21,0,0,0-10.08,5.12v0a24.41,24.41,0,0,0-6.28,8.65,24.06,24.06,0,0,0-2.06,9.54,20.68,20.68,0,0,0,1.78,8.51c5.46,11.8,17.94,11.66,20.31,3.05a8.44,8.44,0,0,0-5.93-10.36,8.34,8.34,0,0,0-8.37,2.43,11.37,11.37,0,0,1-.86-3.84,18.57,18.57,0,0,1,5.28-13.9A16.87,16.87,0,0,1,283.08,450.77Z" transform="translate(0 0)" fill="url(#a)"/><path d="M359.85,1275.57v0a4.92,4.92,0,1,0,1.89,6.69A4.91,4.91,0,0,0,359.85,1275.6Z" transform="translate(0 0)" fill="url(#a)"/><path d="M365.24,1266a4.92,4.92,0,1,0-1.89-6.7A4.91,4.91,0,0,0,365.24,1266Z" transform="translate(0 0)" fill="url(#a)"/><path d="M418.76,1248.81a47.66,47.66,0,0,0-5.32.31,71.1,71.1,0,0,0-13.66,2.84,60,60,0,0,0-17.77,8.89A52.61,52.61,0,0,0,367,1278.28a28.33,28.33,0,0,0-3.22,11.91,24.5,24.5,0,0,0,2.71,12v.07a27.12,27.12,0,0,0,7.44,8.92,26.19,26.19,0,0,0,9.51,4.7,22.15,22.15,0,0,0,9.43.37c13.89-2.64,17.05-15.85,8.61-20.58a9.14,9.14,0,0,0-12.14,13,13.72,13.72,0,0,1-4.26-.11,20.11,20.11,0,0,1-13.24-9.23,18.87,18.87,0,0,1-2.74-9,22.93,22.93,0,0,1,1.95-10,43,43,0,0,1,5.63-9.23,48,48,0,0,1,7.41-7.58,57.93,57.93,0,0,1,16.46-9.33,64.12,64.12,0,0,1,13.14-3.3,50.79,50.79,0,0,1,5.12-.48.76.76,0,0,0,.75-.75A.79.79,0,0,0,418.76,1248.81Z" transform="translate(0 0)" fill="url(#a)"/><path d="M1143.11,966a8.66,8.66,0,1,0,5.24,11.08A8.7,8.7,0,0,0,1143.11,966Z" transform="translate(0 0)" fill="url(#a)"/><path d="M1160.7,942.54a8.65,8.65,0,1,0-11,5.22h0A8.67,8.67,0,0,0,1160.7,942.54Z" transform="translate(0 0)" fill="url(#a)"/><path d="M1221.05,988.59a16.09,16.09,0,0,0-17.26,26.11,22.45,22.45,0,0,1-7.41,1.06,35.39,35.39,0,0,1-25.69-12.14,32.6,32.6,0,0,1-7.41-14.93,41,41,0,0,1,.48-17.91,77.39,77.39,0,0,1,7.06-17.67,84.37,84.37,0,0,1,10.64-15.3,100.47,100.47,0,0,1,25.86-21,109.46,109.46,0,0,1,21.86-9.54,73,73,0,0,1,8.74-2.3,1.34,1.34,0,0,0-.41-2.64,84.28,84.28,0,0,0-9.12,2.09,126.44,126.44,0,0,0-22.88,9A105.28,105.28,0,0,0,1177.27,934a90.44,90.44,0,0,0-12.21,15.81,93.65,93.65,0,0,0-8.82,18.91,49.33,49.33,0,0,0-2.09,21.61,43.23,43.23,0,0,0,8.2,20h0a47,47,0,0,0,15.5,13.28,46.15,46.15,0,0,0,17.87,5.35,38.52,38.52,0,0,0,16.47-2.12C1235.52,1018.2,1237.1,994.35,1221.05,988.59Z" transform="translate(0 0)" fill="url(#a)"/><path d="M751.48,661.71a5.44,5.44,0,1,0-7.69-.41A5.47,5.47,0,0,0,751.48,661.71Z" transform="translate(0 0)" fill="url(#a)"/><path d="M727,669.05a5.44,5.44,0,1,0,7.69.41A5.47,5.47,0,0,0,727,669.05Z" transform="translate(0 0)" fill="url(#a)"/><path d="M744.93,644.62a27.28,27.28,0,0,0,1.44-13.52V631a29.78,29.78,0,0,0-12.93-20.28,24.46,24.46,0,0,0-9.75-3.74c-15.5-2.19-23.5,10.54-16.33,18.53a10.18,10.18,0,0,0,14.34.76,10,10,0,0,0,3-10.06,14.64,14.64,0,0,1,4.42,1.62,22.27,22.27,0,0,1,10.6,14.37,20.84,20.84,0,0,1-.34,10.47,25.38,25.38,0,0,1-5.63,9.78,49.1,49.1,0,0,1-9.15,7.65,55.49,55.49,0,0,1-10.47,5.32,63.62,63.62,0,0,1-20.58,3.91,71.56,71.56,0,0,1-15-1.24,45.74,45.74,0,0,1-5.52-1.34.86.86,0,0,0-1.06.52.85.85,0,0,0,.51,1.1,48.73,48.73,0,0,0,5.66,1.57,81.29,81.29,0,0,0,15.34,1.89,66.56,66.56,0,0,0,21.78-3,56.41,56.41,0,0,0,11.49-5.11,57.66,57.66,0,0,0,10.53-7.83A30.86,30.86,0,0,0,744.93,644.62Z" transform="translate(0 0)" fill="url(#a)"/><path d="M1781.79,453.71a15.41,15.41,0,0,0,5.79,9.54,15,15,0,0,0,9.77,3,15.35,15.35,0,0,0,5.17-1.13c0,.86-.06,1.68-.13,2.53-.1,1.65-.21,3.29-.34,4.93a37.62,37.62,0,0,0-5.08,3.62,26.8,26.8,0,0,0-8.75,12.07c-4.73,14.43-1.6,22.57,2.29,23.05,8.61.58,10.65-13.95,12.25-29.13a47.19,47.19,0,0,1,4.46-3.22l2.83-1.78c.92-.58,1.94-1.26,3-2a35.46,35.46,0,0,0,10.18-10.81,19.27,19.27,0,0,0,2.38-14.91,20.39,20.39,0,0,0-8.4-11.42,29.44,29.44,0,0,0-11.89-4.58c.07-2.19.14-4.34.31-6.33-.14-5.4,2.69-9.61,6.23-10.49a6.5,6.5,0,0,1,6,1.81,2.3,2.3,0,0,0-.48-.17,4.39,4.39,0,0,0-5.35,3.21,4.41,4.41,0,1,0,8.55,2.16,4,4,0,0,0,.07-.59V423a4.5,4.5,0,0,0-.58-2.74,4.35,4.35,0,0,0-.27-.58,8.36,8.36,0,0,0-2.76-3,8.53,8.53,0,0,0-5.41-1.34,8.26,8.26,0,0,0-6,3.76,10.66,10.66,0,0,0-1.6,3.73,34.41,34.41,0,0,0-.48,4.17c-.14,2-.2,4.11-.27,6.23a27.71,27.71,0,0,0-10.8,1.23,16.45,16.45,0,0,0-9,7.79,17.53,17.53,0,0,0-1.64,11.46Zm8.07,51.74c-1.57-.89-1.26-3.25-.92-4.72a22.37,22.37,0,0,1,4.77-9.44,85.69,85.69,0,0,1,7-7.25C1798.34,499.05,1793,507.3,1789.86,505.45ZM1804,467.7c.07-1.16.14-2.26.21-3.39a15.6,15.6,0,0,0,6.4-6.53,15.91,15.91,0,0,0,1.43-9.71,15.55,15.55,0,0,0-.61-2.43,7.53,7.53,0,0,0-.28-.78,26.75,26.75,0,0,1-.17,3.24,16.5,16.5,0,0,1-3.06,8,13.39,13.39,0,0,1-3.44,3.18c.21-4.72.38-9.3.55-13.61.13-3.35.2-6.53.3-9.61a23.14,23.14,0,0,1,9.74,4.89l0,0a16.61,16.61,0,0,1,5.92,9.57,13.57,13.57,0,0,1-2.79,10.47,32.7,32.7,0,0,1-9.19,7.76,31.78,31.78,0,0,1-2.8,1.54l-1.43.75c-.34.17-.68.34-1,.55C1803.78,470.3,1803.85,469,1804,467.7Zm-18.31-24.49,0,0a11.89,11.89,0,0,1,7.49-6.91,21.57,21.57,0,0,1,10-.68c-.07,3.18-.14,6.5-.17,9.95,0,4.58-.14,9.47-.35,14.57a12.57,12.57,0,0,1-5.48,1.16c-4.56-.07-9.39-3-11.47-8.76A13.57,13.57,0,0,1,1785.64,443.21Z" transform="translate(0 0)" fill="url(#a)"/><path d="M891.66,393.32a22.2,22.2,0,0,0-1.16-14.76l0,0a19.67,19.67,0,0,0-9.89-10.26,19.22,19.22,0,0,0-13-1,19.94,19.94,0,0,0-6.13,2.88c-.17-1.06-.38-2.12-.55-3.19-.34-2.06-.65-4.15-1-6.24a45.58,45.58,0,0,0,5.31-5.94,34.13,34.13,0,0,0,7.53-17.54c1.89-19.32-4.34-28.59-9.31-28.07-10.92,1.71-9.38,20.42-7.16,39.77a61.2,61.2,0,0,1-4.69,5.29l-3,3c-1,1-2.05,2.13-3.15,3.36A45.82,45.82,0,0,0,835.74,377c-2.09,6.14-2,13.49,1.2,19.25a26,26,0,0,0,13.73,11.88,38,38,0,0,0,16.13,2.37c.52,2.78,1,5.45,1.41,8,1.67,6.7-.66,12.77-4.83,14.86a8.18,8.18,0,0,1-8-.58c.21,0,.45.07.66.07a5.65,5.65,0,1,0-5.48-5.77,2.88,2.88,0,0,0,.06.72v.07a5.6,5.6,0,0,0,1.51,3.23,7.24,7.24,0,0,0,.48.65,10.55,10.55,0,0,0,4.28,3,11,11,0,0,0,7.16.14,10.49,10.49,0,0,0,6.37-6.38,13.39,13.39,0,0,0,1-5.08,43.94,43.94,0,0,0-.59-5.36c-.41-2.5-.89-5.15-1.4-7.86a35.64,35.64,0,0,0,13.15-4.6A21.08,21.08,0,0,0,891.66,393.32ZM866,316.27c2.19.69,2.5,3.71,2.46,5.63A28.62,28.62,0,0,1,865.09,335c-2.09,3.84-4.28,7.48-6.68,11C857.11,326.64,861.53,314.86,866,316.27Zm-13.33,87.45v0c-4.41-2.31-8.28-5.87-10.1-10.3a17.52,17.52,0,0,1,.55-13.87,41.75,41.75,0,0,1,9.32-12.25c.89-.86,1.88-1.75,3-2.71l1.58-1.34c.38-.31.75-.65,1.13-1,.24,1.65.51,3.29.75,4.91l.72,4.29A19.45,19.45,0,0,0,854.37,394a17.82,17.82,0,0,0,1.44,2.85c.38.62.58.93.58.93a34.13,34.13,0,0,1-.68-4.12,20.9,20.9,0,0,1,1.61-10.81,16.6,16.6,0,0,1,3.39-4.91c1.06,6,2.12,11.7,3.15,17.09.75,4.22,1.57,8.24,2.32,12.05A30,30,0,0,1,852.62,403.72Zm16.17,3.3c-.79-4-1.65-8.14-2.61-12.46-1.23-5.74-2.46-11.88-3.66-18.23a16.21,16.21,0,0,1,6.51-3c5.72-1.2,12.6,1.14,16.78,7.66a17.21,17.21,0,0,1,2.74,11.63h0a15.09,15.09,0,0,1-7.43,10.71A28.29,28.29,0,0,1,868.79,407Z" transform="translate(0 0)" fill="url(#a)"/><path d="M1347.23,331.18a97,97,0,0,1,5.86,9.54l3.19,6c1,2,2.26,4.11,3.66,6.31a72.54,72.54,0,0,0,20.33,22.2c8.36,6,19.54,9.09,29.75,7s18.58-8.16,24.3-15.43a60.75,60.75,0,0,0,11-23.44c4.42.45,8.74.93,12.75,1.51,10.94.51,19,6.83,20.33,14.14a13.1,13.1,0,0,1-4.56,11.94,7.49,7.49,0,0,0,.41-1,8.94,8.94,0,1,0-11.24,5.73,7.59,7.59,0,0,0,1.13.24h.1a9,9,0,0,0,5.59-.79c.41-.14.79-.28,1.23-.45a16.71,16.71,0,0,0,6.55-5.15,17.24,17.24,0,0,0,3.46-10.8,16.53,16.53,0,0,0-6.75-12.6,21,21,0,0,0-7.27-3.81,73.39,73.39,0,0,0-8.39-1.57c-4-.55-8.23-1-12.55-1.48a57.31,57.31,0,0,0-.92-22.13,33.57,33.57,0,0,0-14.44-19.53,35.14,35.14,0,0,0-22.93-5l0,0a31.36,31.36,0,0,0-20.09,10.36,30.93,30.93,0,0,0-7.47,19.42,31.29,31.29,0,0,0,1.58,10.63l-5.11-.61c-3.26-.42-6.58-.9-9.91-1.41a76.47,76.47,0,0,0-6.58-10.81c-5.72-8.34-13.64-15.54-23.13-19.49-28.45-11.66-45.32-6.48-46.86,1.34C1287.79,319.52,1316.82,325.73,1347.23,331.18ZM1390,323c.82-9.27,7.51-18.67,19.3-22a27.14,27.14,0,0,1,18.88,1.17,24,24,0,0,1,12.86,16.19,45,45,0,0,1,0,20.49q-9.55-.93-20.08-1.75c-9.26-.76-19.13-1.65-29.34-2.78A25.51,25.51,0,0,1,1390,323Zm-13.85,12.73c2.3.31,4.56.58,6.82.89a31.68,31.68,0,0,0,36.61,17.36c1.1-.31,1.64-.44,1.64-.44a48.87,48.87,0,0,1-6.54-.83,33.49,33.49,0,0,1-15.67-7.38,26.3,26.3,0,0,1-5.89-7.41c9.53,1.14,18.68,2.13,27.38,3.06,6.72.75,13.2,1.37,19.34,2A47.87,47.87,0,0,1,1428.63,362l0-.14c-5.52,5.7-12.68,9.92-20.22,10.64s-14.81-2-20.74-7.17-10.53-12.35-14.33-19.77c-.89-1.75-1.82-3.67-2.71-5.86l-1.3-3c-.31-.72-.62-1.44-1-2.19Zm-74.07-34c2.06-3,6.75-2.09,9.67-1.2a45.17,45.17,0,0,1,18.37,11.05,193.89,193.89,0,0,1,13.64,15.2C1313.81,319.79,1298,307.75,1302.12,301.64Z" transform="translate(0 0)" fill="url(#a)"/><path d="M244,344.23a17.12,17.12,0,0,0,14.72.24,21.66,21.66,0,0,0,7.08-4.61,81.05,81.05,0,0,0,5.63-6.74c2.47-3.32,5-6.87,7.62-10.53a58.57,58.57,0,0,0,20.36,10.19c8.37,2,17.47,1,24.78-3.18a36,36,0,0,0,16-18.09l-.14-.1a32,32,0,0,0,.75-23.19,31.32,31.32,0,0,0-13.69-16.37,32.91,32.91,0,0,0-10.37-3.9c1-1.44,2.06-2.84,3.12-4.27,2-2.74,4.09-5.48,6.25-8.18a79,79,0,0,0,13-.51c10.37-1,20.81-4.48,29.15-11,24.79-19.69,28.53-37.41,22.28-42.67-14.42-10.84-34.61,12.1-54.76,36.65a100.15,100.15,0,0,1-11.5.48l-7-.14c-2.3-.06-4.84,0-7.52.14a74.68,74.68,0,0,0-30.14,7.15c-9.58,4.51-18,13-21.15,23.18-3.33,10.16-2,20.72,1.72,29.51a61.23,61.23,0,0,0,15.55,21.5c-2.65,3.77-5.22,7.39-7.73,10.71-5.94,9.57-15.69,13.64-22.9,11.18a13.4,13.4,0,0,1-8.44-10.06,10.22,10.22,0,0,0,.65.86,9.29,9.29,0,0,0,13.05.55,9.2,9.2,0,1,0-12.53-13.48,7.2,7.2,0,0,0-.79.89l-.07.11a9.41,9.41,0,0,0-2.1,5.4c-.06.41-.13.85-.2,1.33a17.16,17.16,0,0,0,1.34,8.45A18,18,0,0,0,244,344.23Zm140.92-132v0c1.69,3.35-1.47,7.11-3.74,9.26a46.77,46.77,0,0,1-19.15,11,202.05,202.05,0,0,1-20.53,4.65C362.69,213.69,381.51,205.48,384.9,212.25ZM321.6,280.4c7.89,5.36,13,16,10.13,28.27a28.07,28.07,0,0,1-10.51,16.38l0,0a24.66,24.66,0,0,1-21,3.42,46.22,46.22,0,0,1-18.4-10.25c3.74-5.41,7.62-11.15,11.64-17.13,5.32-7.94,11.06-16.31,17.2-24.93A26.65,26.65,0,0,1,321.6,280.4Zm-54.35,15.21v0c-2.33-7.8-2.54-16.35.55-23.43s9.27-12.27,16.86-15,16.37-3.28,25-3c2,.07,4.18.2,6.66.48l3.36.34c.83.07,1.61.17,2.44.24-1.65,2.15-3.3,4.31-4.91,6.43-1.44,1.91-2.82,3.79-4.22,5.67a32.86,32.86,0,0,0-18.71,4,32.49,32.49,0,0,0-13.57,15.25,33.72,33.72,0,0,0-1.71,4.89c-.28,1.12-.41,1.71-.41,1.71a53.87,53.87,0,0,1,4.05-5.48,34.31,34.31,0,0,1,14.49-10.36,27.2,27.2,0,0,1,9.64-1.57c-5.76,8-11.29,15.7-16.48,23-4.05,5.64-7.86,11.15-11.46,16.35A48.34,48.34,0,0,1,267.25,295.61Z" transform="translate(0 0)" fill="url(#a)"/><path d="M1861.67,645a47.82,47.82,0,0,0-7.23,4.22,35.74,35.74,0,0,0-13.23,15.12c-8.15,18.75-5,30.07.17,31.2,11.46,1.85,16-17.38,20.09-37.54a59.65,59.65,0,0,1,6.41-3.74l4-2c1.33-.66,2.76-1.44,4.23-2.34a48.31,48.31,0,0,0,15-13.2c4.1-5.48,6.31-12.86,5-19.68a27.7,27.7,0,0,0-9.86-16.42A39.58,39.58,0,0,0,1871,593c.37-3,.75-5.79,1.19-8.47.52-7.27,4.81-12.58,9.66-13.3a8.7,8.7,0,0,1,7.84,3.22l-.61-.31a6,6,0,1,0,3.61,7.62,3.07,3.07,0,0,0,.17-.76v-.07a6.11,6.11,0,0,0-.44-3.74c-.07-.27-.17-.51-.27-.82a11.2,11.2,0,0,0-3.31-4.42,11.36,11.36,0,0,0-7.1-2.47,11.05,11.05,0,0,0-8.46,4.32,13.75,13.75,0,0,0-2.62,4.77,41.55,41.55,0,0,0-1.16,5.55c-.41,2.64-.79,5.45-1.16,8.33a38.26,38.26,0,0,0-14.63.28A22.15,22.15,0,0,0,1840.6,602a23.61,23.61,0,0,0-3.65,15.19l0-.07a20.88,20.88,0,0,0,6.55,13.54,20.43,20.43,0,0,0,19.78,4.39c-.17,1.13-.3,2.27-.47,3.4C1862.46,640.59,1862.08,642.78,1861.67,645Zm-20.43,42.55c-2-1.4-1.29-4.52-.64-6.44a30.24,30.24,0,0,1,7.57-12.07,123.1,123.1,0,0,1,10.26-8.85C1853.42,680.05,1845.2,690.41,1841.24,687.56Zm27.63-78.28c.61-4.45,1.13-8.74,1.6-12.82a31.31,31.31,0,0,1,12.45,7.78h.11c3.68,3.77,6.37,8.61,6.71,13.61a18.36,18.36,0,0,1-5.08,13.72c-3.51,3.84-8.32,6.82-13.3,9.22-1.16.55-2.45,1.13-3.92,1.72l-2,.82c-.48.21-1,.38-1.47.58.27-1.75.58-3.46.85-5.17.24-1.55.45-3,.68-4.53a21,21,0,0,0,9.42-8,21.24,21.24,0,0,0,3.1-12.83,18,18,0,0,0-.51-3.33c-.17-.71-.27-1.09-.27-1.09a36.86,36.86,0,0,1-.65,4.35,21.79,21.79,0,0,1-5.12,10.29,16.92,16.92,0,0,1-5,3.81C1867.34,621.15,1868.15,615,1868.87,609.28Zm-12.18,20.1c-6.1-.69-12.24-5.29-14.29-13.17a18.17,18.17,0,0,1,1.06-12.55v0a15.82,15.82,0,0,1,10.92-8.29,29.74,29.74,0,0,1,13.54.34c-.52,4.25-1,8.67-1.47,13.34-.65,6.17-1.4,12.69-2.29,19.47A17.36,17.36,0,0,1,1856.69,629.38Z" transform="translate(0 0)" fill="url(#a)"/><path d="M406.73,162.15a55.22,55.22,0,0,1,4.7,5.49l2.64,3.51c.86,1.17,1.89,2.38,3,3.66a46.51,46.51,0,0,0,15.2,12c5.94,3,13.35,3.76,19.63,1.35a26.79,26.79,0,0,0,13.83-12.38,39.62,39.62,0,0,0,4.57-16.07c2.88-.17,5.66-.31,8.27-.38,7-.83,12.8,2.38,14.38,6.9a8.53,8.53,0,0,1-1.65,8.1,3.26,3.26,0,0,0,.17-.65,5.76,5.76,0,1,0-6.59,4.82,4.84,4.84,0,0,0,.76,0h.07a5.78,5.78,0,0,0,3.46-1.11,6.59,6.59,0,0,0,.72-.41,10.76,10.76,0,0,0,3.64-4,11.56,11.56,0,0,0,1.1-7.27,10.82,10.82,0,0,0-5.59-7.35,13,13,0,0,0-5-1.65,42.21,42.21,0,0,0-5.49-.14c-2.6.07-5.32.21-8.13.38a36.43,36.43,0,0,0-2.88-14,21.5,21.5,0,0,0-11.19-10.93,22.69,22.69,0,0,0-15.07-.8h0a19.72,19.72,0,0,0-14.45,21.83,20.73,20.73,0,0,0,2.09,6.62c-1.09,0-2.19.11-3.32.14-2.13.07-4.29.1-6.46.14a49,49,0,0,0-5.28-6.21,34.9,34.9,0,0,0-16.71-10c-19.29-4.49-29.48.58-29.62,5.72C367.74,160.88,386.83,161.81,406.73,162.15Zm36.38-25.76a17.44,17.44,0,0,1,12.11-1.24v0a15.38,15.38,0,0,1,9.82,9,29.14,29.14,0,0,1,2.09,13.07c-4.12.27-8.44.58-12.94,1-6,.48-12.32.93-18.91,1.28a16.38,16.38,0,0,1-2.16-7C432.67,146.46,435.93,139.77,443.11,136.39ZM425.64,162c1.51,0,2.95-.1,4.43-.14a19.79,19.79,0,0,0,22,8.31,21.37,21.37,0,0,0,3.09-1.07c.65-.31,1-.44,1-.44a30.21,30.21,0,0,1-4.26.13,21.31,21.31,0,0,1-10.71-3.07,16.78,16.78,0,0,1-4.52-4.13c6.17-.28,12.11-.59,17.7-.9,4.36-.21,8.51-.48,12.5-.76a30.69,30.69,0,0,1-5.19,13.35v0c-2.91,4.21-7,7.66-11.73,8.9A17.71,17.71,0,0,1,436,179.77c-4.29-2.69-8-6.75-11.15-11.1-.75-1-1.51-2.14-2.33-3.48l-1.14-1.8c-.27-.41-.55-.86-.82-1.31C422.28,162.08,424,162,425.64,162ZM375,148c1-2.13,4.08-2,6-1.75a28.54,28.54,0,0,1,12.83,5.13,130.51,130.51,0,0,1,10.23,8.28C384.32,158.39,373,152.36,375,148Z" transform="translate(0 0)" fill="url(#a)"/><path d="M1056.45,1128.49c9.18-.65,17.17-5.18,23-11a53.71,53.71,0,0,0,12.14-19.39c3.83.9,7.57,1.75,11,2.68,9.56,1.61,16,8,16.32,14.58a11.55,11.55,0,0,1-5.28,10c.17-.27.34-.51.48-.79a7.92,7.92,0,1,0-10.49,3.81,9.18,9.18,0,0,0,1,.34h.1a7.68,7.68,0,0,0,5-.1,8.76,8.76,0,0,0,1.13-.27,15.24,15.24,0,0,0,6.31-3.81,15.64,15.64,0,0,0,4.21-9.13,14.76,14.76,0,0,0-4.59-11.81,19,19,0,0,0-6-4.11,71.44,71.44,0,0,0-7.2-2.3c-3.46-.9-7.09-1.79-10.86-2.65a51.08,51.08,0,0,0,1.54-19.52,29.73,29.73,0,0,0-10.56-18.67,31,31,0,0,0-19.57-6.83l0,.14a27.59,27.59,0,0,0-18.75,6.93,27.29,27.29,0,0,0-8.64,16.23,27.61,27.61,0,0,0,.24,9.51c-1.47-.38-2.94-.72-4.42-1.1-2.81-.72-5.69-1.48-8.53-2.3a64.23,64.23,0,0,0-4.63-10.19c-4.15-7.93-10.31-15.1-18.23-19.6-23.72-13.31-39.07-10.53-41.27-3.84-4,15,20.84,23.58,47,31.64a85.81,85.81,0,0,1,4.11,9l2.16,5.63c.68,1.85,1.54,3.84,2.54,5.94a63.64,63.64,0,0,0,15.45,21.65C1037.77,1125.33,1047.26,1129.28,1056.45,1128.49Zm-86-82.22v0c2.12-2.43,6.13-1.13,8.6,0a39.9,39.9,0,0,1,15,11.67,173.18,173.18,0,0,1,10.35,14.82C978.75,1063.46,966.14,1051.17,970.42,1046.27Zm74.92,28.14c1.71-8,8.57-15.58,19.3-17.27a24.07,24.07,0,0,1,16.45,3.06v0a21.16,21.16,0,0,1,9.53,15.58,39.91,39.91,0,0,1-2.23,18c-5.52-1.24-11.35-2.44-17.45-3.71-8-1.65-16.59-3.5-25.43-5.56A22.64,22.64,0,0,1,1045.34,1074.41Zm-6.61,36.92c-4.63-5.18-7.92-12-10.46-18.87-.58-1.65-1.2-3.4-1.75-5.46l-.82-2.78c-.2-.69-.38-1.34-.58-2l6.72,1.81c2,.52,3.94,1,5.89,1.51a27.36,27.36,0,0,0,25.84,19.39,24.6,24.6,0,0,0,4.46-.24l1.51-.2a51.75,51.75,0,0,1-5.66-1.44,29.92,29.92,0,0,1-13-8.17,23.48,23.48,0,0,1-4.39-7.14c8.23,2,16.18,3.88,23.72,5.59,5.82,1.41,11.41,2.61,16.76,3.81a41.54,41.54,0,0,1-11.93,15.55l0,0c-5.45,4.4-12.21,7.35-18.89,7.18S1043.39,1116.51,1038.73,1111.33Z" transform="translate(0 0)" fill="url(#a)"/><path d="M785.74,917.06a40,40,0,0,0-6.07.41,26.05,26.05,0,0,0-13.47,5.63c-11.31,9.67-12.82,18.09-9.8,20.51,6.89,4.9,16-6.21,25.09-18.09a45.71,45.71,0,0,1,5.38-.38h3.29c1.06,0,2.26-.11,3.53-.21a34.6,34.6,0,0,0,14-3.8,18.78,18.78,0,0,0,9.56-11.25A20.4,20.4,0,0,0,816,896a29.29,29.29,0,0,0-7.57-9.94c1.16-1.8,2.33-3.56,3.46-5.18,2.64-4.59,7.13-6.66,10.56-5.59a6.35,6.35,0,0,1,4.11,4.62,4.23,4.23,0,0,0-.31-.38,4.28,4.28,0,0,0-6.1-.07,4.35,4.35,0,0,0,0,6.15,4.22,4.22,0,0,0,6.47-.41h0a4.53,4.53,0,0,0,.89-2.63c0-.2.07-.41.07-.62a8.07,8.07,0,0,0-.76-4A8.49,8.49,0,0,0,823,874a7.9,7.9,0,0,0-6.89.1,9.88,9.88,0,0,0-3.22,2.28,35.4,35.4,0,0,0-2.54,3.25c-1.13,1.59-2.26,3.31-3.39,5.07a27.58,27.58,0,0,0-9.67-4.52,16,16,0,0,0-11.55,1.86,16.85,16.85,0,0,0-7.2,8.77l-.13-.07a15.13,15.13,0,0,0,0,11,14.86,14.86,0,0,0,6.64,7.57A15.68,15.68,0,0,0,790,911c-.48.69-.93,1.38-1.41,2.07C787.66,914.4,786.7,915.71,785.74,917.06ZM758.8,938.33c-.83-1.56.58-3.39,1.61-4.42a21.56,21.56,0,0,1,8.81-5.46,93.41,93.41,0,0,1,9.53-2.48C769.15,937.36,760.48,941.47,758.8,938.33Zm28.59-33.18a12.54,12.54,0,0,1-5.15-13.23,13.13,13.13,0,0,1,4.7-7.87,11.49,11.49,0,0,1,9.77-1.93,21.64,21.64,0,0,1,8.74,4.59c-1.68,2.62-3.39,5.39-5.21,8.25-2.36,3.83-4.94,7.87-7.68,12A12.53,12.53,0,0,1,787.39,905.15Zm4.25,6.11a15.13,15.13,0,0,0,8.67-2.18,15.69,15.69,0,0,0,6.13-7.38,11.48,11.48,0,0,0,.72-2.35c.11-.56.18-.83.18-.83a23.92,23.92,0,0,1-1.82,2.66,16,16,0,0,1-6.62,5.11,12.17,12.17,0,0,1-4.49.89c2.61-3.86,5-7.59,7.37-11.11,1.82-2.73,3.5-5.39,5.14-7.87a22.9,22.9,0,0,1,5.66,9.11l0-.1a16.41,16.41,0,0,1,.07,11.08,13.35,13.35,0,0,1-7.67,7.35,31.52,31.52,0,0,1-11.63,1.76c-1,0-2,0-3.11-.13l-1.58-.11c-.38,0-.76-.07-1.13-.07.75-1,1.47-2.07,2.19-3.1Z" transform="translate(0 0)" fill="url(#a)"/><path d="M1461.51,1124.16a9.16,9.16,0,0,0-7.94-1.39,11.32,11.32,0,0,0-4.19,1.94,43.54,43.54,0,0,0-3.62,3.23c-1.63,1.64-3.31,3.37-5,5.18a32.08,32.08,0,0,0-10.13-7.36,18.33,18.33,0,0,0-13.63-.35,20,20,0,0,0-10.16,8.61V1134a18.41,18.41,0,0,0-2.39,12.75,17.54,17.54,0,0,0,6,10.21,17.77,17.77,0,0,0,5.28,3l-2,2.09c-1.3,1.32-2.66,2.67-4.06,4a43.76,43.76,0,0,0-7.06-.83,29.73,29.73,0,0,0-16.67,3.61c-15,8.75-18.58,18.23-15.61,21.67,6.88,7.22,19.7-3.72,32.66-15.56a55.64,55.64,0,0,1,6.27.69l3.78.66c1.23.25,2.63.42,4.06.59a40.36,40.36,0,0,0,16.88-1.35,22,22,0,0,0,13.39-11,24.23,24.23,0,0,0,1.57-16.42,35.06,35.06,0,0,0-6.58-13.24c1.74-1.84,3.45-3.61,5.08-5.24,4-4.76,9.62-6.22,13.3-4.2a7.51,7.51,0,0,1,3.71,6.28c-.1-.17-.17-.34-.27-.52a5,5,0,0,0-7-1.42,5.24,5.24,0,0,0-1.36,7.15,5,5,0,0,0,7,1.39l.51-.41,0,0a5.12,5.12,0,0,0,1.57-2.81,5.64,5.64,0,0,0,.21-.7,10.38,10.38,0,0,0,0-4.79A9.89,9.89,0,0,0,1461.51,1124.16Zm-87.34,60.77,0,0c-.65-2,1.4-3.79,2.8-4.8a25.3,25.3,0,0,1,11.25-4.41,98.8,98.8,0,0,1,11.45-.79C1386.27,1186,1375.43,1188.92,1374.17,1184.93Zm39.95-32.26c-3.81-3.65-5.69-10-3.1-16.5a15.41,15.41,0,0,1,7.06-8.12l0,0a13.28,13.28,0,0,1,11.63-.1,25.34,25.34,0,0,1,9.07,7.26c-2.49,2.67-5,5.48-7.74,8.47-3.55,3.92-7.37,8.06-11.39,12.29A14,14,0,0,1,1414.12,1152.67Zm30.62-3.79h0c.62,4.52,0,9.24-2.28,12.89a15.52,15.52,0,0,1-10.37,6.84,36.7,36.7,0,0,1-13.73-.49c-1.1-.21-2.25-.48-3.55-.83l-1.77-.45c-.45-.11-.85-.24-1.3-.35l3.21-3.12c.92-.94,1.84-1.84,2.76-2.78a17.57,17.57,0,0,0,10.43-.63,17.85,17.85,0,0,0,8.59-7.26,14.49,14.49,0,0,0,1.33-2.57c.24-.59.38-.9.38-.9a29.84,29.84,0,0,1-2.66,2.68,18.62,18.62,0,0,1-8.7,4.48,14.7,14.7,0,0,1-5.35.07c3.79-3.93,7.43-7.71,10.84-11.33,2.66-2.77,5.18-5.48,7.57-8.05A27.48,27.48,0,0,1,1444.74,1148.88Z" transform="translate(0 0)" fill="url(#a)"/><path d="M947.52,1467.34a45.65,45.65,0,0,0-4.22-3.28c-2.06-1.45-4.29-2.89-6.58-4.38a36,36,0,0,0,5.72-12.66,20.88,20.88,0,0,0-2.53-15,21.87,21.87,0,0,0-11.36-9.28v-.07a19.56,19.56,0,0,0-14.13.07,19,19,0,0,0-9.63,8.73,20.33,20.33,0,0,0-2.13,6.41c-.89-.58-1.78-1.17-2.67-1.79-1.72-1.17-3.43-2.38-5.11-3.59a46.74,46.74,0,0,0-.62-7.9,34,34,0,0,0-7.37-17.49c-12.56-14.62-23.43-16.48-26.48-12.55-6.24,9,8.16,20.8,23.56,32.49a58.47,58.47,0,0,1,.58,7l.07,4.28c0,1.41.1,3,.24,4.59a46,46,0,0,0,5,18.21c3,5.73,8.3,10.66,14.61,12.35a25.75,25.75,0,0,0,17.9-1.73,37.5,37.5,0,0,0,12.73-10c2.33,1.52,4.59,3,6.69,4.45,6,3.38,8.67,9.25,7.34,13.69a8.2,8.2,0,0,1-5.9,5.39,6.28,6.28,0,0,0,.51-.42,5.62,5.62,0,1,0-7.92,0c.17.17.38.31.55.48l.07,0a5.65,5.65,0,0,0,3.32,1.14l.83.11a10.35,10.35,0,0,0,5.11-1,10.76,10.76,0,0,0,5-5.07,10.43,10.43,0,0,0-.21-9A12.6,12.6,0,0,0,947.52,1467.34Zm-80.35-69.68c2-1.1,4.35.73,5.72,2.07a28.63,28.63,0,0,1,7.14,11.42,118.49,118.49,0,0,1,3.29,12.38C868.57,1411.15,863.15,1399.9,867.17,1397.66Zm53.53,69.61,0,.07c-4.7,1.62-9.88,1.93-14.27.21a17.26,17.26,0,0,1-9.54-9.9c-1.81-4.56-2.39-9.9-2.39-15.15,0-1.24,0-2.55.13-4.07l.14-2c0-.48.07-1,.1-1.48,1.34,1,2.71,1.89,4,2.82s2.37,1.63,3.57,2.42a19.35,19.35,0,0,0,12.49,19.18,17.73,17.73,0,0,0,3,.93l1.07.21a32.11,32.11,0,0,1-3.43-2.35,20.85,20.85,0,0,1-6.62-8.59,16.49,16.49,0,0,1-1.2-5.83c5,3.35,9.81,6.49,14.4,9.49,3.53,2.34,7,4.52,10.22,6.59A29.81,29.81,0,0,1,920.7,1467.27Zm13.38-9.38c-3.36-2.17-7-4.38-10.7-6.69-4.94-3.07-10.19-6.35-15.57-9.9a16.52,16.52,0,0,1,2.29-6.76c3.09-4.94,9.43-8.32,17-6.83a17,17,0,0,1,10.19,6l0,0a15.05,15.05,0,0,1,2.57,12.7A28.08,28.08,0,0,1,934.08,1457.89Z" transform="translate(0 0)" fill="url(#a)"/></svg>