<svg xmlns="http://www.w3.org/2000/svg" viewBox="0 0 472 340"><path fill="#4b1b81" d="M0 0h472v340H0z"/><path fill="#e6062b" d="M305.3 211.8a13.6 13.6 0 0 1-2.9 3 32.6 32.6 0 0 1-7.3.4c-.7 0-.2 1 1.6 3.3a12.5 12.5 0 0 1 2 3.5c0 .7-.6 1.9-3.1 5.4-3.2 4.5-3.6 5.2-3 5.6a38.8 38.8 0 0 0 6.5-2.2 51.4 51.4 0 0 1 6.9-2.5 15 15 0 0 1 2.9 1.7c1.5 1 2.4 1.4 2.7 1.2s.3-1.4.3-3.4a15.9 15.9 0 0 1 0-3.7 19.9 19.9 0 0 1 3.1-2.5c1.8-1.3 2.8-2.2 2.7-2.6s-1-.7-3-1.3a19.8 19.8 0 0 1-3.7-1.3c-.5-.4-1.2-1.7-2-3.8a13.3 13.3 0 0 0-1.4-3.3c-.2-.1-1.3 1-2.3 2.5Z"/><path fill="#e6062b" fill-rule="evenodd" d="M168.4 108c-1 .8-1 1.4-.3 6a275.5 275.5 0 0 0 9 34.9 86.5 86.5 0 0 0 15.2 27.7 62.7 62.7 0 0 0 20.3 17.2c10 5.8 20 7.4 28.4 4.8 3.7-1 6.2-3 7.8-5.6a19.6 19.6 0 0 0 1.7-9.7 111.1 111.1 0 0 0-4.2-15.2l-1.8-5 1.7-2c9.9-10.7 12.5-24.6 5.5-29.3a9.5 9.5 0 0 0-6.1-1.6c-6 .2-10.6 4-12.6 10.2-1.4 4.5-.9 10 1.8 18.4 1.1 3.6 1.3 4.7 1 5.2-.9 1.2-6.5 5.6-8.4 6.5-2.2 1-2.7 1.8-1.3 2.4 2 .8 6.7-.6 10.1-3 1.6-1.1 2-1.2 2.2-.7.2.3 1 3 1.8 6 2.5 9.8 2 15-2 17.6-2 1.3-3.6 1.6-6.8 1.3a42.9 42.9 0 0 1-18.2-7.5 81.3 81.3 0 0 1-24.7-27.7 172.8 172.8 0 0 1-8.7-20.3c-2.1-6-6.5-22-7.4-27-.7-3.7-2-5-4-3.6Zm73.6 32c.7-1.6 2.3-3 3.4-3.1h1.1a2.3 2.3 0 0 1 1 .4c1.2 1 .8 7.5-.8 11.7-1 2.4-3.7 7.4-4.1 7.3a28.1 28.1 0 0 1-.6-16.3Z"/><path fill="#fff" fill-rule="evenodd" d="M179.6 55.7c3-4.1 4.7-5.4 8.4-6.2s7.6.7 9.5 3.4c.2.4 2.9 7.6 5.8 16a77 77 0 0 0 7 17.5c2.7 3.7 3.3 4 21.1 9 16.4 4.7 18.3 5.4 20.2 7.5a3.3 3.3 0 0 1 1 3.1c-.2 3-1 3.8-11.7 11.3l-13 9c-6.2 4.1-8.4 7.3-8.8 12.9 0 1.6 0 5.8.2 9.3.6 10 .8 20.6.5 21.3-1 2.4-6.8 3.5-9.3 1.7a3.5 3.5 0 0 1-.4-.2c-.7-.6-.7-1.8-1-10.5v-.7c-.2-3.9-.4-9.5-.7-12.4-.5-7.2.2-12.2 2-15.6a26.3 26.3 0 0 1 3.2-4.3c1.8-2 13-10 24-17.6 4-2.6 4.8-3.6 4-4.3-.4-.2-16.3-4.9-24.8-7.2-7.6-2-11-3.7-13.9-6.4s-3.2-3.6-9.4-23.3l-.2-.6c-3.2-10.6-3.7-12-4.5-12.3a1.9 1.9 0 0 0-.5 0c-1-.2-2 .6-3.7 2.6-1.9 2.3-5.3 3-6.6 1.4-.7-.8-.5-1.4 1.6-4.4Zm-64.5 32c1.5-2.3 6.1-3.4 15-3.9a91 91 0 0 1 5.6-.2c1.1.1 2 1 1.5 1.7-.4.8-2 1.2-5.7 1.4-5.3.4-6.8.7-7 1.5s0 .9 13.8 17.9c7.4 9.2 8 10 8.8 12.5a14 14 0 0 1 0 9.6c-.6 1.4-6 9.1-20 28.4-16.2 22.6-19 26.6-19 27.5 0 .5.3 1 .5 1a48.1 48.1 0 0 0 4.8-2.2c13.2-6.7 30-14.5 35.8-16.7a67.3 67.3 0 0 1 12.7-3.8 17.2 17.2 0 0 1 6.9 0c5.6.7 8.3 2.2 12.5 7 1.6 2 1.8 2.2 1.3 2.7-.9.7-2.4 1.1-4.8 1.3-2.5.3-3.1 0-6.4-3.6-4-4.6-5.8-5.2-11.2-3.5-6 2-21.8 9.2-37.5 17.2a49 49 0 0 1-16.8 6.5c-5.6.6-8.9-1.4-8.4-5.1.2-1.5 2-4.1 19.4-28.2 14.6-20.2 19.4-27 19.9-28.4a13 13 0 0 0-.5-8.8c-.7-2.2-1.5-3.3-7.4-10.6-12.8-15.5-14-17.1-14.3-18.7a2.6 2.6 0 0 1 .5-2.6ZM267.3 156c1.5-7.6 2.4-9.3 6.1-10.8 2.4-1 3.5-.9 4 .1 0 .4-.3 3.9-1 8.9l-1.2 8.2 5.1.7c10.6 1.5 27 2.8 34.7 2.7 1.2 0 1.5.1 1.4.5-.1 1-3.1 2.4-6.8 2.8-5.4.8-18.9.9-31 .3l-4.4-.3-.4 4.8c-.9 9.2-.5 16 1 19.2 2 4.2 7 5.2 11.1 2.3 1.3-1 1.3-1 1.9-4.2 1.7-9.8 8.1-15.8 15.2-14.2 3.7.8 5.9 2.8 5.6 5.1-.1 1.4-.4 1.5-1.7.7a5.2 5.2 0 0 0-5.9 0c-4.1 2.7-6.2 12.8-3.2 15.3 1.3 1.1 2.8.8 5.6-1.2a23.3 23.3 0 0 0 8-11.2c1-2.8 2.4-5.2 3.1-5.2a7.2 7.2 0 0 1 3.6 1.3c1.5 1 2 2.1 1.6 4.8a42.7 42.7 0 0 0 .3 10.4c1.1 6 2.7 7.3 6.3 5.4a19.5 19.5 0 0 0 8.3-9.3l1-2-.7-2.1c-1.4-4.6.4-8.9 4.1-10 2-.7 3.3-.5 4 .5.5.7.5 1.4 0 4.8s-.4 4.2 0 4.6c.6.6 1.8.5 7.9-.3 7.7-1 8.1-.6 7.4 7.5-.5 6.3-.4 9 .4 10.6 1.3 2.5 3.2 2.4 6.8 0 1.2-1 2.3-1.5 2.5-1.4 1.5 1.3-4.1 6-8 6.7-3.6.7-7.4-.8-8.8-3.6-1.2-2.2-1.3-3.4-1.2-9.4 0-3.6 0-5.4-.3-5.7-.5-.4-1.6-.4-6 0a29.7 29.7 0 0 1-4 0c-1-.2-1.3 0-2.4 1.5a44.4 44.4 0 0 1-10.9 10.3c-7.3 4.3-13.9.1-14.5-9.1-.2-3.3-.2-3.3-1.6-1.4-4.5 6.1-10.1 9.4-15.2 8.6-3.6-.5-5.9-2.3-7-5.5l-.3-1.1-2.2 1.6c-3.4 2.3-5.3 2.8-9.2 2.2-2.6-.4-3.4-.6-4.7-1.5-5.6-3.7-7.2-11-6.2-27.2l.2-3.3-1.4-.2c-5-.7-14-2.4-14.2-2.7-.5-.6 0-2.7 1.2-4.4 1.7-2.5 2.5-2.7 9.6-1.4l5.6 1Zm-11.5 72.6c0-6.8 5.3-11.6 13.3-12a37 37 0 0 1 15 3.4l1 .6-.5 3.7-.5 3.6-1.9-1.2a16.3 16.3 0 0 0-8-3.1c-2.4-.1-3.8.4-5 2a2 2 0 0 0-.4 2.3c.5 1.6 1.8 2.9 5.5 5 8.2 4.9 11.3 8.7 11.7 14.2.3 5.2-3.7 10.8-9.1 12.5-3.9 1.3-11.5 1-16.8-.8-3.5-1-6.8-2.7-7-3.3-.2-1.6-.8-8-.7-8.5s.4-.1 1.2.6c7.5 6.5 18.6 8 19.4 2.5.4-2.8-.9-4.2-7.2-8.2-7.6-5-10-8-10-13.3Zm62.7 10.2c4-7.8 10-11.4 19.6-12 3.7-.2 6.8.2 12.7 1.5l4.4 1v1c0 .7 0 2.7-.3 4.6l-.3 3.4-1.9-1.3a18.2 18.2 0 0 0-8.8-3.4c-2.9-.4-3.5-.4-5.2.1-4.7 1.6-7.4 5.6-8.4 12.5-.7 5.4.2 9.6 2.7 13 4 5.1 12.4 6.5 21.8 3.6 1.2-.4 2.2-.6 2.1-.4l-2.1 4.4-2.2 4-1.7.2c-5.5.5-16.5-.9-20.7-2.7a24 24 0 0 1-8.6-6.5 20.4 20.4 0 0 1-4.8-9.7c-.5-2.4-.5-3.3 0-7s.7-4.4 1.7-6.3Zm-168.2-21.7c3.3-12.4 3.4-12.7 1.8-15.3l-.8-1.4 7.7 1.2 7.7 1.2 2.3 9 3 12.4a16.2 16.2 0 0 0 1 3.5l4.5-8.8 5.5-11.3 1.2-2.5 7.9 1.2 7.9 1.1-1.3 1a3.5 3.5 0 0 0-1.4 2.5c-.4 2.8-1 32.4-.8 34a11.2 11.2 0 0 0 1.2 3 7 7 0 0 1 .8 1.6l-8.8-1a66.3 66.3 0 0 1-8.7-1.6c0-.2.4-.5.9-.8 1.6-1 1.8-2 2.2-13l.3-11.5c0-1-1 .8-6.2 11.7l-6.2 13c-.3.4-3.4-1.4-5.6-3.2a11.2 11.2 0 0 1-2.8-3.4 126 126 0 0 1-3.3-12.3l-2.6-10.6c0-.1-.4 1-3.3 12.5a94.8 94.8 0 0 0-2.1 10.2 7.2 7.2 0 0 0 1.1 2.4l1.1 1.5-6.5-1a54.7 54.7 0 0 1-6.5-1 7.5 7.5 0 0 1 1.2-1.3l.1-.1.6-.5c1.3-1.4 1.8-3.4 6.6-21.5Zm58.7 9.3c2-14.5 2-14.8.5-16.8l-.8-1 9 1.3 8.9 1.3-1.2 1a7.5 7.5 0 0 0-1.9 2.3c-.3.8-1.1 5.6-2.3 14.2-1.6 12.3-1.7 13-1.2 14.3a5.2 5.2 0 0 0 4.5 3.6c3.5.5 5.8-1.5 7.2-6.3.4-1.6 1.3-7 2.2-13.5v-.1c1.1-9 1.4-11 .7-12.4a8.7 8.7 0 0 0-.8-1.1l-.8-1 9 1.2 9 1.3-1 .7a6.3 6.3 0 0 0-1 .6c-1.3 1.3-1.7 3.6-3.8 18.8a198 198 0 0 0-2.2 17.8 6.5 6.5 0 0 0 1.1 2.5l1 1.2-7.6-1-7.5-1.1.3-2.4.4-2.4-2.2 1.5a18.9 18.9 0 0 1-4.3 2c-2 .6-2.5.6-6 .1s-4-.7-5.7-1.7c-3.7-2.4-5.3-5.2-5.4-9.2 0-1.3.8-7.9 1.9-15.7Zm90.2 8.5 4.4-1.7c2-.7 2-.7 4.1.6l1.6 1-1.9 12.4c-2 13.7-2.1 14.8-.6 16.7a6.9 6.9 0 0 1 .9 1.2l-9-1c-5-.7-8.9-1.4-8.9-1.5a7.7 7.7 0 0 1 1.2-1c2-1.4 2.3-3 4-14.9l1.3-10.6Zm31.7 46.5a15.4 15.4 0 0 1 .6-1.7c.3-.6 1.2-.3 1.3.4a6.2 6.2 0 0 1 0 2l-.1.2c-.3 1.4-.5 2-.2 2.3s.9.4 2 .5h.3l2.4.1-.2 1.5-.3 1.3-2.3-.5-2.4-.5-.7 5c-.7 4.7-.7 4.8 0 5.8a3 3 0 0 0 2.2 1.1l1.5.2-1.1 1a2.4 2.4 0 0 1-2.5.9 4.5 4.5 0 0 1-3.7-2.7c-.4-1-.4-2.2.1-6.4l.7-5.3-1.2-.2c-1.7-.2-1.5-1.2.3-1.8a4.8 4.8 0 0 0 3.3-3.2Zm-83.2 1.7a8.2 8.2 0 0 1 7.6-9.6c2.7-.2 6.3 1.1 7.9 3a7.4 7.4 0 0 1 1.6 4.7l-.1 1.3-6.6-.8-6.6-.9v1.1a6.6 6.6 0 0 0 4 5.6 11.5 11.5 0 0 0 6.7.4 5.8 5.8 0 0 1 1.6-.4l-1 1.5a2.7 2.7 0 0 1-2.5 1.5 17 17 0 0 1-7.5-1.2c-2.3-1.1-4.8-4.2-5.1-6.2Zm39.9-.8a8 8 0 0 1 6.3-3.3c5.1-.2 9.3 3.2 9.2 7.7v1.5l-6.5-1-6.5-.9-.1.7a7.1 7.1 0 0 0 1.6 4.5c2 2 6 2.8 9.2 1.8l1.6-.5-1.2 1.5c-1 1.4-1.3 1.6-2.6 1.7a16.3 16.3 0 0 1-8.8-2c-4.3-2.9-5.2-7.7-2.2-11.7Zm21-.9a8.4 8.4 0 0 0 2.3 0c.6 0 .7 0 .7 1v1.2l.8-.6a6.8 6.8 0 0 1 2.3-.9 7.3 7.3 0 0 1 6.5 2.3c1 1 1 1.5 1 3.7a47 47 0 0 1-.6 6.1c-.5 3.1-.6 3.6 0 4.3l.5.8-3-.4-3-.4.8-.8c.8-.7 1-1.2 1.4-5 .7-4.7.5-6.2-.8-7.4-1.6-1.5-4.9-1.5-6 .1a24.8 24.8 0 0 0-1.1 5.6c-.7 4.3-.7 4.8-.1 5.7l.6 1-3-.4c-3-.4-3-.5-2.4-1s.8-1.4 1.6-7c.7-5.2.8-6.5.4-7.2l-.4-1Zm31 9.7c-.3-2.6 1.5-4.3 4.8-4.7a7 7 0 0 1 2.3 0 14.8 14.8 0 0 0 2.5.5l2 .3-.2 1.6c-.2 1.4-.3 1.5-1 1.1-3.6-1.6-6.8-1.6-7 .1-.1.6 1.6 2 3.6 2.9 2.7 1.2 4.3 2.5 4.8 4 .8 2.4-.6 4.6-3.6 5.5a15.9 15.9 0 0 1-8.2-.5c-1.2-.5-1.4-.7-1.7-2.2a5.3 5.3 0 0 1-.2-1.8 5.6 5.6 0 0 1 1.5 1c1.2.7 2 1 4.3 1.3 3.1.5 4.4 0 4.6-1.4.2-1-.7-1.7-4-3.4s-4.2-2.8-4.4-4.3Zm-73.5-15.5h1.9l2.4.1c.4 0 1 1.4 1.8 4l2 6.7.8 2.6 3.1-4.6a46.2 46.2 0 0 0 3.3-5.3 1.8 1.8 0 0 0-.4-1.1c-.4-.6-.3-.6 2-.3a12.8 12.8 0 0 1 2.5.5c0 .2-10 14.6-10.2 14.7s-2.5-1.5-3-2.4a87 87 0 0 1-2.4-7.1c-1.5-4.6-2.2-6.4-2.9-7Zm-13.9 2.7c.1-.8 2.2-2.2 3.6-2.3l1.4-.1a8.6 8.6 0 0 1 1.4.5c1.4.5 2.5 2 2.4 3-.1.6-.5.6-4.5 0-3.6-.5-4.3-.7-4.3-1.1Zm38.4 5.3a5.2 5.2 0 0 1 3.6-2.2c2.3 0 4.3 1 4.9 2.5a4.5 4.5 0 0 1 .3 1.3c0 .3-1.6.2-4.6-.3-4.3-.6-4.4-.7-4.1-1.3Z"/><path fill="#e6062b" d="M169.6 77.9c-1.5.1-1.9.5-2.1 2s.9 2.4 3.3 2.5a12.4 12.4 0 0 1 3 .4l1 .3-.8 1.2c-3.5 4.6-14.3 8.3-21.2 7.3-2.9-.4-6-1.8-5.9-2.7 0-.2 4-1.5 8.8-3 7.6-2.2 8.8-2.7 9.1-3.4a2.2 2.2 0 0 0-1-3c-1-.3-2.3 0-12.7 3.1-8.9 2.7-10.6 4-9.5 7a11.3 11.3 0 0 0 4.8 4.7c5.2 2.7 12.3 2.7 20.4-.2 6.6-2.4 11.6-6.5 12.8-10.5a3.8 3.8 0 0 0-1-4 30 30 0 0 0-9-1.7Z"/><path fill="#e6062b" fill-rule="evenodd" d="M167.2 95.3c-6.7 2-7.7 2.6-8 5.3-.8 5 5.3 7.6 11.8 4.9 2.3-1 3.5-2.2 4-3.8.6-2.3.4-3.8-1-5.5-1.4-2-2.4-2-6.8-.9Zm-3.4 6c0-.2 1.4-.7 3.2-1.3a31.8 31.8 0 0 1 3.6-1c.1 0 .1.4 0 .8-.3 1.2-3.2 2.4-5 2.1-1 0-1.7-.3-1.8-.5Z"/><path fill="#e6062b" d="M154 75.1a71.9 71.9 0 0 0-13.3 5 2.1 2.1 0 0 0 .4 3.8c.8.2 1.8 0 5.3-1.4 2.4-1 7-2.5 10-3.4 6-1.7 7.2-2.3 7.4-3.4a3.3 3.3 0 0 0-2-2.7 65.4 65.4 0 0 0-7.8 2.1Zm3.1-7.7c-5.7 1.5-16.8 5.5-18.7 6.7a2 2 0 0 0-.6 3c.7 1.3 2 1.1 7.2-1l10.8-3.6c6.1-1.8 7-2.3 6.5-4a2.6 2.6 0 0 0-2-1.8 19.2 19.2 0 0 0-3.2.7Zm-6.7-5c-4.2 1.4-9 3-10.8 3.8-3.4 1.6-4.2 2.5-3.4 4s2 1.5 6-.1c3.2-1.4 16.4-5.7 17-5.6s1.7-1 1.8-2a2.1 2.1 0 0 0-1.9-2.4 59.7 59.7 0 0 0-8.7 2.3Z"/><path fill="#e6062b" d="M155.6 44.6a41.8 41.8 0 0 0-12.6 3.7 16.7 16.7 0 0 0-8.5 9.2c-1 3-1 4.6.4 6 2 2.2 3.4 2 16.8-3a52.4 52.4 0 0 1 5.2-1.6 10.3 10.3 0 0 0 2.4-.8 2.2 2.2 0 0 0 .3-3.1c-1.2-1.5-2.5-1.2-14.5 3a59.6 59.6 0 0 1-6.4 2c-.2-.2 1-2.7 1.7-3.8 2.4-3.2 9-6.3 14.9-7.1 5-.7 10.7 1.1 13.3 4.2l1.2 1.5-2.7-.5c-2.5-.4-2.8-.4-3.5.2a2 2 0 0 0 0 3.2c.6.5 1.7.9 4.8 1.5 3.8.8 4 .8 5 .1 3-1.7 1-8-3.4-11a24.2 24.2 0 0 0-9.2-3.6 29.7 29.7 0 0 0-5.2 0Z"/><path fill="#e6062b" d="M164.7 60.4c-1.1.8-1.3 1.6-.6 2.8.4.7 1 .9 5.3 1.8 3.4.8 5 1 5.6.8a2.1 2.1 0 0 0 1.3-2.9c-.4-1-1.2-1.3-7.4-2.6-3-.6-3.3-.6-4.2 0ZM166 66a1.8 1.8 0 0 0-1 1.5c-.3 2.1.3 2.4 7.2 3.8 3.5.7 3.6.7 4.6 0 1.1-.8 1.3-1.6.7-2.7-.4-.8-1-1-7.7-2.4-2.4-.5-3.1-.5-3.8-.2Zm2 6c-1.4.1-1.6.4-1.9 1.7-.3 2 .6 2.4 5.8 3.2 4.3.6 4.5.6 5.5 0 1.4-1 1.4-2.7 0-3.4a38 38 0 0 0-9.4-1.6Z"/></svg>