<svg xmlns="http://www.w3.org/2000/svg" xmlns:xlink="http://www.w3.org/1999/xlink" style="display:none"><defs><clipPath id="a" transform="translate(-.67 -.67)"><path fill="none" d="M0 0h16v16H0z"/></clipPath></defs><symbol id="arrow-left"><path d="M10.2 17.21a1 1 0 01-1.41 0l-4.5-4.5a1 1 0 010-1.42l4.5-4.5a1 1 0 011.41 0 1 1 0 010 1.42L7.41 11H21a1 1 0 010 2H7.41l2.79 2.79a1 1 0 010 1.42z" fill-rule="evenodd"/></symbol><symbol id="arrow-right"><path d="M14.79 6.79a1 1 0 011.42 0l4.5 4.5a1 1 0 010 1.42l-4.5 4.5a1 1 0 01-1.42-1.42l2.8-2.79H4a1 1 0 010-2h13.59l-2.8-2.79a1 1 0 010-1.42z" fill-rule="evenodd"/></symbol><symbol id="burger-menu"><path d="M1 12a1 1 0 011-1h20a1 1 0 010 2H2a1 1 0 01-1-1zM1 18a1 1 0 011-1h20a1 1 0 010 2H2a1 1 0 01-1-1zM1 6a1 1 0 011-1h20a1 1 0 010 2H2a1 1 0 01-1-1z" fill-rule="evenodd"/></symbol><symbol id="chat"><path d="M21.92 10.57a7.7 7.7 0 01-1 2.78A3.57 3.57 0 0121 14a4.09 4.09 0 01-.62 2.13 2.22 2.22 0 00-.28 1 6.93 6.93 0 000 .91c0 .34.06.7.11 1-.39-.11-.81-.23-1.21-.32a9.51 9.51 0 00-1-.17 2.54 2.54 0 00-1 .06 8.3 8.3 0 01-5.38-.12H11a13.37 13.37 0 01-3.45-.45 9.27 9.27 0 007 2.95 10.34 10.34 0 003.08-.47h.23c.2 0 .46.07.76.13.59.14 1.25.33 1.77.5a1.54 1.54 0 002-1.73c-.08-.48-.17-1.06-.21-1.57v-.62-.13A5.93 5.93 0 0023 14a6 6 0 00-1.08-3.43z" fill-rule="evenodd"/><path d="M5.6 5.7a4.83 4.83 0 00-2.1 3.8 4.12 4.12 0 00.53 2 1.6 1.6 0 01.18.66 2.53 2.53 0 010 .55A9 9 0 014 13.88c-.1.46-.24.95-.38 1.41.53-.19 1.11-.39 1.65-.55a9.89 9.89 0 011.29-.3 2.76 2.76 0 011.27 0A9.75 9.75 0 0011 15a8.94 8.94 0 005.4-1.7 4.83 4.83 0 002.1-3.8 4.83 4.83 0 00-2.1-3.8A8.94 8.94 0 0011 4a8.94 8.94 0 00-5.4 1.7zM4.38 4.11A11 11 0 0111 2a11 11 0 016.62 2.11A6.82 6.82 0 0120.5 9.5a6.82 6.82 0 01-2.88 5.39A11 11 0 0111 17a11.67 11.67 0 01-3.79-.62h-.34c-.24 0-.63.14-1 .25-.8.24-1.71.57-2.4.84a1.53 1.53 0 01-2-1.9c.21-.65.46-1.47.62-2.18a5.68 5.68 0 00.16-.87 1.23 1.23 0 000-.17A6.18 6.18 0 011.5 9.5a6.82 6.82 0 012.88-5.39z" fill-rule="evenodd"/></symbol><symbol id="check-round"><g clip-path="url(#a)" fill="#e6062b"><path d="M7.33 14.66a7.34 7.34 0 007.33-7.33 7.05 7.05 0 00-.33-2 .6.6 0 00-.76-.41.61.61 0 00-.41.76 6.11 6.11 0 11-5.83-4.46 6.16 6.16 0 013.41 1 .61.61 0 00.85-.16.62.62 0 00-.17-.85 7.33 7.33 0 10-4.09 13.45z"/><path d="M14.19.86L7.33 7.72l-2.2-2.2a.66.66 0 00-.94 0 .68.68 0 000 .95l2.67 2.66a.65.65 0 00.94 0l7.33-7.33a.665.665 0 10-.94-.94z"/></g></symbol><symbol id="close-round"><path d="M16.69 7.31a1 1 0 00-1.47 0L12 10.53 8.78 7.31a1 1 0 00-1.47 1.47L10.53 12l-3.22 3.22a1 1 0 101.47 1.47L12 13.47l3.22 3.22a1 1 0 101.47-1.47L13.47 12l3.22-3.22a1 1 0 000-1.47z" fill-rule="evenodd"/><path d="M12 1a11 11 0 1011 11A11 11 0 0012 1zm0 20a9 9 0 119-9 9 9 0 01-9 9z" fill-rule="evenodd"/></symbol><symbol id="down-chevron"><path d="M13.14 5.53a.66.66 0 010 .94l-4.67 4.67a.66.66 0 01-.94 0L2.86 6.47a.66.66 0 01.94-.94L8 9.72l4.2-4.19a.66.66 0 01.94 0z" fill-rule="evenodd"/></symbol><symbol id="facebook"><path d="M17.56 1h-2.77c-3.12 0-5.14 2.13-5.14 5.41v2.5H6.86a.45.45 0 00-.44.45V13a.44.44 0 00.44.44h2.79v9.13a.44.44 0 00.44.45h3.64a.45.45 0 00.44-.45v-9.15h3.26a.44.44 0 00.44-.44V9.36a.48.48 0 00-.13-.36.44.44 0 00-.31-.13h-3.26V6.79c0-1 .23-1.53 1.52-1.53h1.87a.45.45 0 00.44-.45V1.45a.46.46 0 00-.44-.45z"/></symbol><symbol id="heart"><path d="M8 13.27c-3.07-1.74-4.78-3.48-5.6-5a3.92 3.92 0 01-.31-3.76 3.16 3.16 0 015.39-.38L8 4.8l.52-.66a3.16 3.16 0 015.39.38 3.92 3.92 0 01-.31 3.76c-.82 1.51-2.53 3.25-5.6 4.99zM8 2.74A4.46 4.46 0 00.91 3.92a5.24 5.24 0 00.32 5c1 1.85 3.05 3.81 6.45 5.69l.32.19.32-.18c3.4-1.88 5.43-3.84 6.45-5.69a5.24 5.24 0 00.32-5A4.46 4.46 0 008 2.74z" fill-rule="evenodd"/></symbol><symbol id="instagram"><path d="M22 7.88a7.65 7.65 0 00-.46-2.43 5 5 0 00-1.16-1.77 4.92 4.92 0 00-1.77-1.15 7.3 7.3 0 00-2.43-.47C15.09 2 14.75 2 12 2s-3 0-4.08.06a7.53 7.53 0 00-2.43.46 5 5 0 00-1.77 1.16 5 5 0 00-1.16 1.77 7.33 7.33 0 00-.46 2.43C2.05 9 2 9.29 2 12v4.12a7.24 7.24 0 00.47 2.43 4.86 4.86 0 001.16 1.77 4.86 4.86 0 001.77 1.16 7.52 7.52 0 002.42.46C9 22 9.32 22 12 22s3.06 0 4.13-.06a7.52 7.52 0 002.42-.46 5.12 5.12 0 002.93-2.93 7.33 7.33 0 00.52-2.43V12 7.88zm-1.8 8.17a5.59 5.59 0 01-.34 1.85 3.35 3.35 0 01-1.9 1.9 5.47 5.47 0 01-1.86.34c-1 .05-1.37.06-4 .06s-3 0-4-.06a5.28 5.28 0 01-1.85-.34A3 3 0 015 19.05a3 3 0 01-.75-1.14 5.47 5.47 0 01-.34-1.86c-.05-1.06-.06-1.37-.06-4s0-3 .06-4a5.41 5.41 0 01.34-1.86A3 3 0 015 5a3 3 0 011.15-.75A5.35 5.35 0 018 3.88c1.05 0 1.37-.06 4-.06s3 0 4 .06a5.35 5.35 0 011.86.34 3 3 0 011.23.78 3.1 3.1 0 01.75 1.14A5.73 5.73 0 0120.18 8c.05 1 .06 1.37.06 4s-.01 3-.06 4.05z"/><path d="M12 6.86A5.14 5.14 0 1017.17 12 5.14 5.14 0 0012 6.86zm0 8.47A3.33 3.33 0 1115.37 12 3.34 3.34 0 0112 15.33zM18.58 6.66a1.2 1.2 0 11-1.2-1.2 1.2 1.2 0 011.2 1.2z"/></symbol><symbol id="iphone"><g fill="none"><path fill-rule="evenodd" clip-rule="evenodd" d="M8.5 2.922a1.5 1.5 0 00-1.5 1.5v15.156a1.5 1.5 0 001.5 1.5h7a1.5 1.5 0 001.5-1.5V4.422a1.5 1.5 0 00-1.5-1.5h-.083l-.244.584a1 1 0 01-.923.616h-4.5a1 1 0 01-.923-.616l-.244-.584H8.5zM5 4.422a3.5 3.5 0 013.5-3.5h7a3.5 3.5 0 013.5 3.5v15.156a3.5 3.5 0 01-3.5 3.5h-7a3.5 3.5 0 01-3.5-3.5V4.422z" fill="#E6062B"/></g></symbol><symbol id="mail"><path d="M15.17 12V4.67a2 2 0 00-2-2H2.83a2 2 0 00-2 2V12a2 2 0 002 2h10.34a2 2 0 002-2zm-1.34-5.83V12a.67.67 0 01-.66.67H2.83a.67.67 0 01-.66-.67V6.17l4.71 3.2a2 2 0 002.24 0zm0-1.6a.67.67 0 00-.66-.57H2.83a.67.67 0 00-.66.57l5.46 3.7a.65.65 0 00.75 0z" fill-rule="evenodd"/></symbol><symbol id="phone"><path d="M5.67 2a1 1 0 00-1 1v10.1a1 1 0 001 1h4.66a1 1 0 001-1V3a1 1 0 00-1-1h-.05l-.16.39a.68.68 0 01-.62.41h-3a.68.68 0 01-.62-.41L5.72 2zM3.33 3A2.33 2.33 0 015.67.62h4.66A2.33 2.33 0 0112.67 3v10.1a2.34 2.34 0 01-2.34 2.34H5.67a2.34 2.34 0 01-2.34-2.34z" fill-rule="evenodd"/></symbol><symbol id="pin"><path d="M12 7.75a2 2 0 102 2 2 2 0 00-2-2zm-4 2a4 4 0 114 4 4 4 0 01-4-4z" fill-rule="evenodd"/><path d="M12 3.25a6.39 6.39 0 00-6.5 6.27c0 2.8 1.68 5.62 3.52 7.85A29 29 0 0011.51 20l.49.44.49-.44A29 29 0 0015 17.37c1.84-2.23 3.52-5.05 3.52-7.85A6.39 6.39 0 0012 3.25zm0 18.5l-.62.79-.07-.05-.31-.24c-.21-.19-.52-.45-.88-.79a28.23 28.23 0 01-2.67-2.82c-1.91-2.31-4-5.6-4-9.12A8.39 8.39 0 0112 1.25a8.39 8.39 0 018.5 8.27c0 3.52-2.07 6.81-4 9.12a28.23 28.23 0 01-2.67 2.82c-.36.34-.67.6-.88.79l-.25.21-.07.05zm0 0l.62.79a1 1 0 01-1.24 0z" fill-rule="evenodd"/></symbol><symbol id="quotes"><path d="M18 8.93a1 1 0 01.35-.77L28 0v19a1 1 0 01-1 1h-8a1 1 0 01-1-1zM0 8.93a1 1 0 01.35-.77L10 0v19a1 1 0 01-1 1H1a1 1 0 01-1-1z" fill="#e6062b"/></symbol><symbol id="telegram"><path d="M9.63 15.18l-.36 5.59a1.27 1.27 0 001-.54l2.44-2.55 5.05 4c.93.57 1.59.27 1.84-.93l3.32-17c.29-1.5-.5-2.08-1.4-1.71L2 10.26C.69 10.82.71 11.63 1.79 12l5 1.69 11.58-7.91c.55-.39 1.05-.18.64.22z"/></symbol><symbol id="whatsapp"><path d="M14.66 13.86l2.49 1.24a2.6 2.6 0 01-2.55 2.09A7.78 7.78 0 016.81 9.4a2.6 2.6 0 012.08-2.55l1.25 2.49-1.06 1.57a.84.84 0 00-.14.4.86.86 0 00.06.42A6.12 6.12 0 0012.26 15a.87.87 0 00.42.07 1 1 0 00.4-.14zM23.25 12a11.25 11.25 0 01-16.54 9.93L3 23.16a1.8 1.8 0 01-.95 0 1.68 1.68 0 01-.82-.46A1.74 1.74 0 01.84 21l1.23-3.69a11.25 11.25 0 012.7-13.9 11.44 11.44 0 014.51-2.3A11.26 11.26 0 0123.25 12zm-4.33 2.59a.79.79 0 00-.13-.45.78.78 0 00-.35-.32L15 12.09a.81.81 0 00-.44-.09.87.87 0 00-.42.14l-1.61 1.06a4.36 4.36 0 01-1.73-1.73l1.06-1.59a.91.91 0 00.14-.42.81.81 0 00-.09-.46l-1.73-3.45a.89.89 0 00-.32-.35.91.91 0 00-.46-.13 4.36 4.36 0 00-3.06 1.27A4.32 4.32 0 005.08 9.4a9.53 9.53 0 009.52 9.52 4.26 4.26 0 001.65-.33 4.47 4.47 0 001.41-.94 4.23 4.23 0 00.93-1.4 4.31 4.31 0 00.33-1.66z"/></symbol><symbol id="youtube"><path d="M21.39 4.11a3 3 0 012.12 2.12A30.29 30.29 0 0124 12a31.88 31.88 0 01-.49 5.77 3 3 0 01-2.12 2.12c-1.88.49-9.39.49-9.39.49s-7.49 0-9.39-.51a3 3 0 01-2.12-2.1A31.76 31.76 0 010 12a31.94 31.94 0 01.49-5.77 3.09 3.09 0 012.12-2.14C4.49 3.6 12 3.6 12 3.6s7.51 0 9.39.51zM15.85 12l-6.24 3.6V8.4z" fill-rule="evenodd"/></symbol></svg>