<svg xmlns="http://www.w3.org/2000/svg" width="24" height="24" viewBox="0 0 24 24"><path d="M21.92,10.57a7.7,7.7,0,0,1-1,2.78A3.57,3.57,0,0,1,21,14a4.09,4.09,0,0,1-.62,2.13,2.22,2.22,0,0,0-.28,1,6.93,6.93,0,0,0,0,.91c0,.34.06.7.11,1-.39-.11-.81-.23-1.21-.32a9.51,9.51,0,0,0-1-.17,2.54,2.54,0,0,0-1,.06,8.3,8.3,0,0,1-5.38-.12H11a13.37,13.37,0,0,1-3.45-.45,9.27,9.27,0,0,0,7,2.95,10.34,10.34,0,0,0,3.08-.47h.23c.2,0,.46.07.76.13.59.14,1.25.33,1.77.5a1.54,1.54,0,0,0,2-1.73c-.08-.48-.17-1.06-.21-1.57,0-.26,0-.47,0-.62s0-.11,0-.13A5.93,5.93,0,0,0,23,14,6,6,0,0,0,21.92,10.57Z" fill-rule="evenodd"/><path d="M5.6,5.7A4.83,4.83,0,0,0,3.5,9.5a4.12,4.12,0,0,0,.53,2,1.6,1.6,0,0,1,.18.66,2.53,2.53,0,0,1,0,.55A9,9,0,0,1,4,13.88c-.1.46-.24.95-.38,1.41.53-.19,1.11-.39,1.65-.55a9.89,9.89,0,0,1,1.29-.3,2.76,2.76,0,0,1,1.27,0A9.75,9.75,0,0,0,11,15a8.94,8.94,0,0,0,5.4-1.7,4.83,4.83,0,0,0,2.1-3.8,4.83,4.83,0,0,0-2.1-3.8A8.94,8.94,0,0,0,11,4,8.94,8.94,0,0,0,5.6,5.7ZM4.38,4.11A11,11,0,0,1,11,2a11,11,0,0,1,6.62,2.11A6.82,6.82,0,0,1,20.5,9.5a6.82,6.82,0,0,1-2.88,5.39A11,11,0,0,1,11,17a11.67,11.67,0,0,1-3.79-.62s-.1,0-.34,0-.63.14-1,.25c-.8.24-1.71.57-2.4.84a1.53,1.53,0,0,1-2-1.9c.21-.65.46-1.47.62-2.18a5.68,5.68,0,0,0,.16-.87,1.23,1.23,0,0,0,0-.17A6.18,6.18,0,0,1,1.5,9.5,6.82,6.82,0,0,1,4.38,4.11Z" fill-rule="evenodd"/></svg>