<svg xmlns="http://www.w3.org/2000/svg" width="24" height="24" viewBox="0 0 24 24"><path d="M22,7.88a7.65,7.65,0,0,0-.46-2.43,5,5,0,0,0-1.16-1.77,4.92,4.92,0,0,0-1.77-1.15,7.3,7.3,0,0,0-2.43-.47C15.09,2,14.75,2,12,2S9,2,7.92,2.06a7.53,7.53,0,0,0-2.43.46A5,5,0,0,0,3.72,3.68,5,5,0,0,0,2.56,5.45,7.33,7.33,0,0,0,2.1,7.88C2.05,9,2,9.29,2,12s0,3.06,0,4.12a7.24,7.24,0,0,0,.47,2.43,4.86,4.86,0,0,0,1.16,1.77,4.86,4.86,0,0,0,1.77,1.16,7.52,7.52,0,0,0,2.42.46C9,22,9.32,22,12,22s3.06,0,4.13-.06a7.52,7.52,0,0,0,2.42-.46,5.12,5.12,0,0,0,2.93-2.93A7.33,7.33,0,0,0,22,16.12C22,15.06,22,14.72,22,12S22,9,22,7.88Zm-1.8,8.17a5.59,5.59,0,0,1-.34,1.85,3.35,3.35,0,0,1-1.9,1.9,5.47,5.47,0,0,1-1.86.34c-1,.05-1.37.06-4,.06s-3,0-4-.06a5.28,5.28,0,0,1-1.85-.34A3,3,0,0,1,5,19.05a3,3,0,0,1-.75-1.14,5.47,5.47,0,0,1-.34-1.86c-.05-1.06-.06-1.37-.06-4s0-3,.06-4a5.41,5.41,0,0,1,.34-1.86A3,3,0,0,1,5,5a3,3,0,0,1,1.15-.75A5.35,5.35,0,0,1,8,3.88c1.05,0,1.37-.06,4-.06s3,0,4,.06a5.35,5.35,0,0,1,1.86.34A3,3,0,0,1,19.09,5a3.1,3.1,0,0,1,.75,1.14A5.73,5.73,0,0,1,20.18,8c.05,1,.06,1.37.06,4S20.23,15,20.18,16.05Z"/><path d="M12,6.86A5.14,5.14,0,1,0,17.17,12,5.14,5.14,0,0,0,12,6.86Zm0,8.47A3.33,3.33,0,1,1,15.37,12,3.34,3.34,0,0,1,12,15.33Z"/><path d="M18.58,6.66a1.2,1.2,0,1,1-1.2-1.2A1.2,1.2,0,0,1,18.58,6.66Z"/></svg>