<svg xmlns="http://www.w3.org/2000/svg" width="24" height="24" viewBox="0 0 24 24"><path d="M12,7.75a2,2,0,1,0,2,2A2,2,0,0,0,12,7.75Zm-4,2a4,4,0,1,1,4,4A4,4,0,0,1,8,9.75Z" fill-rule="evenodd"/><path d="M12,3.25A6.39,6.39,0,0,0,5.5,9.52c0,2.8,1.68,5.62,3.52,7.85A29,29,0,0,0,11.51,20l.49.44.49-.44A29,29,0,0,0,15,17.37c1.84-2.23,3.52-5.05,3.52-7.85A6.39,6.39,0,0,0,12,3.25Zm0,18.5-.62.79h0l0,0-.07-.05L11,22.25c-.21-.19-.52-.45-.88-.79a28.23,28.23,0,0,1-2.67-2.82c-1.91-2.31-4-5.6-4-9.12A8.39,8.39,0,0,1,12,1.25a8.39,8.39,0,0,1,8.5,8.27c0,3.52-2.07,6.81-4,9.12a28.23,28.23,0,0,1-2.67,2.82c-.36.34-.67.6-.88.79l-.25.21-.07.05,0,0h0Zm0,0,.62.79a1,1,0,0,1-1.24,0Z" fill-rule="evenodd"/></svg>