<svg xmlns="http://www.w3.org/2000/svg" width="24" height="24" viewBox="0 0 24 24"><path d="M14.66,13.86l2.49,1.24a2.6,2.6,0,0,1-2.55,2.09A7.78,7.78,0,0,1,6.81,9.4,2.6,2.6,0,0,1,8.89,6.85l1.25,2.49L9.08,10.91a.84.84,0,0,0-.14.4.86.86,0,0,0,.06.42A6.12,6.12,0,0,0,12.26,15a.87.87,0,0,0,.42.07,1,1,0,0,0,.4-.14ZM23.25,12A11.25,11.25,0,0,1,6.71,21.93L3,23.16a1.8,1.8,0,0,1-.95,0,1.68,1.68,0,0,1-.82-.46A1.74,1.74,0,0,1,.84,21l1.23-3.69a11.25,11.25,0,0,1,2.7-13.9,11.44,11.44,0,0,1,4.51-2.3A11.26,11.26,0,0,1,23.25,12Zm-4.33,2.59a.79.79,0,0,0-.13-.45.78.78,0,0,0-.35-.32L15,12.09a.81.81,0,0,0-.44-.09.87.87,0,0,0-.42.14L12.53,13.2a4.36,4.36,0,0,1-1.73-1.73l1.06-1.59A.91.91,0,0,0,12,9.46.81.81,0,0,0,11.91,9L10.18,5.55a.89.89,0,0,0-.32-.35.91.91,0,0,0-.46-.13A4.36,4.36,0,0,0,6.34,6.34,4.32,4.32,0,0,0,5.08,9.4a9.53,9.53,0,0,0,9.52,9.52,4.26,4.26,0,0,0,1.65-.33,4.47,4.47,0,0,0,1.41-.94,4.23,4.23,0,0,0,.93-1.4A4.31,4.31,0,0,0,18.92,14.59Z"/></svg>
